/* XPM */
static char const*const circbuttonno_xpm[] = {
"35 35 92 2",
"  	c #000000",
". 	c #2B2C2C",
"+ 	c #5D5E5F",
"@ 	c #5B5C5D",
"# 	c #575859",
"$ 	c #535455",
"% 	c #525354",
"& 	c #565758",
"* 	c #29292A",
"= 	c #4F5051",
"- 	c #5C5D5E",
"; 	c #5A5B5C",
"> 	c #545556",
", 	c #515253",
"' 	c #4E4F50",
") 	c #4B4C4D",
"! 	c #4A4B4C",
"~ 	c #48494A",
"{ 	c #414243",
"] 	c #646566",
"^ 	c #5F6061",
"/ 	c #666768",
"( 	c #616263",
"_ 	c #464748",
": 	c #424344",
"< 	c #434445",
"[ 	c #68696A",
"} 	c #606162",
"| 	c #404142",
"1 	c #3D3D3D",
"2 	c #656667",
"3 	c #373737",
"4 	c #3E3E3E",
"5 	c #343434",
"6 	c #353535",
"7 	c #3C3C3C",
"8 	c #303030",
"9 	c #363636",
"0 	c #222222",
"a 	c #191919",
"b 	c #151515",
"c 	c #1D1D1D",
"d 	c #121212",
"e 	c #262626",
"f 	c #2C2C2C",
"g 	c #1E1E1E",
"h 	c #232323",
"i 	c #242424",
"j 	c #111111",
"k 	c #2E2F30",
"l 	c #2A2A2A",
"m 	c #272727",
"n 	c #2D2D2D",
"o 	c #4C4D4E",
"p 	c #595A5B",
"q 	c #434444",
"r 	c #333435",
"s 	c #2C2C2D",
"t 	c #212121",
"u 	c #1A1A1A",
"v 	c #292A2A",
"w 	c #212223",
"x 	c #494A4B",
"y 	c #181818",
"z 	c #161616",
"A 	c #5E5F60",
"B 	c #1C1C1C",
"C 	c #0E0E0E",
"D 	c #444546",
"E 	c #0B0B0B",
"F 	c #282929",
"G 	c #080808",
"H 	c #1E1E1F",
"I 	c #323334",
"J 	c #5C5D5D",
"K 	c #676768",
"L 	c #0A0A0A",
"M 	c #262727",
"N 	c #060606",
"O 	c #3E3F40",
"P 	c #3A3A3A",
"Q 	c #474848",
"R 	c #040404",
"S 	c #242525",
"T 	c #020202",
"U 	c #1B1B1B",
"V 	c #5E5E5F",
"W 	c #0D0D0D",
"X 	c #4D4E4F",
"Y 	c #050505",
"Z 	c #202021",
"` 	c #1D1E1E",
"                          . + @ # $ % % & *                           ",
"                    = - ; # # > $ , ' ) ! ! ~ ! {                     ",
"                ] + ; ; @ ^ ] ] / / ] ( + $ ! _ : < '                 ",
"              ( - - + ] / [ [ [ [ [ [ [ [ / } # _ | 1 ~               ",
"            ^ - + ] / [ [ [ [ [ [ [ [ [ [ [ [ / 2 % { 3 4             ",
"          - - ( [ [ [ [ [ [ [ [ [ [ [ [ [ [ [ [ [ / ( < 5 6           ",
"        + - ^ [ [ [ [ [ [ [ [ [ [ [ [ [ [ [ [ [ [ [ / } 7 8 9         ",
"      } - } [ [ [ 0 a b c + [ [ [ [ [ [ [ b d a e [ [ [ } 1 f 7       ",
"    ( ; - / [ [ [ [ c g h i [ [ [ [ [ [ c j i k 8 [ [ [ [ } 8 l |     ",
"    @ @ ] [ [ [ [ [ i c h h m [ [ [ [ [ d b n 8 [ [ [ [ [ / ~ e l     ",
"  o p @ [ [ [ [ [ [ [ c c h h q [ [ [ d j e 8 8 [ [ [ [ [ [ ] l i r   ",
"  @ & ( [ [ [ [ [ [ [ s c t 0 i [ [ a j u 8 8 [ [ [ [ [ [ [ / _ 0 e   ",
"  & # / [ [ [ [ [ [ [ [ t c i h e @ j b l 8 / [ [ [ [ [ [ [ [ p e g   ",
"v $ - / [ [ [ [ [ [ [ [ [ c g h c j j e 8 8 [ [ [ [ [ [ [ [ [ ] 9 u w ",
"@ , ( [ [ [ [ [ [ [ [ [ [ i c g u b c 8 8 [ [ [ [ [ [ [ [ [ [ / x a 8 ",
"& = ] [ [ [ [ [ [ [ [ [ [ [ c c e k 8 8 8 [ [ [ [ [ [ [ [ [ [ [ $ y i ",
"% ' ] [ [ [ [ [ [ [ [ [ [ [ e c g 8 8 8 [ [ [ [ [ [ [ [ [ [ [ [ ; z g ",
"' ) 2 [ [ [ [ [ [ [ [ [ [ [ [ y z m l A [ [ [ [ [ [ [ [ [ [ [ [ - d y ",
"' x ] [ [ [ [ [ [ [ [ [ [ [ B j z m i e [ [ [ [ [ [ [ [ [ [ [ [ p C a ",
"' ~ } [ [ [ [ [ [ [ [ [ [ [ j j e 8 e i e [ [ [ [ [ [ [ [ [ [ [ ' C c ",
"= D @ [ [ [ [ [ [ [ [ [ [ u j a k l e i i [ [ [ [ [ [ [ [ [ [ / : E e ",
"F < = / [ [ [ [ [ [ [ [ [ j y f 8 e g i i m [ [ [ [ [ [ [ [ [ ] m G H ",
"  : D ^ [ [ [ [ [ [ [ [ z j l 8 I J g g i h K [ [ [ [ [ [ [ [ % j L   ",
"  D | $ [ [ [ [ [ [ [ M j u 8 8 [ [ i g h i m [ [ [ [ [ [ [ / 9 N j   ",
"  O P | ] [ [ [ [ [ [ j d f 8 Q [ [ [ g c i h m [ [ [ [ [ [ ^ C R S   ",
"    7 9 ' / [ [ [ [ a j i 8 I [ [ [ [ [ g g i i [ [ [ [ [ / 8 T L     ",
"    ~ 9 3 } [ [ [ [ d u n 8 [ [ [ [ [ [ e g i i e [ [ [ / ; E T e     ",
"      : 8 4 ^ / [ U i f 8 V [ [ [ [ [ [ [ 0 l n m [ [ [ & a T u       ",
"        9 f 5 + [ [ [ [ [ [ [ [ [ [ [ [ [ [ [ [ [ [ / & j T C         ",
"          f e 9 } / [ [ [ [ [ [ [ [ [ [ [ [ [ [ [ / ; a T T           ",
"            k i l : ( [ [ [ [ [ [ [ [ [ [ [ [ / ^ 8 E   W             ",
"              6 0 g i : # ] / [ [ [ [ [ / ] % 6 C T T a               ",
"                P i B a g 8 _ = p @ # X | i C T T N i                 ",
"                    n t y d j C C C E N Y R Y C 0                     ",
"                          Z l g a d d a i `                           "};
