/* XPM */
static char const*const circbuttonyes_xpm[] = {
"35 35 88 1",
" 	c #000000",
".	c #2B2C2C",
"+	c #5D5E5F",
"@	c #5B5C5D",
"#	c #575859",
"$	c #535455",
"%	c #525354",
"&	c #565758",
"*	c #29292A",
"=	c #4F5051",
"-	c #5C5D5E",
";	c #5A5B5C",
">	c #545556",
",	c #515253",
"'	c #4E4F50",
")	c #4B4C4D",
"!	c #4A4B4C",
"~	c #48494A",
"{	c #414243",
"]	c #646566",
"^	c #5F6061",
"/	c #666768",
"(	c #616263",
"_	c #464748",
":	c #424344",
"<	c #434445",
"[	c #68696A",
"}	c #606162",
"|	c #404142",
"1	c #3D3D3D",
"2	c #656667",
"3	c #373737",
"4	c #3E3E3E",
"5	c #343434",
"6	c #353535",
"7	c #3C3C3C",
"8	c #303030",
"9	c #363636",
"0	c #212121",
"a	c #151515",
"b	c #1E1E1E",
"c	c #2C2C2C",
"d	c #181818",
"e	c #242424",
"f	c #2E2F30",
"g	c #2A2A2A",
"h	c #262626",
"i	c #4C4D4E",
"j	c #595A5B",
"k	c #121212",
"l	c #2D2D2D",
"m	c #333435",
"n	c #484849",
"o	c #272727",
"p	c #545555",
"q	c #222222",
"r	c #1A1A1A",
"s	c #292A2A",
"t	c #191919",
"u	c #212223",
"v	c #494A4B",
"w	c #1C1C1C",
"x	c #161616",
"y	c #3B3C3C",
"z	c #1D1D1D",
"A	c #0E0E0E",
"B	c #232323",
"C	c #444546",
"D	c #0B0B0B",
"E	c #282929",
"F	c #434444",
"G	c #4C4C4D",
"H	c #080808",
"I	c #1E1E1F",
"J	c #2C2C2D",
"K	c #111111",
"L	c #0A0A0A",
"M	c #060606",
"N	c #3E3F40",
"O	c #3A3A3A",
"P	c #040404",
"Q	c #242525",
"R	c #020202",
"S	c #0D0D0D",
"T	c #4D4E4F",
"U	c #050505",
"V	c #202021",
"W	c #1D1E1E",
"             .+@#$%%&*             ",
"          =-;##>$,')!!~!{          ",
"        ]+;;@^]]//](+$!_:<'        ",
"       (--+]/[[[[[[[[/}#_|1~       ",
"      ^-+]/[[[[[[[[[[[[/2%{34      ",
"     --([[[[[[[[[[[[[[[[[/(<56     ",
"    +-^[[[[[[[[[[[[[[[[[[[/}789    ",
"   }-}[[[[[[[[[[[[[[[0aab8[[}1c7   ",
"  (;-/[[[[[[[[[[[[[[[daef[[[[}8g|  ",
"  @@][[[[[[[[[[[[[[[[adgf[[[[/~hg  ",
" ij@[[[[[[[[[[[[[[[[[kbl8[[[[[]gem ",
" @&([[[[[[[[[[[[[[[[nkofp[[[[[/_qh ",
" &#/[[[[[[[[[[[[[[[[ragl[[[[[[[jhb ",
"s$-/[[[[[[[[[[[[[[[[atf8[[[[[[[]9ru",
"@,([[[[[[[[[[[[[[[[$kqf8[[[[[[[/vt8",
"&=][[[[[[[[[[[[[[[[wkhf}[[[[[[[[$de",
"%'][[[[[[[[[[[[[[[[dac8[[[[[[[[[;xb",
"')2[[[[[ybzzq[[[[[[atf3[[[[[[[[[-kd",
"'v][[[[[[qtaz+[[[[[kbf[[[[[[[[[[jAt",
"'~}[[[[[[[zbBe[[[[0ahf[[[[[[[[[['Az",
"=C@[[[[[[[ezBBo[[[rdg8[[[[[[[[[/:Dh",
"E<=/[[[[[[[zzBBF[[ablG[[[[[[[[[]oHI",
" :C^[[[[[[[Jz0qe[nkhl[[[[[[[[[[%KL ",
" C|$[[[[[[[[0zeBhtag8[[[[[[[[[/9MK ",
" NO|][[[[[[[[zbBzKdl8[[[[[[[[[^APQ ",
"  79'/[[[[[[[ezbrdhf/[[[[[[[[/8RL  ",
"  ~93}[[[[[[[[zzogf8[[[[[[[[/;DRh  ",
"   :84^/[[[[[[hBccf8[[[[[[[[&tRr   ",
"    9c5+[[[[[[[[[[[[[[[[[[/&KRA    ",
"     ch9}/[[[[[[[[[[[[[[[/;tRR     ",
"      feg:([[[[[[[[[[[[/^8D S      ",
"       6qbe:#]/[[[[[/]%6ARRt       ",
"        Oewtb8_=j@#T|eARRMe        ",
"          l0dkKAAADMUPUAq          ",
"             VgbtkkteW             "};
