/* XPM */
static char const*const sqrbuttonpressed_xpm[] = {
"35 35 82 1",
" 	c #000000",
".	c #606162",
"+	c #6D6E6F",
"@	c #68696A",
"#	c #646566",
"$	c #656667",
"%	c #555657",
"&	c #1B1B1B",
"*	c #767778",
"=	c #727374",
"-	c #6C6D6E",
";	c #5A5B5C",
">	c #545556",
",	c #575859",
"'	c #737475",
")	c #616263",
"!	c #5D5E5F",
"~	c #515253",
"{	c #4D4E4F",
"]	c #4A4B4C",
"^	c #424344",
"/	c #171717",
"(	c #717273",
"_	c #6F7071",
":	c #4E4F50",
"<	c #444546",
"[	c #464748",
"}	c #707172",
"|	c #696A6B",
"1	c #3E3E3E",
"2	c #3A3A3A",
"3	c #404142",
"4	c #535455",
"5	c #414243",
"6	c #2C2C2C",
"7	c #111111",
"8	c #060606",
"9	c #040404",
"0	c #050505",
"a	c #0B0B0B",
"b	c #1D1D1D",
"c	c #3D3D3D",
"d	c #363636",
"e	c #020202",
"f	c #242424",
"g	c #343434",
"h	c #303030",
"i	c #3D3D3E",
"j	c #666768",
"k	c #121212",
"l	c #232323",
"m	c #262626",
"n	c #272727",
"o	c #2A2A2A",
"p	c #373737",
"q	c #080808",
"r	c #48494A",
"s	c #2E2F30",
"t	c #5F6061",
"u	c #525354",
"v	c #434445",
"w	c #4F5051",
"x	c #222222",
"y	c #212121",
"z	c #5C5D5E",
"A	c #0A0A0A",
"B	c #070707",
"C	c #1E1E1E",
"D	c #5B5C5D",
"E	c #2D2D2D",
"F	c #4B4C4D",
"G	c #565758",
"H	c #191919",
"I	c #1A1A1A",
"J	c #505152",
"K	c #181818",
"L	c #151515",
"M	c #0E0E0E",
"N	c #3D3E3F",
"O	c #353535",
"P	c #1C1C1C",
"Q	c #393A3B",
"      .+@#$$$$$$$$$$$$$$$$##%      ",
"   &*=+-@$################..;>,    ",
"  .*'=++@$################)!,~{]^  ",
" /'='(_+@$################)!>:]<[  ",
" (}('==|1222222222222222223)4]<51< ",
" ++_=(67899999999999999990abc>32dd ",
";|-+_6a  eeeeeeeeeeeeeeee99af[cdghi",
"j###@k almmmmmmmmmmmmmmmmnnmf2:ooop",
"###)3qef3[[[[[[[[[[[[[[[[[r]p1:mmfs",
".t)tcq0o[]]]]]]]]]]]]]]]]]:u^vwlfxo",
"....cq8or]]]]]]]]]]]]]]]]]:4<[wyxxo",
"....cq8or]]]]]]]]]]]]]]]]]:4<[wyxxo",
"....cq8or]]]]]]]]]]]]]]]]]:4<[wyxxo",
"....cq8or]]]]]]]]]]]]]]]]]:4<[wyxxo",
"....cq8or]]]]]]]]]]]]]]]]]:4<[wyxxo",
"....cq8or]]]]]]]]]]]]]]]]]:4<[wyxxo",
"....cq8or]]]]]]]]]]]]]]]]]:4<[wyxxo",
"....cq8or]]]]]]]]]]]]]]]]]:4<[wyxxo",
"....cq8or]]]]]]]]]]]]]]]]]:4<[wyxxo",
"....cq8or]]]]]]]]]]]]]]]]]:4<[wyxxo",
"....cq8or]]]]]]]]]]]]]]]]]:4<[wyxxo",
"....cq8or]]]]]]]]]]]]]]]]]:4<[wyxxo",
"....cq8or]]]]]]]]]]]]]]]]]:4<[wyxxo",
"....cq8or]]]]]]]]]]]]]]]]]:4<[wyxxo",
"....cq8or]]]]]]]]]]]]]]]]]:4<[wyxxo",
".z!z1AB6r]]]]]]]]]]]]]]]]]w4[[wCxyn",
"t;;D^7AE]wwwwwwwwwwwwwwwwwu,]F~bbbn",
"!,>>!xkEwG,,,,,,,,,,,,,,,,D!4,rHIIs",
"Jw:F]^oo^]FFFFFFFFFFFFFFF:~Gz,IKKHg",
" :]r<wr<r]FFFFFFFFFFFFFFF:uD,pkkLK ",
" w<<cdd]w~~~~~~~~~~~~~~~~~u[H7Mkkf ",
"  <12gElCbIIIIIIIIIIIIIIIIKLkkk7K  ",
"  N1OhofCbPPPPPPPPPPPPPPPIHKLk7Kh  ",
"    3smyCIPPPPPPPPPPPPPPPPHKLLl    ",
"      Qhmlxxxxxxxxxxxxxxxxxmh      "};
