/* XPM */
static char const*const sqrbutton_xpm[] = {
"35 35 71 1",
" 	c #000000",
".	c #616263",
"+	c #6B6C6D",
"@	c #6C6D6E",
"#	c #696A6B",
"$	c #666768",
"%	c #5E5F60",
"&	c #6D6E6F",
"*	c #717273",
"=	c #707172",
"-	c #68696A",
";	c #646566",
">	c #606162",
",	c #5F6061",
"'	c #5D5E5F",
")	c #5A5B5C",
"!	c #565758",
"~	c #5B5C5D",
"{	c #595A5B",
"]	c #727374",
"^	c #6F7071",
"/	c #4A4B4C",
"(	c #3E3E3E",
"_	c #404142",
":	c #575859",
"<	c #525354",
"[	c #767778",
"}	c #4D4E4F",
"|	c #363636",
"1	c #373737",
"2	c #515253",
"3	c #48494A",
"4	c #2C2C2C",
"5	c #303030",
"6	c #353535",
"7	c #232323",
"8	c #3A3A3A",
"9	c #3C3C3C",
"0	c #242424",
"a	c #2A2A2A",
"b	c #535455",
"c	c #656667",
"d	c #464748",
"e	c #262626",
"f	c #1C1C1C",
"g	c #4F5051",
"h	c #151515",
"i	c #494A4B",
"j	c #121212",
"k	c #424344",
"l	c #111111",
"m	c #4E4F50",
"n	c #434445",
"o	c #5D5D5E",
"p	c #2D2D2D",
"q	c #0E0E0E",
"r	c #1A1A1A",
"s	c #505051",
"t	c #3D3D3D",
"u	c #0A0A0A",
"v	c #5C5D5E",
"w	c #080808",
"x	c #323334",
"y	c #444546",
"z	c #191919",
"A	c #070707",
"B	c #515252",
"C	c #4B4C4D",
"D	c #272727",
"E	c #181818",
"F	c #4F5050",
"      .+@+++++++++++++++++#$%      ",
"    &*=-;>,,,,,,,,,,,,,,,')!!~>    ",
"  {*]&^^&&@@@@@@@@@@@@@@@+$'/(_:<  ",
"  =]=[[*=&&&&&&&&&&&&&&&&&@#>}|12  ",
" @=^[]&$;;;;;;;;;;;;;;;;;;;;;>345: ",
" =#]]-;......................>:678 ",
">+#]&;........................~90ab",
"-.#=c.........................'defg",
"-~$&;.........................,3ah3",
"$!c+;.........................,iajk",
"$b;+;.........................,3alk",
"$b;+;.........................,3alk",
"$b;+;.........................,3alk",
"$b;+;.........................,3alk",
"$b;+;.........................,3alk",
"$b;+;.........................,3alk",
"$b;+;.........................,3alk",
"$b;+;.........................,3alk",
"$b;+;.........................,3alk",
"$b;+;.........................,3alk",
"$b;+;.........................,3alk",
"$b;+;.........................,3alk",
"$b;+;.........................,3alk",
"$b;+;.........................,3alk",
"$b;+;.........................,3alk",
"$<;#;.........................,3alk",
"cm,-;.........................'neln",
";/b;;.........................)8fj/",
"o/_:>........................>mpqrs",
" <|k~>......................>:trua ",
" '15t<{v',,,,,,,,,,,,,,,,,'{}97wl3 ",
"  gx051_yddddddddddddddddy_8azAj|  ",
"  BCDrf0eeeeeeeeeeeeeeeeee7zqAl|i  ",
"    b|0Elqqqqqqqqqqqqqqqqqqqzad    ",
"      <}n_________________kiF      "};
