/* XPM */
static char const * const main_cursor_xpm[] = {
"24 24 10 1",
" 	c #000000",
".	c #00232F",
"+	c #008FC3",
"@	c #22C4FF",
"#	c #006488",
"$	c #030303",
"%	c #45283C",
"&	c #AC3232",
"*	c #CBDBFC",
"=	c #D95763",
"         ......         ",
"      ...++++++...      ",
"     .+++@+@+@++++.     ",
"    .+@@++####+++++.    ",
"   .+@+##$$$$$$#++++$   ",
"  .+@+#$$%%%%%%$$#+++$  ",
" .+@+#$%%&%&%&&%%$++++$ ",
" .+@#$%%&&&&&&&&%%.+++$ ",
" .++#$%&&*=&&&&%&%.+++$ ",
".+@+$%&&=**=&&&&%%%.++#$",
".++#$%%&=****&&&&%%.+++$",
".+@#$%&&&******&%%%.@++$",
".++#$%%&&******%&%%.++#$",
".+@#$%&&&****&%&%%%.@+#$",
".+++$%%&&**&&%&%%%%.++#$",
" .++#$%&%*&&&&%%%%.+@+$ ",
" .+++$%%&%&%&%%%%%.+@#$ ",
" .+++#.%%%%%%%%%%.+@+#$ ",
"  .+++#..%%%%%%..+@+#$  ",
"   .++++#......++@+#$   ",
"    $++++++@+@+@@+#$    ",
"     $++++++++++##$$    ",
"      $$$#++###$$$      ",
"         $$$$$$         "};
