/* XPM */
static char const * const  slightsmartbot_xpm[] = {
"224 64 69 1",
" 	c None",
".	c #000000",
"+	c #394F58",
"@	c #0083B3",
"#	c #A1B2F3",
"$	c #0A0A0A",
"%	c #3E3E3E",
"&	c #232323",
"*	c #030303",
"=	c #656565",
"-	c #4D4D4D",
";	c #3D3D3D",
">	c #2E2E2E",
",	c #1C1C1C",
"'	c #0B0B0B",
")	c #0F0F0F",
"!	c #191919",
"~	c #252525",
"{	c #333333",
"]	c #393939",
"^	c #2C2C2C",
"/	c #010101",
"(	c #090909",
"_	c #181818",
":	c #282828",
"<	c #3B3B3B",
"[	c #151515",
"}	c #292929",
"|	c #040404",
"1	c #323232",
"2	c #070707",
"3	c #383838",
"4	c #363636",
"5	c #3C3C3C",
"6	c #343434",
"7	c #212121",
"8	c #1F1F1F",
"9	c #313131",
"0	c #373737",
"a	c #353535",
"b	c #262626",
"c	c #303030",
"d	c #2B2B2B",
"e	c #3A3A3A",
"f	c #2D2D2D",
"g	c #222222",
"h	c #0E0E0E",
"i	c #1A1A1A",
"j	c #0D0D0D",
"k	c #171717",
"l	c #242424",
"m	c #141414",
"n	c #272727",
"o	c #2F2F2F",
"p	c #202020",
"q	c #080808",
"r	c #020202",
"s	c #111111",
"t	c #131313",
"u	c #1E1E1E",
"v	c #2A2A2A",
"w	c #161616",
"x	c #101010",
"y	c #1B1B1B",
"z	c #121212",
"A	c #0C0C0C",
"B	c #1D1D1D",
"C	c #050505",
"D	c #060606",
"................................................................................................................................................................................................................................",
"..........................+@@@@@@@@@@@@@@@@@@@@@@@@@@@@@@@@@@@@@@@@@@@@@@@@@@@@@@@@@@@@@@@@@@@@@@@@@@@@@@@@@@@@@@@@@@@@@@@@@@@@@@@@@@@@@@@@@@@@@@@@@@@@@@@@@@@@@@@@@@@@@@@@@@@@@@@@@@@@@@@@@@@@@@@@@@+..........................",
"......................+@@@@@#@#@@#@#@#@#@#@#@#@#@#@#@#@#@#@#@#@#@#@#@#@#@#@#@#@#@#@#@#@#@#@#@#@#@#@#@#@#@#@#@#@#@#@#@#@#@#@#@#@#@#@#@#@#@#@#@#@#@#@#@#@#@#@#@#@#@#@#@#@#@#@#@#@#@#@#@#@#@#@#@#@#@@@@@@@@@+......................",
"....................+@@@@@@#@#@##@#@#@#@#@#@#@#@#@#@#@#@#@#@#@#@#@#@#@#@#@#@#@#@#@#@#@#@#@#@#@#@#@#@#@#@#@#@#@#@#@#@#@#@#@#@#@#@#@#@#@#@#@#@#@#@#@#@#@#@#@#@#@#@#@#@#@#@#@#@#@#@#@#@#@#@#@#@#@#@#@@@#@@@@@@+....................",
"................+.+@@@@#@#@@@@@@@@@@@@@@@@@@@@@@@@@@@@@@@@@@@@@@@@@@@@@@@@@@@@@@@@@@@@@@@@@@@@@@@@@@@@@@@@@@@@@@@@@@@@@@@@@@@@@@@@@@@@@@@@@@@@@@@@@@@@@@@@@@@@@@@@@@@@@@@@@@@@@@@@@@@@@@@@@@@@@@@@#@@@@@@@@@@@..................",
"..........@#@#@@@@@@###@#@#@@@@@@@@@@@@@@@@@@@@@@@@@@@@@@@@@@@@@@@@@@@@@@@@@@@@@@@@@@@@@@@@@@@@@@@@@@@@@@@@@@@@@@@@@@@@@@@@@@@@@@@@@@@@@@@@@@@@@@@@@@@@@@@@@@@@@@@@@@@@@@@@@@@@@@@@@@@@@@@@@@@@@@@@@@@#@@@@@@@@@#@#@@...........",
"........@##++++@@+@###@@@@@@@@@@@@@@@@@@@@@@@@@@@@@@@@@@@@@@@@@@@@@@@@@@@@@@@@@@@@@@@@@@@@@@@@@@@@@@@@@@@@@@@@@@@@@@@@@@@@@@@@@@@@@@@@@@@@@@@@@@@@@@@@@@@@@@@@@@@@@@@@@@@@@@@@@@@@@@@@@@@@@@@@@@@@@@@@@@@@@@@@##++++@@+.........",
".......@#+$....$@@$@@@@@@++++++++++++++++++++++++++++++++++++++++++++++++++++++++++++++++++++++++++++++++++++++++++++++++++++++++++++++++++++++++++++++++++++++++++++++++++++++++++++++++++++++++++++@@@@@@@@#+$....$@@.........",
".......#+$.%%%&.+@@@@@++++****************************************************************************************************************************************************************************+@@@@@#+$.%%%&.+@@........",
"......@#$.=&&&$&$+@$@++****&&&&&&&&&&&&&&&&&&&&&&&&&&&&&&&&&&&&&&&&&&&&&&&&&&&&&&&&&&&&&&&&&&&&&&&&&&&&&&&&&&&&&&&&&&&&&&&&&&&&&&&&&&&&&&&&&&&&&&&&&&&&&&&&&&&&&&&&&&&&&&&&&&&&&&&&&&&&&&&&&&&&&&&&&&***++@@#$.=&&&$&$+@........",
"......#+.%&&&.&%&$@+****&&&&%%%%%%%%%%%%%%%%%%%%%%%%%%%%%%%%%%%%%%%%%%%%%%%%%%%%%%%%%%%%%%%%%%%%%%%%%%%%%%%%%%%%%%%%%%%%%%%%%%%%%%%%%%%%%%%%%%%%%%%%%%%%%%%%%%%%%%%%%%%%%%%%%%%%%%%%%%%%%%%%%%%%%%%%%&&&..$#+.%&&&.&%&$@+.......",
"......@+.%&&.&=&$$#+*&&&&%%%%%%%%%%%%%%%%%%%%%%%%%%%%%%%%%%%%%%%%%%%%%%%%%%%%%%%%%%%%%%%%%%%%%%%%%%%%%%%%%%%%%%%%%%%%%%%%%%%%%%%%%%%%%%%%%%%%%%%%%%%%%%%%%%%%%%%%%%%%%%%%%%%%%%%%%%%%%%%%%%%%%%%%%%%%%%%%-$@+.%&&.&=&$$#+.......",
"......#+.%&.&=&&.$@+*&&%%%%%%%%%%%%%%%%%%%%%%%%%%%%%%%%%%%%%%%%%%%%%%%%%%%%%%%%%%%%%%%%%%%%%%%%%%%%%%%%%%%%%%%%%%%%%%%%%%%%%%%%%%%%%%%%%%%%%%%%%%%%%%%%%%%%%%%%%%%%%%%%%%%%%%%%%%%%%%%%%%%%%%%%%%%%%%%%%%-$#+.%&.&=&&.$@+.......",
"......@+.&$&=&&&.$#+*&%%%%%%%%%%%%%%%%%%%%%%%%%%%%%%%%%%%%%%%%%%%%%%%%%%%%%%%%%%%%%%%%%%%%%%%%%%%%%%%%%%%%%%%%%%%%%%%%%%%%%%%%%%%%%%%%%%%%%%%%%%%%%%%%%%%%%%%%%%%%%%%%%%%%%%%%%%%%%%%%%%%%%%%%%%%%%%%%%%%-$@+.&$&=&&&.$#+.......",
"......@@$.&%&&&.$+@**&%%%%%%%%%%%%%%%%%%%%%%%%%%%%%%%%%%%%%%%%%%%%%%%%%%%%%%%%%%%%%%%%%%%%%%%%%%%%%%%%%%%%%%%%%%%%%%%%%%%%%%%%%%%%%%%%%%%%%%%%%%%%%%%%%%%%%%%%%%%%%%%%%%%%%%%%%%%%%%%%%%%%%%%%%%%%%%%%%%%-$@@$.&%&&&.$+@........",
".....+@@@+$&$..$+#+*&%%%%%%%%%%%%%%%%%%%%%%%%%%%%%%%%%%%%%%%%%%%%%%%%%%%%%%%%%%%%%%%%%%%%%%%%%%%%%%%%%%%%%%%%%%%%%%%%%%%%%%%%%%%%%%%%%%%%%%%%%%%%%%%%%%%%%%%%%%%%%%%%%%%%%%%%%%%%%%%%%%%%%%%%%%%%%%%%%%%%%-$@@+$&$..$+#@++......",
".....+@+@@+$$$$+#+**&%%%%%%%%%%%%%%%%%%%%%%%%%%%%%%%%%%%%%%%%%%%%%%%%%%%%%%%%%%%%%%%%%%%%%%%%%%%%%%%%%%%%%%%%%%%%%%%%%%%%%%%%%%%%%%%%%%%%%%%%%%%%%%%%%%%%%%%%%%%%%%%%%%%%%%%%%%%%%%%%%%%%%%%%%%%%%%%%%%%%%-$+@@+$$$$+#@@@@+.....",
".....@@@+@@@#@#@+**&%%%%%%%%%%%%%%%%%%%%%%%%%%%%%%%%%%%%%%%%%%%%%%%%%%%%%%%%%%%%%%%%%%%%%%%%%%%%%%%%%%%%%%%%%%%%%%%%%%%%%%%%%%%%%%%%%%%%%%%%%%%%%%%%%%%%%%%%%%%%%%%%%%%%%%%%%%%%%%%%%%%%%%%%%%%%%%%%%%%%%%%-$+@@@#@#@@@+@@@.....",
"....+@##@@*++++***&%%%%%%%%%%%%%%%%%%%%%%%%%%%%%%%%%%%%%%%%%%%%%%%%%%%%%%%%%%%%%%%%%%%%%%%%%%%%%%%%%%%%%%%%%%%%%%%%%%%%%%%%%%%%%%%%%%%%%%%%%%%%%%%%%%%%%%%%%%%%%%%%%%%%%%%%%%%%%%%%%%%%%%%%%%%%%%%%%%%%%%%%%-..$++++$+@@@@@+....",
"....@@##@@******&&%%%%%%%%%%%%%%%%%%%%%%%%%%%%%%%%%%%%%%%%%%%%%%%%%%%%%%%%%%%%%%%%%%%%%%%%%%%%%%%%%%%%%%%%%%%%%%%%%%%%%%%%%%%%%%%%%%%%%%%%%%%%%%%%%%%%%%%%%%%%%%%%%%%%%%%%%%%%%%%%%%%%%%%%%%%%%%%%%%%%%%%%%%%&&......@@@@@@@....",
"...+@##@@++*&&&&%%%%%%%%%%%%%%%%%%%%%%%%%%%%%%%%%%%%%%%%%%%%%%%%%%%%%%%%%%%%%%%;>,'*)!~{;%%%%%%%%%%%%%%%%%%%%%%%%%%%%%%%%%%%%%%%%%%%%%%%%%%%]...>%%%%%%%%%%%%%%%%%%%%%%^...../(_:]%%%%%%%%%%%%%%%%%%%%%%]...>%%&&&&&+@@@@@@@+...",
"...@@##@@+**&&%%%%%%%%%%%%%%%%%%%%%%%%%%%%%%%%%%%%%%%%%%%%%%%%%%%%%%%%%%%%%%%%<[........}%%%%%%%%%%%%%%%%%%%%%%%%%%%%%%%%%%%%%%%%%%%%%%%%%%%]...>%%%%%%%%%%%%%%%%%%%%%%^.........|1%%%%%%%%%%%%%%%%%%%%%]...>%%%%%%-$+@@@@@@@...",
"..+@@#@@++*&&%%%%%%%%%%%%%%%%%%%%%%%%%%%%%%%%%%%%%%%%%%%%%%%%%%%%%%%%%%%%%%%%%,.........}%%%%%%%%%%%%%%%%%%%%%%%%%%%%%%%%%%%%%%%%%%%%%%%%%%%]...>%%%%%%%%%%%%%%%%%%%%%%^..........2<%%%%%%%%%%%%%%%%%%%%]...>%%%%%%%-$@@@@@@@+..",
"..@@#@@@+**&%%%%%%%%%%%%%%%%%%%%%%%%%%%%%%%%%%%%%%%%%%%%%%%%%%%%%%%%%%%%%%%%%3...!4;567.}%%%%%%%%%%%%%%%%%%%%%%%%%%%%%%%%%%%%%%%%%%%%%%%%%%%]...>%%%%%%%%%%%%%%%%%%%%%%^...%%;]8...9%%%%%%%%%%%%%%%%%%%%]...>%%%%%%%-$+@#@@@@@..",
"..@@@#@@+*&&%%%%%%%%%%%%%%%%%%%%%%%%%%%%%%%%%%%%%%%%%%%%%%%%%%%%%%%%%%%%%%%%%9...0%%%%%a>%%%..bc)'d%}$(~;%%%;9&_)*(_:e%%%%%%f...e3gh|i6%%&...........<%%%%%%%%%%%%%%%%%^...%%%%]...^%%%%%67h*j8{%%%%%&...........<%%%-$@@@@@@@..",
"..@@#@@++*&%%%%%%%%%%%%%%%%%%%%%%%%%%%%%%%%%%%%%%%%%%%%%%%%%%%%%%%%%%%%%%%%%%9...0%%%%%%%%%%..k....8....^%%%d........24%%%%%f...92.....5%&...........<%%%%%%%%%%%%%%%%%^...%%%%]...9%%%%l.......g;%%%&...........<%%%-$@@@#@@@..",
".+@@@#@+**&%%%%%%%%%%%%%%%%%%%%%%%%%%%%%%%%%%%%%%%%%%%%%%%%%%%%%%%%%%%%%%%%%%0...k0%%%%%%%%%............i%%%d.........m%%%%%f...j......5%&...........<%%%%%%%%%%%%%%%%%^...%%%]7..2<%%%}.........n%%%&...........<%%%-$+@@@@@@+.",
".@@@#@@+*&&%%%%%%%%%%%%%%%%%%%%%%%%%%%%%%%%%%%%%%%%%%%%%%%%%%%%%%%%%%%%%%%%%%%,....,o<%%%%%%...6a...13/.(%%%f&c0<;<:...0%%%%f....70;<4p;%%%%]...>%%%%%%%%%%%%%%%%%%%%%%^.........q1%%%er..s4;4t../]%%%%%]...>%%%%%%%%%-*@#@@@@+.",
".@@#@@@+*&%%%%%%%%%%^..r%%%%%%.7%%%%%%%%%%r8%%%%%%%%%%%^..r%%%%%%%%%%%%%%%%%%%e!.....*le%%%%..r%%q..5%s..;%%%%%%%%%5...c%%%%f...u%%%%%%%%%%%]...>%%%%%%%%%%%%%%%%%%%%%%^........ia%%%%f...{%%%a...v%%%%%]...>%%%%%%%%%-*@@@@@@+.",
".@@@#@@+*&%%%%4!2_{%%%ur%%%%%%.7%%%%%%%%%%r8%%%%%%g.5%%%%ur%%%%%%%%%%%%%%%%%%%%%9k.....'0%%%..(%%)..%%w..5%%%{&m2/.....^%%%%f...{%%%%%%%%%%%]...>%%%%%%%%%%%%%%%%%%%%%%^..........&;%%g..$%%%%%)..u%%%%%]...>%%%%%%%%%-*@@#@@@+.",
".@@#@@@+*&%%%5'p5]g%%%ur%%%%%%%%%%%%%%%%%%r8%%%%%%g.5%%%%ur%%%%%%%%%%%%%%%%%%%%%%%0v)...);%%..(%%x..%%w..<%;p..........v%%%%f...]%%%%%%%%%%%]...>%%%%%%%%%%%%%%%%%%%%%%^...%%;ed...v%%,..k%%%%%y..k%%%%%]...>%%%%%%%%%-*@#@@@@+.",
".@@@#@@+*&%%%0.n%%%%%%ur%%%%p..7%%%6zj8.>%r_y2l%1.....6%%ur%%%^.{%<ru%%%%%%%%%%%%%%%;p...1%%..(%%x..%%w..<%>...........}%%%%f...e%%%%%%%%%%%]...>%%%%%%%%%%%%%%%%%%%%%%^...%%%%%p..A%%y..k%%%%%y..k%%%%%]...>%%%%%%%%%-*@@#@@@+.",
".@@#@@@+*&%%%<r/&3%%%%ur%%%%%%.7%%5(y<i.>%r(e~.3%%g.5%%%%ur%%%e/&%c.o%%%%%%%%%%%%%%%%3...v%%..(%%x..%%w..<%,...n];%<...}%%%%f...e%%%%%%%%%%%]...>%%%%%%%%%%%%%%%%%%%%%%^...%%%%%}...<%7..$%%%%%)..u%%%%%]...>%%%%%%%%%-*@#@@@++.",
".@@@@@@+*&%%%%9A..~%%%ur%%%%%%.7%%{.o%o.>%rB%>.6%%g.5%%%%ur%%%%,q;p/<%%%%%%%%{f;%%%%%4...d%%..(%%x..%%w..<%[../;%%%1...}%%%%f...e%%%%%%%%%%%]...f%%%%%%%%%%%%%%%%%%%%%%^...%%%%%g...<%f...{%%%a...v%%%%%]...f%%%%%%%%%-*@@#@@++.",
".@@@#@@+*&%%%%%;o$.{%%ur%%%%%%.7%%c.{%{.>%r8%>.6%%g.5%%%%ur%%%%c.9C,%%%%%%%%%9.s^05;4w...1%%..(%%x..%%w..<%,...^551j...}%%%%f...e%%%%%%%%%%%5...!e%%%%%%%%%%%%%%%%%%%%%^...%%%<o/..2%%er..s4;0m../]%%%%%5...!e%%%%%%%%-*@#@@@++.",
".@@@@@@+*&%%%%%%%9.f%%p/%%%%%%.7%%{.o%o.>%r8%>.6%%g.5%%%%p/%%%%5Ch.>%%%%%%%%%9..........x;%%..(%%x..%%w..<%f......./...}%%%%f...e%%%%%%%%%%%%t.......<%%%%%%%%%%%%%%%%%^...........~%%%}.........n%%%%%%%t.......<%%%%-*@@#@@++.",
".@@#@@@+*&%%%3b3;}.a%%:.a%%%%%.7%%5Dy<i.>%r8%>.6%%n.0%%%%:.a%%%%g..e%%%%%%%%%9.........A0%%%..(%%x..%%w..<%;i......f...}%%%%f...e%%%%%%%%%%%%o.......<%%%%%%%%%%%%%%%%%^.........._<%%%%l.......g;%%%%%%%o.......<%%%%-*@#@@@++.",
".+@@@@@@**&%%%>[Dm>%%%ei*.o].....w%{sA8.o%r8%>.6%%3_C.6%%ei*.o%%{.!%%%%%%%%%%%4}yt2|h,^5%%%%..(%%x..%%w..<%%;^kD2,6;...}%%%%f...e%%%%%%%%%%%%%18)|...<%%%%%%%%%%%%%%%%%^...../2t7c%%%%%%%6pj*j81%%%%%%%%%%18)|...<%%%-$+@@#@@++.",
"..@@@#@@+*&%%%%%%%%%%%%%%%%%%%%%%%%%%%9.1%%%%%%%%%%%%%%%%%%%%%%%1.^%%%%%%%%%%%%%%%%%%%%%%%%%%%%%%%%%%%%%%%%%%%%%%%%%%%%%%%%%%%%%%%%%%%%%%%%%%%%%%%%%%%%%%%%%%%%%%%%%%%%%%%%%%%%%%%%%%%%%%%%%%%%%%%%%%%%%%%%%%%%%%%%%%-$@@#@@++..",
"..@@@@@@@*&%%%%%%%%%%%%%%%%%%%%%%%%d35u|e%%%%%%%%%%%%%%%%%%%%%%;8r]%%%%%%%%%%%%%%%%%%%%%%%%%%%%%%%%%%%%%%%%%%%%%%%%%%%%%%%%%%%%%%%%%%%%%%%%%%%%%%%%%%%%%%%%%%%%%%%%%%%%%%%%%%%%%%%%%%%%%%%%%%%%%%%%%%%%%%%%%%%%%%%%%%-$@#@@@++..",
"..@@@@@@@+*&%%%%%%%%%%%%%%%%%%%%%%%0iDw1%%%%%%%%%%%%%%%%%%%%%%a.(>%%%%%%%%%%%%%%%%%%%%%%%%%%%%%%%%%%%%%%%%%%%%%%%%%%%%%%%%%%%%%%%%%%%%%%%%%%%%%%%%%%%%%%%%%%%%%%%%%%%%%%%%%%%%%%%%%%%%%%%%%%%%%%%%%%%%%%%%%%%%%%%%%%-$+@@#@@++..",
"..+@#@@@@@*&%%%%%%%%%%%%%%%%%%%%%%%%%%%%%%%%%%%%%%%%%%%%%%%%%%%%%%%%%%%%%%%%%%%%%%%%%%%%%%%%%%%%%%%%%%%%%%%%%%%%%%%%%%%%%%%%%%%%%%%%%%%%%%%%%%%%%%%%%%%%%%%%%%%%%%%%%%%%%%%%%%%%%%%%%%%%%%%%%%%%%%%%%%%%%%%%%%%%%%%%-$@@#@@@++..",
"...@@@@@@@+*----%%%%%%%%%%%%%%%%%%%%%%%%%%%%%%%%%%%%%%%%%%%%%%%%%%%%%%%%%%%%%%%%%%%%%%%%%%%%%%%%%%%%%%%%%%%%%%%%%%%%%%%%%%%%%%%%%%%%%%%%%%%%%%%%%%%%%%%%%%%%%%%%%%%%%%%%%%%%%%%%%%%%%%%%%%%%%%%%%%%%%%%%%%%%%%%-----++@@##@++...",
"...+@@@@@@@*****--%%%%%%%%%%%%%%%%%%%%%%%%%%%%%%%%%%%%%%%%%%%%%%%%%%%%%%%%%%%%%%%%%%%%%%%%%%%%%%%%%%%%%%%%%%%%%%%%%%%%%%%%%%%%%%%%%%%%%%%%%%%%%%%%%%%%%%%%%%%%%%%%%%%%%%%%%%%%%%%%%%%%%%%%%%%%%%%%%%%%%%%%%%%--******@@##@@+....",
"....@@@@@@@#@#@@**-%%%%%%%%%%%%%%%%%%%%%%%%%%%%%%%%%%%%%%%%%%%%%%%%%%%%%%%%%%%%%%%%%%%%%%%%%%%%%%%%%%%%%%%%%%%%%%%%%%%%%%%%%%%%%%%%%%%%%%%%%%%%%%%%%%%%%%%%%%%%%%%%%%%%%%%%%%%%%%%%%%%%%%%%%%%%%%%%%%%%%%%%%-**@#@#@@@@##@++....",
"....+@@@@##++++@@+*-%%%%%%%%%%%%%%%%%%%%%%%%%%%%%%%%%%%%%%%%%%%%%%%%%%%%%%%%%%%%%%%%%%%%%%%%%%%%%%%%%%%%%%%%%%%%%%%%%%%%%%%%%%%%%%%%%%%%%%%%%%%%%%%%%%%%%%%%%%%%%%%%%%%%%%%%%%%%%%%%%%%%%%%%%%%%%%%%%%%%%%%-*@##++++@@+@@@+.....",
".....@@@#+$....$@@+*%%%%%%%%%%%%%%%%%%%%%%%%%%%%%%%%%%%%%%%%%%%%%%%%%%%%%%%%%%%%%%%%%%%%%%%%%%%%%%%%%%%%%%%%%%%%%%%%%%%%%%%%%%%%%%%%%%%%%%%%%%%%%%%%%%%%%%%%%%%%%%%%%%%%%%%%%%%%%%%%%%%%%%%%%%%%%%%%%%%%%%-*@#+$....$@@$@++.....",
".....+@#+$.%%%&.+@@*&%%%%%%%%%%%%%%%%%%%%%%%%%%%%%%%%%%%%%%%%%%%%%%%%%%%%%%%%%%%%%%%%%%%%%%%%%%%%%%%%%%%%%%%%%%%%%%%%%%%%%%%%%%%%%%%%%%%%%%%%%%%%%%%%%%%%%%%%%%%%%%%%%%%%%%%%%%%%%%%%%%%%%%%%%%%%%%%%%%%%%-*#+$.%%%&.+@@@+......",
"......@#$.=&&&$&$+@**&%%%%%%%%%%%%%%%%%%%%%%%%%%%%%%%%%%%%%%%%%%%%%%%%%%%%%%%%%%%%%%%%%%%%%%%%%%%%%%%%%%%%%%%%%%%%%%%%%%%%%%%%%%%%%%%%%%%%%%%%%%%%%%%%%%%%%%%%%%%%%%%%%%%%%%%%%%%%%%%%%%%%%%%%%%%%%%%%%%%-*@#$.=&&&$&$+@$@......",
"......#+.%&&&.&%&$@+*&%%%%%%%%%%%%%%%%%%%%%%%%%%%%%%%%%%%%%%%%%%%%%%%%%%%%%%%%%%%%%%%%%%%%%%%%%%%%%%%%%%%%%%%%%%%%%%%%%%%%%%%%%%%%%%%%%%%%%%%%%%%%%%%%%%%%%%%%%%%%%%%%%%%%%%%%%%%%%%%%%%%%%%%%%%%%%%%%%%%-*#+.%&&&.&%&$@+.......",
"......@+.%&&.&=&$$#+*&%%%%%%%%%%%%%%%%%%%%%%%%%%%%%%%%%%%%%%%%%%%%%%%%%%%%%%%%%%%%%%%%%%%%%%%%%%%%%%%%%%%%%%%%%%%%%%%%%%%%%%%%%%%%%%%%%%%%%%%%%%%%%%%%%%%%%%%%%%%%%%%%%%%%%%%%%%%%%%%%%%%%%%%%%%%%%%%%%%%-*@+.%&&.&=&$$#+.......",
"......#+.%&.&=&&.$@+*&%%%%%%%%%%%%%%%%%%%%%%%%%%%%%%%%%%%%%%%%%%%%%%%%%%%%%%%%%%%%%%%%%%%%%%%%%%%%%%%%%%%%%%%%%%%%%%%%%%%%%%%%%%%%%%%%%%%%%%%%%%%%%%%%%%%%%%%%%%%%%%%%%%%%%%%%%%%%%%%%%%%%%%%%%%%%%%%%%%%-*#+.%&.&=&&.$@+.......",
"......@+.&$&=&&&.$#+**--%%%%%%%%%%%%%%%%%%%%%%%%%%%%%%%%%%%%%%%%%%%%%%%%%%%%%%%%%%%%%%%%%%%%%%%%%%%%%%%%%%%%%%%%%%%%%%%%%%%%%%%%%%%%%%%%%%%%%%%%%%%%%%%%%%%%%%%%%%%%%%%%%%%%%%%%%%%%%%%%%%%%%%%%%%%%%%%%-**@+.&$&=&&&.$#+.......",
"......@@$.&%&&&.$+@**+**---%%%%%%%%%%%%%%%%%%%%%%%%%%%%%%%%%%%%%%%%%%%%%%%%%%%%%%%%%%%%%%%%%%%%%%%%%%%%%%%%%%%%%%%%%%%%%%%%%%%%%%%%%%%%%%%%%%%%%%%%%%%%%%%%%%%%%%%%%%%%%%%%%%%%%%%%%%%%%%%%%%%%%%%%%%---*+*@@$.&%&&&.$+@........",
".......@@+$&$..$+#@+@@@+***--------------------------------------------------------------------------------------------------------------------------------------------------------------------------***+@@@@@+$&$..$+#+........",
".......+@@+$$$$+#@@@@@@@@@+**************************************************************************************************************************************************************************+@@@@@@+@@+$$$$+#+.........",
".........@@@#@#@@@+@@@@#@@@@@@@@@@@@@@@@@@@@@@@@@@@@@@@@@@@@@@@@@@@@@@@@@@@@@@@@@@@@@@@@@@@@@@@@@@@@@@@@@@@@@@@@@@@@@@@@@@@@@@@@@@@@@@@@@@@@@@@@@@@@@@@@@@@@@@@@@@@@@@@@@@@@@@@@@@@@@@@@@@@@@@@@@@@@@@@#@###@+@@@#@#@+..........",
"...........++++.+@@@@@@@@@@#@#@#@#@#@#@#@#@#@#@#@#@#@#@#@#@#@#@#@#@#@#@#@#@#@#@#@#@#@#@#@#@#@#@#@#@#@#@#@#@#@#@#@#@#@#@#@#@#@#@#@#@#@#@#@#@#@#@#@#@#@#@#@#@#@#@#@#@#@#@#@#@#@#@#@#@#@#@#@#@#@#@##@#@#@#@###@@@@.++++............",
"................++@@@@@@@#@@@@#@#@#@#@#@#@#@#@#@#@#@#@#@#@#@#@#@#@#@#@#@#@#@#@#@#@#@#@#@#@#@#@#@#@#@#@#@#@#@#@#@#@#@#@#@#@#@#@#@#@#@#@#@#@#@#@#@#@#@#@#@#@#@#@#@#@#@#@#@#@#@#@#@#@#@#@#@#@#@#@#@@#@#@#@@@@@@+.+.................",
"..................++@@@@@@@@@@@@@@@@@@@@@@@@@@@@@@@@@@@@@@@@@@@@@@@@@@@@@@@@@@@@@@@@@@@@@@@@@@@@@@@@@@@@@@@@@@@@@@@@@@@@@@@@@@@@@@@@@@@@@@@@@@@@@@@@@@@@@@@@@@@@@@@@@@@@@@@@@@@@@@@@@@@@@@@@@@@@@@@@@@@@@@+++...................",
"....................++@@@@@@@@@@@@@@@@@@@@@@@@@@@@@@@@@@@@@@@@@@@@@@@@@@@@@@@@@@@@@@@@@@@@@@@@@@@@@@@@@@@@@@@@@@@@@@@@@@@@@@@@@@@@@@@@@@@@@@@@@@@@@@@@@@@@@@@@@@@@@@@@@@@@@@@@@@@@@@@@@@@@@@@@@@@@@@@@+++++.....................",
"......................+++++++++++++++++++++++++++++++++++++++++++++++++++++++++++++++++++++++++++++++++++++++++++++++++++++++++++++++++++++++++++++++++++++++++++++++++++++++++++++++++++++++++++++++++++.......................",
"..........................+++++++++++++++++++++++++++++++++++++++++++++++++++++++++++++++++++++++++++++++++++++++++++++++++++++++++++++++++++++++++++++++++++++++++++++++++++++++++++++++++++++++++++...........................",
"................................................................................................................................................................................................................................"};
