/* XPM */
static char const * const vsplayer_xpm[] = {
"224 64 57 1",
" 	c None",
".	c #000000",
"+	c #394F58",
"@	c #0083B3",
"#	c #A1B2F3",
"$	c #0A0A0A",
"%	c #3E3E3E",
"&	c #232323",
"*	c #030303",
"=	c #656565",
"-	c #363636",
";	c #0E0E0E",
">	c #3B3B3B",
",	c #383838",
"'	c #161616",
")	c #393939",
"!	c #101010",
"~	c #181818",
"{	c #1E1E1E",
"]	c #262626",
"^	c #333333",
"/	c #3C3C3C",
"(	c #353535",
"_	c #202020",
":	c #1C1C1C",
"<	c #121212",
"[	c #2E2E2E",
"}	c #252525",
"|	c #303030",
"1	c #3D3D3D",
"2	c #2F2F2F",
"3	c #282828",
"4	c #272727",
"5	c #2D2D2D",
"6	c #1A1A1A",
"7	c #2C2C2C",
"8	c #151515",
"9	c #212121",
"0	c #0F0F0F",
"a	c #3A3A3A",
"b	c #323232",
"c	c #343434",
"d	c #1D1D1D",
"e	c #131313",
"f	c #171717",
"g	c #242424",
"h	c #1F1F1F",
"i	c #1B1B1B",
"j	c #2B2B2B",
"k	c #191919",
"l	c #313131",
"m	c #141414",
"n	c #2A2A2A",
"o	c #111111",
"p	c #373737",
"q	c #222222",
"r	c #292929",
"................................................................................................................................................................................................................................",
"..........................+@@@@@@@@@@@@@@@@@@@@@@@@@@@@@@@@@@@@@@@@@@@@@@@@@@@@@@@@@@@@@@@@@@@@@@@@@@@@@@@@@@@@@@@@@@@@@@@@@@@@@@@@@@@@@@@@@@@@@@@@@@@@@@@@@@@@@@@@@@@@@@@@@@@@@@@@@@@@@@@@@@@@@@@@@@+..........................",
"......................+@@@@@#@#@@#@#@#@#@#@#@#@#@#@#@#@#@#@#@#@#@#@#@#@#@#@#@#@#@#@#@#@#@#@#@#@#@#@#@#@#@#@#@#@#@#@#@#@#@#@#@#@#@#@#@#@#@#@#@#@#@#@#@#@#@#@#@#@#@#@#@#@#@#@#@#@#@#@#@#@#@#@#@#@#@@@@@@@@@+......................",
"....................+@@@@@@#@#@##@#@#@#@#@#@#@#@#@#@#@#@#@#@#@#@#@#@#@#@#@#@#@#@#@#@#@#@#@#@#@#@#@#@#@#@#@#@#@#@#@#@#@#@#@#@#@#@#@#@#@#@#@#@#@#@#@#@#@#@#@#@#@#@#@#@#@#@#@#@#@#@#@#@#@#@#@#@#@#@#@@@#@@@@@@+....................",
"................+.+@@@@#@#@@@@@@@@@@@@@@@@@@@@@@@@@@@@@@@@@@@@@@@@@@@@@@@@@@@@@@@@@@@@@@@@@@@@@@@@@@@@@@@@@@@@@@@@@@@@@@@@@@@@@@@@@@@@@@@@@@@@@@@@@@@@@@@@@@@@@@@@@@@@@@@@@@@@@@@@@@@@@@@@@@@@@@@@#@@@@@@@@@@@..................",
"..........@#@#@@@@@@###@#@#@@@@@@@@@@@@@@@@@@@@@@@@@@@@@@@@@@@@@@@@@@@@@@@@@@@@@@@@@@@@@@@@@@@@@@@@@@@@@@@@@@@@@@@@@@@@@@@@@@@@@@@@@@@@@@@@@@@@@@@@@@@@@@@@@@@@@@@@@@@@@@@@@@@@@@@@@@@@@@@@@@@@@@@@@@@#@@@@@@@@@#@#@@...........",
"........@##++++@@+@###@@@@@@@@@@@@@@@@@@@@@@@@@@@@@@@@@@@@@@@@@@@@@@@@@@@@@@@@@@@@@@@@@@@@@@@@@@@@@@@@@@@@@@@@@@@@@@@@@@@@@@@@@@@@@@@@@@@@@@@@@@@@@@@@@@@@@@@@@@@@@@@@@@@@@@@@@@@@@@@@@@@@@@@@@@@@@@@@@@@@@@@@##++++@@+.........",
".......@#+$....$@@$@@@@@@++++++++++++++++++++++++++++++++++++++++++++++++++++++++++++++++++++++++++++++++++++++++++++++++++++++++++++++++++++++++++++++++++++++++++++++++++++++++++++++++++++++++++++@@@@@@@@#+$....$@@.........",
".......#+$.%%%&.+@@@@@++++****************************************************************************************************************************************************************************+@@@@@#+$.%%%&.+@@........",
"......@#$.=&&&$&$+@$@++****&&&&&&&&&&&&&&&&&&&&&&&&&&&&&&&&&&&&&&&&&&&&&&&&&&&&&&&&&&&&&&&&&&&&&&&&&&&&&&&&&&&&&&&&&&&&&&&&&&&&&&&&&&&&&&&&&&&&&&&&&&&&&&&&&&&&&&&&&&&&&&&&&&&&&&&&&&&&&&&&&&&&&&&&&&***++@@#$.=&&&$&$+@........",
"......#+.%&&&.&%&$@+****&&&&%%%%%%%%%%%%%%%%%%%%%%%%%%%%%%%%%%%%%%%%%%%%%%%%%%%%%%%%%%%%%%%%%%%%%%%%%%%%%%%%%%%%%%%%%%%%%%%%%%%%%%%%%%%%%%%%%%%%%%%%%%%%%%%%%%%%%%%%%%%%%%%%%%%%%%%%%%%%%%%%%%%%%%%%%&&&..$#+.%&&&.&%&$@+.......",
"......@+.%&&.&=&$$#+*&&&&%%%%%%%%%%%%%%%%%%%%%%%%%%%%%%%%%%%%%%%%%%%%%%%%%%%%%%%%%%%%%%%%%%%%%%%%%%%%%%%%%%%%%%%%%%%%%%%%%%%%%%%%%%%%%%%%%%%%%%%%%%%%%%%%%%%%%%%%%%%%%%%%%%%%%%%%%%%%%%%%%%%%%%%%%%%%%%%%%$@+.%&&.&=&$$#+.......",
"......#+.%&.&=&&.$@+*&&%%%%%%%%%%%%%%%%%%%%%%%%%%%%%%%%%%%%%%%%%%%%%%%%%%%%%%%%%%%%%%%%%%%%%%%%%%%%%%%%%%%%%%%%%%%%%%%%%%%%%%%%%%%%%%%%%%%%%%%%%%%%%%%%%%%%%%%%%%%%%%%%%%%%%%%%%%%%%%%%%%%%%%%%%%%%%%%%%%%$#+.%&.&=&&.$@+.......",
"......@+.&$&=&&&.$#+*&%%%%%%%%%%%%%%%%%%%%%%%%%%%%%%%%%%%%%%%%%%%%%%%%%%%%%%%%%%%%%%%%%%%%%%%%%%%%%%%%%%%%%%%%%%%%%%%%%%%%%%%%%%%%%%%%%%%%%%%%%%%%%%%%%%%%%%%%%%%%%%%%%%%%%%%%%%%%%%%%%%%%%%%%%%%%%%%%%%%%$@+.&$&=&&&.$#+.......",
"......@@$.&%&&&.$+@**&%%%%%%%%%%%%%%%%%%%%%%%%%%%%%%%%%%%%%%%%%%%%%%%%%%%%%%%%%%%%%%%%%%%%%%%%%%%%%%%%%%%%%%%%%%%%%%%%%%%%%%%%%%%%%%%%%%%%%%%%%%%%%%%%%%%%%%%%%%%%%%%%%%%%%%%%%%%%%%%%%%%%%%%%%%%%%%%%%%%%$@@$.&%&&&.$+@........",
".....+@@@+$&$..$+#+*&%%%%%%%%%%%%%%%%%%%%%%%%%%%%%%%%%%%%%%%%%%%%%%%%%%%%%%%%%%%%%%%%%%%%%%%%%%%%%%%%%%%%%%%%%%%%%%%%%%%%%%%%%%%%%%%%%%%%%%%%%%%%%%%%%%%%%%%%%%%%%%%%%%%%%%%%%%%%%%%%%%%%%%%%%%%%%%%%%%%%%%$@@+$&$..$+#@++......",
".....+@+@@+$$$$+#+**&%%%%%%%%%%%%%%%%%%%%%%%%%%%%%%%%%%%%%%%%%%%%%%%%%%%%%%%%%%%%%%%%%%%%%%%%%%%%%%%%%%%%%%%%%%%%%%%%%%%%%%%%%%%%%%%%%%%%%%%%%%%%%%%%%%%%%%%%%%%%%%%%%%%%%%%%%%%%%%%%%%%%%%%%%%%%%%%%%%%%%%$+@@+$$$$+#@@@@+.....",
".....@@@+@@@#@#@+**&%%%%%%%%%%%%%%%%%%%%%%%%%%%%%%%%%%%%%%%%%%%%%%%%%%%%%%%%%%%%%%%%%%%%%%%%%%%%%%%%%%%%%%%%%%%%%%%%%%%%%%%%%%%%%%%%%%%%%%%%%%%%%%%%%%%%%%%%%%%%%%%%%%%%%%%%%%%%%%%%%%%%%%%%%%%%%%%%%%%%%%%%$+@@@#@#@@@+@@@.....",
"....+@##@@*++++***&%%%%%%%%%%%%%%%%%%%%%%%%%%%%%%%%%%%%%%%%%%%%%%%%%%%%%%%%%%%%%%%%%%%%%%%%%%%%%%%%%%%%%%%%%%%%%%%%%%%%%%%%%%%%%%%%%%%%%%%%%%%%%%%%%%%%%%%%%%%%%%%%%%%%%%%%%%%%%%%%%%%%%%%%%%%%%%%%%%%%%%%%%%..$++++$+@@@@@+....",
"....@@##@@******&&%%%%%%%%%%%%%%%%%%%%%%%%%%%%%%%%%%%%%%%%%%%%%%%%%%%%%%%%%%%%%%%%%%%%%%%%%%%%%%%%%%%%%%%%%%%%%%%%%%%%%%%%%%%%%%%%%%%%%%%%%%%%%%%%%%%%%%%%%%%%%%%%%%%%%%%%%%%%%%%%%%%%%%%%%%%%%%%%%%%%%%%%%%%&&......@@@@@@@....",
"...+@##@@++*&&&&%%%%%%%%%%%%%%%%%%%%%%%%%%%%%%%-;;;;;;;;;>%%%,;;;;;;;'%%%%%%%%%%%%%%%%%%%%%%);;;;;;;;;;!~{]^/%%(&_:~<>%%%%%%%%%%%%%%%%%%%%%%%%%%%%%%%%%%%%%%%%%%%%%%%%%%%%%%%%%%%%%%%%%%%%%%%%%%%%%%%%%%%%%%%%%&&&&&+@@@@@@@+...",
"...@@##@@+**&&%%%%%%%%%%%%%%%%%%%%%%%%%%%%%%%%%>[&;;;;}[|1%%%/23<;;!4|%%%%%%%%%%%%%%%%%%%%%%/|5};;;67||236;;8^%-390;;>%%%%%%%%%%%%%%%%%%%%%%%%%%%%%%%%%%%%%%%%%%%%%%%%%%%%%%%%%%%%%%%%%%%%%%%%%%%%%%%%%%%%%%%%%%%%%%$+@@@@@@@...",
"..+@@#@@++*&&%%%%%%%%%%%%%%%%%%%%%%%%%%%%%%%%%%%%%&;;;a%%%%%%%%%b;;c%%%%%%%%%%%%%%%%%%%%%%%%%%%1;;;2%%%%%17;;;c%%%d;;>%%%%%%%%%%%%%%%%%%%%%%%%%%%%%%%%%%%%%%%%%%%%%%%%%%%%%%%%%%%%%%%%%%%%%%%%%%%%%%%%%%%%%%%%%%%%%%%$@@@@@@@+..",
"..@@#@@@+**&%%%%%%%%%%%%%%%%%%%%%%%%%%%%%%%%%%%%%%);;;2%%%%%%%%%c;&%%%%%%%%%%%%%%%%%%%%%%%%%%%%%e;;|%%%%%%%{;;f1%%g;;>%%%%%%%%%%%%%%%%%%%%%%%%%%%%%%%%%%%%%%%%%%%%%%%%%%%%%%%%%%%%%%%%%%%%%%%%%%%%%%%%%%%%%%%%%%%%%%%$+@#@@@@@..",
"..@@@#@@+*&&%%%%%%%%%%%%%%%%%%%%%%%%%%%%%%%%%%%%%%%h;;i%%%%%%%%%j;(%%%%%%%%%%%%%%%%%%%%%%%%%%%%%';;|%%%%%%%2;;;-%%g;;>%%%%%%%%%%%%%%%%%%%%%%%%%%%%%%%%%%%%%%%%%%%%%%%%%%%%%%%%%%%%%%%%%%%%%%%%%%%%%%%%%%%%%%%%%%%%%%%%$@@@@@@@..",
"..@@#@@++*&%%%%%%%%%%%%%%%%%%%%%%%%%%%%%%%%%%%%%%%%b;;;-%%%%%%%%kk%%%%%%%%%%%%%%%%%%%%%%%%%%%%%%';;|%%%%%%%c;;;l%%g;;>%%%%%%%%%%%%%%%%%%%%%%%%%%%%%%%%%%%%%%%%%%%%%%%%%%%%%%%%%%%%%%%%%%%%%%%%%%%%%%%%%%%%%%%%%%%%%%%%$@@@#@@@..",
".+@@@#@+**&%%%%%%%%%%%%%%%%%%%%%%%%%%%%%%%%%%%%%%%%1m;;4%%%%%%%-;5%%%%%%%%%%%%%%%%%%%%%%%%%%%%%%';;|%%%%%%%c;;;l%%g;;>%%%%%%%%%%%%%%%%%%%%%%%%%%%%%%%%%%%%%%%%%%%%%%%%%%%%%%%%%%%%%%%%%%%%%%%%%%%%%%%%%%%%%%%%%%%%%%%%$+@@@@@@+.",
".@@@#@@+*&&%%%%%%%%%%%%%%%%%%%%%%%%%%%%%%%%%%%%%%%%%n;;o/%%%%%%40>%%%%%%%%%%%%%%%%%%%%%%%%%%%%%%';;|%%%%%%%2;;;p%%g;;>%%%%%%%%%%%%%%%%%%%%%%%%%%%%%%%%%%%%%%%%%%%%%%%%%%%%%%%%%%%%%%%%%%%%%%%%%%%%%%%%%%%%%%%%%%%%%%%%%*@#@@@@+.",
".@@#@@@+*&%%%%%%%%%%%%%%%%%%%%%%%%%%%%%%%%%%%%%%%%%%);;;|%%%%%/e&%%%%%%%%,g~m{7>9}%%%%%%%%%%%%%%';;|%%%%%%%h;;i%%%g;;>%%%%%%-4dmmd]p%%%%3;;;;;;7%/;;;;;'%%%anio'&c%%%%/-cl2[%%^{e_)%%%%%%%%%%%%%%%%%%%%%%%%%%%%%%%%%%%%*@@@@@@+.",
".@@@#@@+*&%%%%%%%%%%%%%%%%%%%%%%%%%%%%%%%%%%%%%%%%%%%_;;:%%%%%l;c%%%%%%%c0_|bj80;}%%%%%%%%%%%%%%';;|%%%%%17;;!-%%%g;;>%%%%1};&[^2h;;j%%%/cm;;qa1%%>2;;ja%%bo!r^[~;3%%%b;;;;m%7o4;;:%%%%%%%%%%%%%%%%%%%%%%%%%%%%%%%%%%%%*@@#@@@+.",
".@@#@@@+*&%%%%%%%%%%%%%%%%%%%%%%%%%%%%%%%%%%%%%%%%%%%b;;;p%%%%h'1%%%%%%%fq%%%%>_;}%%%%%%%%%%%%%%';;]lll[r6;;'c%%%%g;;>%%%%7;m1%%%%g;;p%%%%l;;&%%%%%/;h%%%c;;b%%%>m;[%%%1,;;m-!pb;;0%%%%%%%%%%%%%%%%%%%%%%%%%%%%%%%%%%%%*@#@@@@+.",
".@@@#@@+*&%%%%%%%%%%%%%%%%%%%%%%%%%%%%%%%%%%%%%%%%%%%18;;3%%%);j%%%%%%%);n%%%%%>e}%%%%%%%%%%%%%%';;;;;;e'6g|/%%%%%g;;>%%%%{;;c%%%%b;;l%%%%%k;;a%%%%^;p%%18;{%%%%%7;m/%%%%k;mh5%ao;g%%%%%%%%%%%%%%%%%%%%%%%%%%%%%%%%%%%%*@@#@@@+.",
".@@#@@@+*&%%%%%%%%%%%%%%%%%%%%%%%%%%%%%%%%%%%%%%%%%%%%n;;e/%%7;)%%%%%%%,;m^1%%%%r}%%%%%%%%%%%%%%';;|%%%%%%%%%%%%%%g;;>%%%%r;0,%%%%-;;7%%%%%2;;n%%%%9{%%%|;;7%%%%%^;;5%%%%6;;e1%%/-1%%%%%%%%%%%%%%%%%%%%%%%%%%%%%%%%%%%%*@#@@@++.",
".@@@@@@+*&%%%%%%%%%%%%%%%%%%%%%%%%%%%%%%%%%%%%%%%%%%%%);;;|%%f_%%%%%%%%1m;;o&5(1%1%%%%%%%%%%%%%%';;|%%%%%%%%%%%%%%g;;>%%%%%p>%%%)^4;;j%%%%%/m;e1%%);l%%%&;;^%%%%15;;]%%%%6;;]%%%%%%%%%%%%%%%%%%%%%%%%%%%%%%%%%%%%%%%%%%*@@#@@++.",
".@@@#@@+*&%%%%%%%%%%%%%%%%%%%%%%%%%%%%%%%%%%%%%%%%%%%%%_;;d%(;b%%%%%%%%%^!;;;;;!}>%%%%%%%%%%%%%%';;|%%%%%%%%%%%%%%g;;>%%%%%%/lg:3|2;;j%%%%%%j;;|%%je1%%%k;;;;;;;;;;;d%%%%6;;^%%%%%%%%%%%%%%%%%%%%%%%%%%%%%%%%%%%%%%%%%%*@#@@@++.",
".@@@@@@+*&%%%%%%%%%%%%%%%%%%%%%%%%%%%%%%%%%%%%%%%%%%%%%b;;;,}e1%%%%%%%%%%)jd;;;;;i/%%%%%%%%%%%%%';;|%%%%%%%%%%%%%%g;;>%%%%1jeip%%%-;;j%%%%%%>0;6%18r%%%%8;;[((((((((-%%%%6;;,%%%%%%%%%%%%%%%%%%%%%%%%%%%%%%%%%%%%%%%%%%*@@#@@++.",
".@@#@@@+*&%%%%%%%%%%%%%%%%%%%%%%%%%%%%%%%%%%%%%%%%%%%%%18;;}or%%%%%%%%%([%%%/c4m;;l%%%%%%%%%%%%%';;|%%%%%%%%%%%%%%g;;>%%%1{;d/%%%%c;;j%%%%%%%];;(b;)%%%%6;;c%%%%%%%%%%%%%6;;>%%%%%%%%%%%%%%%%%%%%%%%%%%%%%%%%%%%%%%%%%%*@#@@@++.",
".+@@@@@@**&%%%%%%%%%%%%%%%%%%%%%%%%%%%%%%%%%%%%%%%%%%%%%n;;;;,%%%%%%%%%[;a%%%%%1];n%%%%%%%%%%%%%';;|%%%%%%%%%%%%%%g;;>%%%2;;|%%%%%l;;j%%%%%%%,;;&__%%%%%4;;7%%%%%%%)p%%%%6;0%%%%%%%%%%%%%%%%%%%%%%%%%%%%%%%%%%%%%%%%%%$+@@#@@++.",
"..@@@#@@+*&%%%%%%%%%%%%%%%%%%%%%%%%%%%%%%%%%%%%%%%%%%%%%);;;d%%%%%%%%%%[;]%%%%%%(;2%%%%%%%%%%%%%e;;2%%%%%%%%%%%%%%g;;>%%%4;;|%%%%%9;;3%%%%%%%%_;;;b%%%%%-;;f/%%%%%1d3%%%%6;m%%%%%%%%%%%%%%%%%%%%%%%%%%%%%%%%%%%%%%%%%%$@@#@@++..",
"..@@@@@@@*&%%%%%%%%%%%%%%%%%%%%%%%%%%%%%%%%%%%%%%%%%%%%%%9;;|%%%%%%%%%%[;;7%%%%%3!)%%%%%%%%%%%%1;;;j%%%%%%%%%%%%%%&;;>%%%5;;d1%%/&8;;h%%%%%%%%c;;81%%%%%%4;;q/%%%>9f/%%%%6;m%%%%%%%%%%%%%%%%%%%%%%%%%%%%%%%%%%%%%%%%%%$@#@@@++..",
"..@@@@@@@+*&%%%%%%%%%%%%%%%%%%%%%%%%%%%%%%%%%%%%%%%%%%%%%^;o/%%%%%%%%%%[;he:[cbg;[%%%%%%%%%%/25g;;;'j[l%%%%%%%%%>pf;;[)1%>~;;~4_!:a{;;:e)%%%%%%6;7%%%%%%%14;;!{49!ka%%%>-!;;^)1%%%%%%%%%%%%%%%%%%%%%%%%%%%%%%%%%%%%%%$+@@#@@++..",
"..+@#@@@@@*&%%%%%%%%%%%%%%%%%%%%%%%%%%%%%%%%%%%%%%%%%%%%%184%%%%%%%%%%%b]1>n{ekgp%%%%%%%%%%%);;;;;;;;;f%%%%%%%%);;;;;;;r%%>rio'9l%%){od^%%%%%%%[0>%%%%%%%%%-4ko'h|1%%%-;;;;;;;9%%%%%%%%%%%%%%%%%%%%%%%%%%%%%%%%%%%%%%$@@#@@@++..",
"...@@@@@@@+*%%%%%%%%%%%%%%%%%%%%%%%%%%%%%%%%%%%%%%%%%%%%%%%%%%%%%%%%%%%%%%%%%%%%%%%%%%%%%%%%%%%%%%%%%%%%%%%%%%%%%%%%%%%%%%%%%%%%%%%%%%%%%%%%%%%h]%%%%%%%%%%%%%%%%%%%%%%%%%%%%%%%%%%%%%%%%%%%%%%%%%%%%%%%%%%%%%%%%%%%++@@##@++...",
"...+@@@@@@@*****%%%%%%%%%%%%%%%%%%%%%%%%%%%%%%%%%%%%%%%%%%%%%%%%%%%%%%%%%%%%%%%%%%%%%%%%%%%%%%%%%%%%%%%%%%%%%%%%%%%%%%%%%%%%%%%%%%%%%%%%%/%%%%l;p%%%%%%%%%%%%%%%%%%%%%%%%%%%%%%%%%%%%%%%%%%%%%%%%%%%%%%%%%%%%%%******@@##@@+....",
"....@@@@@@@#@#@@**%%%%%%%%%%%%%%%%%%%%%%%%%%%%%%%%%%%%%%%%%%%%%%%%%%%%%%%%%%%%%%%%%%%%%%%%%%%%%%%%%%%%%%%%%%%%%%%%%%%%%%%%%%%%%%%%%%%%%%|;'>%>83%%%%%%%%%%%%%%%%%%%%%%%%%%%%%%%%%%%%%%%%%%%%%%%%%%%%%%%%%%%%%**@#@#@@@@##@++....",
"....+@@@@##++++@@+*%%%%%%%%%%%%%%%%%%%%%%%%%%%%%%%%%%%%%%%%%%%%%%%%%%%%%%%%%%%%%%%%%%%%%%%%%%%%%%%%%%%%%%%%%%%%%%%%%%%%%%%%%%%%%%%%%%%%%6;;^1g'/%%%%%%%%%%%%%%%%%%%%%%%%%%%%%%%%%%%%%%%%%%%%%%%%%%%%%%%%%%%%*@##++++@@+@@@+.....",
".....@@@#+$....$@@+*%%%%%%%%%%%%%%%%%%%%%%%%%%%%%%%%%%%%%%%%%%%%%%%%%%%%%%%%%%%%%%%%%%%%%%%%%%%%%%%%%%%%%%%%%%%%%%%%%%%%%%%%%%%%%%%%%%%%&;;}{m,%%%%%%%%%%%%%%%%%%%%%%%%%%%%%%%%%%%%%%%%%%%%%%%%%%%%%%%%%%%%*@#+$....$@@$@++.....",
".....+@#+$.%%%&.+@@*&%%%%%%%%%%%%%%%%%%%%%%%%%%%%%%%%%%%%%%%%%%%%%%%%%%%%%%%%%%%%%%%%%%%%%%%%%%%%%%%%%%%%%%%%%%%%%%%%%%%%%%%%%%%%%%%%%%%>ge'4a%%%%%%%%%%%%%%%%%%%%%%%%%%%%%%%%%%%%%%%%%%%%%%%%%%%%%%%%%%%%%*#+$.%%%&.+@@@+......",
"......@#$.=&&&$&$+@**&%%%%%%%%%%%%%%%%%%%%%%%%%%%%%%%%%%%%%%%%%%%%%%%%%%%%%%%%%%%%%%%%%%%%%%%%%%%%%%%%%%%%%%%%%%%%%%%%%%%%%%%%%%%%%%%%%%%%%%%%%%%%%%%%%%%%%%%%%%%%%%%%%%%%%%%%%%%%%%%%%%%%%%%%%%%%%%%%%%%%*@#$.=&&&$&$+@$@......",
"......#+.%&&&.&%&$@+*&%%%%%%%%%%%%%%%%%%%%%%%%%%%%%%%%%%%%%%%%%%%%%%%%%%%%%%%%%%%%%%%%%%%%%%%%%%%%%%%%%%%%%%%%%%%%%%%%%%%%%%%%%%%%%%%%%%%%%%%%%%%%%%%%%%%%%%%%%%%%%%%%%%%%%%%%%%%%%%%%%%%%%%%%%%%%%%%%%%%%*#+.%&&&.&%&$@+.......",
"......@+.%&&.&=&$$#+*&%%%%%%%%%%%%%%%%%%%%%%%%%%%%%%%%%%%%%%%%%%%%%%%%%%%%%%%%%%%%%%%%%%%%%%%%%%%%%%%%%%%%%%%%%%%%%%%%%%%%%%%%%%%%%%%%%%%%%%%%%%%%%%%%%%%%%%%%%%%%%%%%%%%%%%%%%%%%%%%%%%%%%%%%%%%%%%%%%%%%*@+.%&&.&=&$$#+.......",
"......#+.%&.&=&&.$@+*&%%%%%%%%%%%%%%%%%%%%%%%%%%%%%%%%%%%%%%%%%%%%%%%%%%%%%%%%%%%%%%%%%%%%%%%%%%%%%%%%%%%%%%%%%%%%%%%%%%%%%%%%%%%%%%%%%%%%%%%%%%%%%%%%%%%%%%%%%%%%%%%%%%%%%%%%%%%%%%%%%%%%%%%%%%%%%%%%%%%%*#+.%&.&=&&.$@+.......",
"......@+.&$&=&&&.$#+**%%%%%%%%%%%%%%%%%%%%%%%%%%%%%%%%%%%%%%%%%%%%%%%%%%%%%%%%%%%%%%%%%%%%%%%%%%%%%%%%%%%%%%%%%%%%%%%%%%%%%%%%%%%%%%%%%%%%%%%%%%%%%%%%%%%%%%%%%%%%%%%%%%%%%%%%%%%%%%%%%%%%%%%%%%%%%%%%%%%**@+.&$&=&&&.$#+.......",
"......@@$.&%&&&.$+@**+**%%%%%%%%%%%%%%%%%%%%%%%%%%%%%%%%%%%%%%%%%%%%%%%%%%%%%%%%%%%%%%%%%%%%%%%%%%%%%%%%%%%%%%%%%%%%%%%%%%%%%%%%%%%%%%%%%%%%%%%%%%%%%%%%%%%%%%%%%%%%%%%%%%%%%%%%%%%%%%%%%%%%%%%%%%%%%%%%*+*@@$.&%&&&.$+@........",
".......@@+$&$..$+#@+@@@+***%%%%%%%%%%%%%%%%%%%%%%%%%%%%%%%%%%%%%%%%%%%%%%%%%%%%%%%%%%%%%%%%%%%%%%%%%%%%%%%%%%%%%%%%%%%%%%%%%%%%%%%%%%%%%%%%%%%%%%%%%%%%%%%%%%%%%%%%%%%%%%%%%%%%%%%%%%%%%%%%%%%%%%%%%%***+@@@@@+$&$..$+#+........",
".......+@@+$$$$+#@@@@@@@@@+**************************************************************************************************************************************************************************+@@@@@@+@@+$$$$+#+.........",
".........@@@#@#@@@+@@@@#@@@@@@@@@@@@@@@@@@@@@@@@@@@@@@@@@@@@@@@@@@@@@@@@@@@@@@@@@@@@@@@@@@@@@@@@@@@@@@@@@@@@@@@@@@@@@@@@@@@@@@@@@@@@@@@@@@@@@@@@@@@@@@@@@@@@@@@@@@@@@@@@@@@@@@@@@@@@@@@@@@@@@@@@@@@@@@@#@###@+@@@#@#@+..........",
"...........++++.+@@@@@@@@@@#@#@#@#@#@#@#@#@#@#@#@#@#@#@#@#@#@#@#@#@#@#@#@#@#@#@#@#@#@#@#@#@#@#@#@#@#@#@#@#@#@#@#@#@#@#@#@#@#@#@#@#@#@#@#@#@#@#@#@#@#@#@#@#@#@#@#@#@#@#@#@#@#@#@#@#@#@#@#@#@#@#@##@#@#@#@###@@@@.++++............",
"................++@@@@@@@#@@@@#@#@#@#@#@#@#@#@#@#@#@#@#@#@#@#@#@#@#@#@#@#@#@#@#@#@#@#@#@#@#@#@#@#@#@#@#@#@#@#@#@#@#@#@#@#@#@#@#@#@#@#@#@#@#@#@#@#@#@#@#@#@#@#@#@#@#@#@#@#@#@#@#@#@#@#@#@#@#@#@#@@#@#@#@@@@@@+.+.................",
"..................++@@@@@@@@@@@@@@@@@@@@@@@@@@@@@@@@@@@@@@@@@@@@@@@@@@@@@@@@@@@@@@@@@@@@@@@@@@@@@@@@@@@@@@@@@@@@@@@@@@@@@@@@@@@@@@@@@@@@@@@@@@@@@@@@@@@@@@@@@@@@@@@@@@@@@@@@@@@@@@@@@@@@@@@@@@@@@@@@@@@@@@+++...................",
"....................++@@@@@@@@@@@@@@@@@@@@@@@@@@@@@@@@@@@@@@@@@@@@@@@@@@@@@@@@@@@@@@@@@@@@@@@@@@@@@@@@@@@@@@@@@@@@@@@@@@@@@@@@@@@@@@@@@@@@@@@@@@@@@@@@@@@@@@@@@@@@@@@@@@@@@@@@@@@@@@@@@@@@@@@@@@@@@@@@+++++.....................",
"......................+++++++++++++++++++++++++++++++++++++++++++++++++++++++++++++++++++++++++++++++++++++++++++++++++++++++++++++++++++++++++++++++++++++++++++++++++++++++++++++++++++++++++++++++++++.......................",
"..........................+++++++++++++++++++++++++++++++++++++++++++++++++++++++++++++++++++++++++++++++++++++++++++++++++++++++++++++++++++++++++++++++++++++++++++++++++++++++++++++++++++++++++++...........................",
"................................................................................................................................................................................................................................"};
