/* XPM */
static char const *const exp4_xpm[] = {
"35 35 4 1",
" 	c #000000",
".	c #D5D5D5",
"+	c #D6D6D6",
"@	c #DDDDDF",
"                                   ",
"               ..                  ",
"                 .                 ",
"                 +                 ",
"                 .                 ",
"                .                  ",
"                 .                 ",
"                .+                 ",
"               +++++               ",
"           ++++++++                ",
"           ++@++++@+++++           ",
"           ++@++++@++++++          ",
"          +++@++++@++++++          ",
"         + +++@+++@++++++++++      ",
"          ++@@@@++@++++++++        ",
"         ++++++++@@++++++++        ",
"         ++@+++++@@++++++++    . . ",
"   .+++++++@++@++@@@@++++++.... .  ",
"  .     +@+++++@++@@@+@@+++        ",
"        +++++++@@@++@++@+++        ",
"         +++++@+++++++++++         ",
"        ++++@++++++@@@++++         ",
"     +++   +++++++@+@+++ +         ",
"           ++++++++++++@  +        ",
"           ++++++++++++            ",
"             +++++@++++            ",
"              +++++                ",
"                  +                ",
"                  +                ",
"                  .                ",
"                 .                 ",
"                 .                 ",
"                  .                ",
"                 .                 ",
"                                   "};
