/* XPM */
static char const *const exp5_xpm[] = {
"35 35 7 1",
" 	c #000000",
".	c #FECB72",
"+	c #FEDF9A",
"@	c #F1E1C1",
"#	c #EEE5D3",
"$	c #F2EBDE",
"%	c #F5F0E5",
"                                   ",
"                                   ",
"                                   ",
"                                   ",
"                                   ",
"                                   ",
"             ..   ..               ",
"           .++...+..               ",
"          ..+++++++++..            ",
"          ++@@@@@@@@+++++          ",
"          ++###$#@@#%@@#+.         ",
"          ++#$$$@@%@#%##+.         ",
"         .+@#$$####$#@##++.        ",
"        ..+@@@$$$$$$#@###+++.      ",
"        .+@@@##$$$$$@$$$##++.      ",
"        ++@####$$@@@$$$@@@+++      ",
"       +++@@@@#@@@@@###@@@+.       ",
"      ..++@@@$$$$$@%@@@@@+..       ",
"       ..++@@#@$$#######@@..       ",
"       ..++###@$#@###@@@@+.+       ",
"     .++++++@@$@@$@$$$@@++++       ",
"      ..+++++####$##@@@@+..        ",
"         ...@#@#$$$$#@@@++         ",
"           .+@@@$##@@@@++.         ",
"           +++@@@@@+++@++          ",
"           ++++++++..+.++          ",
"             ....+++..             ",
"              .++++.               ",
"               +....               ",
"                                   ",
"                                   ",
"                                   ",
"                                   ",
"                                   ",
"                                   "};
