/* XPM */
static char const *const exp6_xpm[] = {
"35 35 10 1",
" 	c #000000",
".	c #FECB72",
"+	c #DFB56D",
"@	c #F1E1C1",
"#	c #D3601D",
"$	c #E89454",
"%	c #E26C28",
"&	c #D3751D",
"*	c #C1731A",
"=	c #CA561C",
"                                   ",
"                                   ",
"                                   ",
"                                   ",
"         . ...                     ",
"        ...++..    ...++           ",
"        ....++..+++..+.+           ",
"       ..++++++..+++++++++         ",
"      ..++++.@+...+++.+@...        ",
"       ++++@..++#$$@$@.+#++        ",
"       ..++@@%&$$@$@%##&@++        ",
"        .++@@$%&$@%%#&&@+++        ",
"       +++++.$#&#$%#&&@+.+.++      ",
"       ++++$+.&#&%##&#......+      ",
"       .+++++%*=&&=*&$@@@++++      ",
"        .+++###= *==#&&$+.++       ",
"     ++..+.+#&&==  =&&$.++++       ",
"    ++...++$$&*&    =%$$+++++      ",
"   +++++++%#&&&&*&==#&&$$...+      ",
"   +.+++.+#####&&&*&##&%$....+     ",
"   ++++....+@#&##&=&%%###@@+@+     ",
"     +++.++@$%%&&&%#%%$@#+@.++     ",
"      ++++++$@&&&&%%#@.$$.++++     ",
"         +.@+$@#%#$%@@.$.%++++     ",
"          . ++$$.#@@@.+++..+       ",
"           .++.@$..+...++.++       ",
"          ....+....++.++++++       ",
"           +.+.#++..++ ++          ",
"            +++.++...+             ",
"            ++.+++++.              ",
"              +++++                ",
"                ++                 ",
"                                   ",
"                                   ",
"                                   "};
