/* XPM */
static char const *const exp7_xpm[] = {
"35 35 10 1",
" 	c #000000",
".	c #756952",
"+	c #84775C",
"@	c #DFB56D",
"#	c #F1E1C1",
"$	c #D3601D",
"%	c #C1731A",
"&	c #D3751D",
"*	c #E26C28",
"=	c #CA561C",
"                                   ",
"                                   ",
"                                   ",
"         ....... ++++++            ",
"        ...++++..+++++++           ",
"        ....+.++.+++++++           ",
"       .........+......+++         ",
"       +..+...@........++++        ",
"      ++++++.#@#@......+++++       ",
"     ..+......+#####........++     ",
"    ........+++$$#........+++      ",
"    ..........  %+...&  **++++     ",
"     ....##@$==         &.@++      ",
"     ...+##*#=         &@@.++      ",
"   ++++..### =       $%&#.+.+      ",
"  +..+++.++$          %=###..++    ",
"  ...++.+++++         =%&&#...+    ",
"   .....+++++..+      %%&$#..+++   ",
"   .....+++...+        &==....++   ",
"  .+++++.+....          =..++++    ",
"    .+...+$$ %%        =@...++     ",
"      ...*$$@$&&%%  %= $$....+     ",
"      +...+#@&$&==  =%=$$*#.++++   ",
"      +++++#@*#$=& %$$####...+++   ",
"     +.....++@##&$$%#####+......   ",
"       .......##&$###@#+++..++.+   ",
"      ++..+++.+#*#@.@+........     ",
"       ++.++...#*#@.++....+  .     ",
"        +...++++*@+.......         ",
"         .....++$......            ",
"          ....++......             ",
"              ........             ",
"               ...                 ",
"                                   ",
"                                   "};
