/* XPM */
static char const *const exp8_xpm[] = {
"35 35 3 1",
" 	c #000000",
".	c #84775C",
"+	c #756952",
"                                   ",
"        ..++. +                    ",
"        .....   +++++..+           ",
"       +.+  ++   ++ +++++          ",
"       ++ +         +++...         ",
"         ...       + .+++..+       ",
"     +   .            . .+.++      ",
"   ++++++.++  +      .  + +++      ",
"   +.  ++.+.            +   ++     ",
"   ..    ++   +             +++    ",
"   .+                       +      ",
"   .                       +++     ",
"                             ..    ",
"  ++   ..                    +  .  ",
"      .                      +..   ",
"++  +                         .+   ",
" +++..                        +.   ",
"  .+++++++++                  ..   ",
"   +++++++                  ++     ",
"                            ++     ",
"   .. . .                   +      ",
"                            ++++   ",
"      +++                          ",
"      +++                      +   ",
"      ..                    +++++. ",
"      +                  ++++++ .  ",
"       ..+++            ++++   .   ",
"       ...+           +++     ..   ",
"       +  .          ++.           ",
"         ..++++    ++++            ",
"           . ++   +++ ..           ",
"               +++++..             ",
"              +  .....             ",
"                                   ",
"                                   "};
