/* XPM */
static char const * const exp9_xpm[] = {
"35 35 3 1",
" 	c #000000",
".	c #A3967C",
"+	c #84775C",
"          .++                      ",
"        ++   .     ...+            ",
"       .      .      + .+          ",
"       ..               +++        ",
"                        ..++.      ",
"                      + . + .      ",
"         +                + ..     ",
"                      .            ",
"  .+   . ..+                 .     ",
"        .                    .     ",
"                             .     ",
"                                   ",
"                                   ",
" ..                            .   ",
"                               ++  ",
".                              +.  ",
"                               .   ",
" +                              +  ",
" +                                 ",
"  +    .                           ",
"  +                                ",
"      . +                          ",
"                                .  ",
"     ..                          . ",
"      .+ .                         ",
"      +                        .   ",
"      ..                  .     ++ ",
"      ++.                 .     +  ",
"       + +.                    +   ",
"        .+              +          ",
"        .+     .        +          ",
"         ++  ..     .              ",
"                  ...              ",
"              .   ++               ",
"                                   "};
