/* XPM */
static char const * const fire1_xpm[] = {
"35 35 318 2",
"  	c #000000",
". 	c #020100",
"+ 	c #010000",
"@ 	c #050100",
"# 	c #030100",
"$ 	c #0B0301",
"% 	c #080301",
"& 	c #040200",
"* 	c #010100",
"= 	c #070200",
"- 	c #210D03",
"; 	c #060200",
"> 	c #281204",
", 	c #240F03",
"' 	c #0F0601",
") 	c #120801",
"! 	c #0C0200",
"~ 	c #120401",
"{ 	c #2A1003",
"] 	c #1A0701",
"^ 	c #3E1C06",
"/ 	c #4E2509",
"( 	c #442308",
"_ 	c #1F1103",
": 	c #040100",
"< 	c #180701",
"[ 	c #1F0702",
"} 	c #471F07",
"| 	c #4C2509",
"1 	c #59290A",
"2 	c #71350E",
"3 	c #6E3610",
"4 	c #4A2709",
"5 	c #110701",
"6 	c #020000",
"7 	c #100301",
"8 	c #311104",
"9 	c #451C07",
"0 	c #8A4615",
"a 	c #8C4B18",
"b 	c #9F581B",
"c 	c #9D5219",
"d 	c #A4581C",
"e 	c #834816",
"f 	c #321705",
"g 	c #150401",
"h 	c #3C1806",
"i 	c #58280B",
"j 	c #A1521A",
"k 	c #AA5C1D",
"l 	c #BB6D22",
"m 	c #BE7324",
"n 	c #BC6922",
"o 	c #935318",
"p 	c #391A05",
"q 	c #2C1104",
"r 	c #4C1906",
"s 	c #793610",
"t 	c #AD571A",
"u 	c #C26820",
"v 	c #DF862A",
"w 	c #D67927",
"x 	c #E3822B",
"y 	c #CC7E28",
"z 	c #774714",
"A 	c #1E0A02",
"B 	c #3A1805",
"C 	c #6A2E0E",
"D 	c #8C3E13",
"E 	c #BA5D1D",
"F 	c #CD6A22",
"G 	c #E8872B",
"H 	c #F8942F",
"I 	c #FF9530",
"J 	c #EC912E",
"K 	c #C07B25",
"L 	c #200E03",
"M 	c #391D06",
"N 	c #542A0B",
"O 	c #9E531B",
"P 	c #B05F20",
"Q 	c #D37126",
"R 	c #F09330",
"S 	c #F78C2D",
"T 	c #FE9430",
"U 	c #FF9730",
"V 	c #F9952F",
"W 	c #D7862A",
"X 	c #3D2006",
"Y 	c #090200",
"Z 	c #3B1D07",
"` 	c #6D3F13",
" .	c #AE6020",
"..	c #D07426",
"+.	c #E5822A",
"@.	c #F49D33",
"#.	c #FFA636",
"$.	c #FF9F34",
"%.	c #FF9C32",
"&.	c #FFB138",
"*.	c #F89B31",
"=.	c #663B0F",
"-.	c #251303",
";.	c #080201",
">.	c #4A2509",
",.	c #794315",
"'.	c #C97829",
").	c #DE822B",
"!.	c #FC9E33",
"~.	c #F09B33",
"{.	c #FFA937",
"].	c #FFB83D",
"^.	c #FFB73B",
"/.	c #FFBF3D",
"(.	c #FFAC36",
"_.	c #774413",
":.	c #3D2107",
"<.	c #080300",
"[.	c #110301",
"}.	c #542C0A",
"|.	c #814816",
"1.	c #D8822C",
"2.	c #EFA035",
"3.	c #FDA736",
"4.	c #F2A636",
"5.	c #FFAB38",
"6.	c #FFB73C",
"7.	c #FFB83C",
"8.	c #FFBA3C",
"9.	c #FFAE37",
"0.	c #774312",
"a.	c #502F0B",
"b.	c #120701",
"c.	c #120301",
"d.	c #6B3911",
"e.	c #C07426",
"f.	c #EFBF3E",
"g.	c #F2CA41",
"h.	c #F9B33B",
"i.	c #EEB83E",
"j.	c #FCB33B",
"k.	c #FBAB38",
"l.	c #FEA636",
"m.	c #FFB63B",
"n.	c #FFB539",
"o.	c #905017",
"p.	c #55320C",
"q.	c #763F12",
"r.	c #EB9331",
"s.	c #FCB93D",
"t.	c #F6D845",
"u.	c #FCCB43",
"v.	c #F3CC4B",
"w.	c #E8BE43",
"x.	c #E3B23D",
"y.	c #F6AD3A",
"z.	c #FFC140",
"A.	c #FCA434",
"B.	c #854D17",
"C.	c #351C06",
"D.	c #7A4312",
"E.	c #C97525",
"F.	c #FEC745",
"G.	c #FEDB48",
"H.	c #F6E857",
"I.	c #F1DE52",
"J.	c #E9CF4D",
"K.	c #EFC345",
"L.	c #EAA439",
"M.	c #FFA73C",
"N.	c #DC7E29",
"O.	c #65370E",
"P.	c #221002",
"Q.	c #0A0300",
"R.	c #975B1C",
"S.	c #E79531",
"T.	c #FCE352",
"U.	c #FFFE62",
"V.	c #F8EB59",
"W.	c #F4E65A",
"X.	c #F7E055",
"Y.	c #F7DD51",
"Z.	c #FEB342",
"`.	c #F5B240",
" +	c #E7A539",
".+	c #6C3C11",
"++	c #1A0B02",
"@+	c #090300",
"#+	c #A4631D",
"$+	c #F6AB38",
"%+	c #FFFC5B",
"&+	c #FFFF66",
"*+	c #FFF459",
"=+	c #F5E75A",
"-+	c #FCE556",
";+	c #FBD54C",
">+	c #FDB248",
",+	c #F3B042",
"'+	c #F3B23D",
")+	c #89601D",
"!+	c #1E1002",
"~+	c #A97725",
"{+	c #FCD44B",
"]+	c #FFFF72",
"^+	c #FFFF78",
"/+	c #FFFD66",
"(+	c #FCEF5B",
"_+	c #FDF868",
":+	c #FBF766",
"<+	c #FFFF89",
"[+	c #F7F167",
"}+	c #F6DA4A",
"|+	c #7C621E",
"1+	c #1F1203",
"2+	c #1C1403",
"3+	c #9D7124",
"4+	c #FAD95F",
"5+	c #FDF785",
"6+	c #FFFFC0",
"7+	c #FEFDAB",
"8+	c #FBF589",
"9+	c #FFFFCA",
"0+	c #FFFFE7",
"a+	c #FFFFCD",
"b+	c #FAF8C9",
"c+	c #F5F171",
"d+	c #ECD84C",
"e+	c #7E6C1F",
"f+	c #352507",
"g+	c #AB832A",
"h+	c #F7D353",
"i+	c #F7EE82",
"j+	c #FFFEA3",
"k+	c #FFFFB8",
"l+	c #FFFFBB",
"m+	c #FFFFEF",
"n+	c #FFFFD5",
"o+	c #FFFFCE",
"p+	c #FFFEA1",
"q+	c #FFFE8E",
"r+	c #F8F364",
"s+	c #776822",
"t+	c #0F0A01",
"u+	c #B5862E",
"v+	c #F5D854",
"w+	c #FEFA80",
"x+	c #FEFCA7",
"y+	c #FFFF9A",
"z+	c #FFFFFF",
"A+	c #FFFFD3",
"B+	c #FFFFA6",
"C+	c #FFFF84",
"D+	c #FCFA66",
"E+	c #D6C84D",
"F+	c #3C340C",
"G+	c #090501",
"H+	c #986F27",
"I+	c #F5DE6D",
"J+	c #FEF97B",
"K+	c #FEFF9D",
"L+	c #FFFFAB",
"M+	c #FFFFC1",
"N+	c #FFFFAC",
"O+	c #FFFFA7",
"P+	c #FFFFA8",
"Q+	c #FFFF93",
"R+	c #F1EE61",
"S+	c #7B6B27",
"T+	c #070700",
"U+	c #0C0801",
"V+	c #8C6E23",
"W+	c #EDD563",
"X+	c #FEFA87",
"Y+	c #FEFFA5",
"Z+	c #FEFFC0",
"`+	c #FFFFA3",
" @	c #FFFFA2",
".@	c #FFFF80",
"+@	c #EDED75",
"@@	c #958433",
"#@	c #38320D",
"$@	c #332708",
"%@	c #7C6A28",
"&@	c #E3D67B",
"*@	c #FFFFD1",
"=@	c #FDFFD3",
"-@	c #FFFF9D",
";@	c #FEFFBA",
">@	c #FDFF8A",
",@	c #72642B",
"'@	c #312B1B",
")@	c #1A1705",
"!@	c #090602",
"~@	c #0C0701",
"{@	c #090601",
"]@	c #161405",
"^@	c #E5D87F",
"/@	c #FDFEBC",
"(@	c #F3D870",
"_@	c #FEFFB7",
":@	c #FDFDA2",
"<@	c #C9C165",
"[@	c #776E3C",
"}@	c #393219",
"|@	c #312F23",
"1@	c #040201",
"2@	c #020200",
"3@	c #554421",
"4@	c #AB9856",
"5@	c #B9A156",
"6@	c #625B2C",
"7@	c #231F0D",
"8@	c #040400",
"9@	c #0D0901",
"0@	c #0D0D03",
"a@	c #150D04",
"b@	c #0B0802",
"c@	c #161308",
"                                                                      ",
"                                                                      ",
"                                                                      ",
"                                                                      ",
"                              . +     .                               ",
"                          +   + .     .                               ",
"                              . @     #                               ",
"                          + + $ @ # % + &     *                       ",
"                        + . = - ; > , ' )                             ",
"                        + ! ~ { ] ^ / ( _ &                           ",
"                        : < [ } | 1 2 3 4 5                           ",
"                      6 7 8 9 0 a b c d e f                           ",
"                      : g h i j k l m n o p .                         ",
"                      ~ q r s t u v w x y z = +                       ",
"                    + A B C D E F G H I J K L +                       ",
"                    + M N O P Q R S T U V W X Y +                     ",
"                    : Z `  ...+.@.#.$.%.&.*.=.-.;.                    ",
"                    ! >.,.'.).!.~.{.].^./.(._.:.<.                    ",
"                    [.}.|.1.2.3.4.5.6.7.8.9.0.a.b.                    ",
"                    c.d.e.f.g.h.i.j.k.l.m.n.o.p.@                     ",
"                    ; q.r.s.t.u.v.w.x.y.z.A.B.C.                      ",
"                    # D.E.F.G.H.I.J.K.L.M.N.O.P.                      ",
"                    Q.R.S.T.U.V.W.X.Y.Z.`. +.+++                      ",
"                    @+#+$+%+&+*+=+-+;+>+,+'+)+!+                      ",
"                    6 ~+{+]+^+/+(+_+:+<+[+}+|+1+                      ",
"                    2+3+4+5+6+7+8+9+0+a+b+c+d+e+*                     ",
"                    f+g+h+i+j+k+l+m+n+o+p+q+r+s+                      ",
"                    t+u+v+w+x+y+n+z+A+B+C+D+E+F+                      ",
"                    G+H+I+J+K+L+M+N+O+P+Q+R+S+T+                      ",
"                    U+V+W+X+Y+Z+k+`+ @.@+@@@#@                        ",
"                    $@%@&@*@=@A+-@;@Y+>@,@'@)@!@                      ",
"                    ~@{@]@^@/@(@_@:@<@[@}@|@1@*                       ",
"                    2@. # 3@4@5@6@7@8@9@0@8@                          ",
"                    2@~@* a@b@c@*                                     ",
"                        *                                             "};
