/* XPM */
static char const * const fire4_xpm[] = {
"35 35 307 2",
"  	c #000000",
". 	c #010000",
"+ 	c #020100",
"@ 	c #020000",
"# 	c #030000",
"$ 	c #080100",
"% 	c #050100",
"& 	c #0E0301",
"* 	c #1A0602",
"= 	c #100401",
"- 	c #050200",
"; 	c #050201",
"> 	c #0A0301",
", 	c #160502",
"' 	c #110301",
") 	c #080200",
"! 	c #030100",
"~ 	c #090301",
"{ 	c #070301",
"] 	c #160802",
"^ 	c #260E04",
"/ 	c #210903",
"( 	c #190C03",
"_ 	c #080201",
": 	c #070200",
"< 	c #0E0602",
"[ 	c #281105",
"} 	c #331205",
"| 	c #3B1706",
"1 	c #3A2308",
"2 	c #1B0D03",
"3 	c #0E0401",
"4 	c #150902",
"5 	c #110702",
"6 	c #040100",
"7 	c #301506",
"8 	c #4B220A",
"9 	c #431D08",
"0 	c #49270A",
"a 	c #392108",
"b 	c #4A2E0C",
"c 	c #2D1805",
"d 	c #090201",
"e 	c #040200",
"f 	c #0C0501",
"g 	c #7B4015",
"h 	c #954C19",
"i 	c #773711",
"j 	c #763A12",
"k 	c #814A17",
"l 	c #895019",
"m 	c #4A2309",
"n 	c #190702",
"o 	c #1D0902",
"p 	c #0F0601",
"q 	c #532E0B",
"r 	c #9F541B",
"s 	c #A7571D",
"t 	c #A2531D",
"u 	c #A76321",
"v 	c #AB6520",
"w 	c #B16721",
"x 	c #703B13",
"y 	c #3B1806",
"z 	c #391705",
"A 	c #0C0301",
"B 	c #010100",
"C 	c #291604",
"D 	c #6B3E11",
"E 	c #A85B1E",
"F 	c #B1591D",
"G 	c #C76A22",
"H 	c #CC7726",
"I 	c #E48F2D",
"J 	c #E2922E",
"K 	c #95531B",
"L 	c #53280B",
"M 	c #391905",
"N 	c #180702",
"O 	c #4C2A0B",
"P 	c #7F4816",
"Q 	c #B76420",
"R 	c #DB7426",
"S 	c #ED8E2D",
"T 	c #EE9B30",
"U 	c #E0A334",
"V 	c #D68F2D",
"W 	c #975D1E",
"X 	c #451D07",
"Y 	c #3E1A06",
"Z 	c #220D03",
"` 	c #120602",
" .	c #301504",
"..	c #7F4313",
"+.	c #A25D1D",
"@.	c #CD832A",
"#.	c #E5942F",
"$.	c #F0B338",
"%.	c #E9AF37",
"&.	c #DBA434",
"*.	c #DCA133",
"=.	c #A67424",
"-.	c #52270B",
";.	c #431D07",
">.	c #261003",
",.	c #291304",
"'.	c #0A0300",
").	c #431E06",
"!.	c #864413",
"~.	c #AC6821",
"{.	c #D3912F",
"].	c #EEAC36",
"^.	c #F0A634",
"/.	c #E5A133",
"(.	c #DBA533",
"_.	c #DCA434",
":.	c #BC882C",
"<.	c #7A4314",
"[.	c #3F1C06",
"}.	c #2E1504",
"|.	c #200D03",
"1.	c #502309",
"2.	c #AC571B",
"3.	c #C27926",
"4.	c #F09832",
"5.	c #F8AD37",
"6.	c #EEA233",
"7.	c #DC8A2C",
"8.	c #D69C31",
"9.	c #D7AA35",
"0.	c #ECC240",
"a.	c #F1A036",
"b.	c #E8A036",
"c.	c #915B1D",
"d.	c #4C2E0C",
"e.	c #0C0701",
"f.	c #1A0802",
"g.	c #924012",
"h.	c #E47A26",
"i.	c #F8CE43",
"j.	c #F7CF46",
"k.	c #EAA134",
"l.	c #E3992F",
"m.	c #ECD544",
"n.	c #F3E951",
"o.	c #FEF45D",
"p.	c #F6E84E",
"q.	c #FEE44C",
"r.	c #B17526",
"s.	c #84551A",
"t.	c #1A0E02",
"u.	c #A95319",
"v.	c #F1902E",
"w.	c #F3E149",
"x.	c #F2EB52",
"y.	c #F2DB47",
"z.	c #ECD945",
"A.	c #EEDF49",
"B.	c #F4EB50",
"C.	c #FDF258",
"D.	c #FDF555",
"E.	c #FFE94D",
"F.	c #CB9430",
"G.	c #784D18",
"H.	c #3A2509",
"I.	c #200B02",
"J.	c #E78D2D",
"K.	c #F6BF3F",
"L.	c #F1EA5B",
"M.	c #F2EC61",
"N.	c #F7F369",
"O.	c #F9F55B",
"P.	c #FCF957",
"Q.	c #FCED5A",
"R.	c #FEE960",
"S.	c #FFFF7A",
"T.	c #FFFF66",
"U.	c #F7BF3D",
"V.	c #C28C2D",
"W.	c #2A1A05",
"X.	c #442107",
"Y.	c #EB9933",
"Z.	c #F4DF53",
"`.	c #EFE760",
" +	c #F1EA66",
".+	c #F9F878",
"++	c #FEFE7A",
"@+	c #FFFE61",
"#+	c #FFF761",
"$+	c #FFF670",
"%+	c #FFFF8D",
"&+	c #FFFF7E",
"*+	c #FED143",
"=+	c #ECAE39",
"-+	c #4F360F",
";+	c #060100",
">+	c #431F07",
",+	c #DC9530",
"'+	c #F5E76C",
")+	c #F0E978",
"!+	c #EFE87C",
"~+	c #F8F5A6",
"{+	c #FFFF8A",
"]+	c #FFFF6F",
"^+	c #FFFF75",
"/+	c #FFFF71",
"(+	c #FFFF81",
"_+	c #FFFF94",
":+	c #FFFE5B",
"<+	c #EDBE3E",
"[+	c #573E12",
"}+	c #271003",
"|+	c #E5BB58",
"1+	c #FBF87F",
"2+	c #EDE268",
"3+	c #EFE680",
"4+	c #FAF8C8",
"5+	c #FFFE85",
"6+	c #FFF36E",
"7+	c #FFFA75",
"8+	c #FEF979",
"9+	c #FBF97B",
"0+	c #FFF85B",
"a+	c #B18229",
"b+	c #3B2809",
"c+	c #795622",
"d+	c #E1A63F",
"e+	c #EDE161",
"f+	c #F4EC8E",
"g+	c #FBF9BA",
"h+	c #FFFAA8",
"i+	c #FFE983",
"j+	c #FFEB7E",
"k+	c #F9E877",
"l+	c #FEFC88",
"m+	c #FFFF77",
"n+	c #B89030",
"o+	c #52360E",
"p+	c #060200",
"q+	c #5C4313",
"r+	c #B0892B",
"s+	c #EDE168",
"t+	c #F0E682",
"u+	c #FCFBC1",
"v+	c #FFFFAC",
"w+	c #FFF99E",
"x+	c #FFF185",
"y+	c #FCF37C",
"z+	c #FDFD85",
"A+	c #FCF059",
"B+	c #654F1A",
"C+	c #2B1D06",
"D+	c #392C0B",
"E+	c #9D7D27",
"F+	c #F0E363",
"G+	c #F5EF7C",
"H+	c #FEFE9B",
"I+	c #FFFF90",
"J+	c #FFFCA0",
"K+	c #FBEF7B",
"L+	c #FCF398",
"M+	c #FEFE8D",
"N+	c #C8BC4A",
"O+	c #261D07",
"P+	c #060201",
"Q+	c #1F1804",
"R+	c #BAA13A",
"S+	c #F9F589",
"T+	c #FCF996",
"U+	c #FEFE99",
"V+	c #FFFFAB",
"W+	c #FFFE9A",
"X+	c #FEFA79",
"Y+	c #FDF9CB",
"Z+	c #FDFA97",
"`+	c #A9A13F",
" @	c #272107",
".@	c #191403",
"+@	c #B1AA4F",
"@@	c #FFFB87",
"#@	c #E5D151",
"$@	c #FAEE5C",
"%@	c #FFFF60",
"&@	c #FFF862",
"*@	c #BEB263",
"=@	c #D4D277",
"-@	c #777431",
";@	c #0F0C02",
">@	c #040201",
",@	c #33290E",
"'@	c #555022",
")@	c #2E2D0A",
"!@	c #DFDB5F",
"~@	c #F5F285",
"{@	c #E7DF76",
"]@	c #5D5C38",
"^@	c #C5C689",
"/@	c #110E07",
"(@	c #060402",
"_@	c #020200",
":@	c #060601",
"<@	c #75772C",
"[@	c #30300E",
"}@	c #212109",
"|@	c #030301",
"1@	c #110B07",
"2@	c #080802",
"                                                                      ",
"                                                                      ",
"                                                                      ",
"                                                                      ",
"                                  . .                                 ",
"                                  . . + .                             ",
"                              @   . . . .                             ",
"                            # $ % + + .                               ",
"                          . @ & * = - .                               ",
"                    . ; + > , ' ) ! + @ .                             ",
"                      ~ { ] ^ / ( _ ! : + .                           ",
"                    { < { [ } | 1 2 2 3 % @                           ",
"                    4 5 6 7 8 9 0 a b c d @ .                         ",
"                    e   f g h i j k l m n o ~ .                       ",
"                      p q r s t u v w x y z A B                       ",
"                      C D E F G H I J K L M N >                       ",
"                    - O P Q R S T U V W X Y Z `                       ",
"                  6  ...+.@.#.$.%.&.*.=.-.;.>.,..                     ",
"                  '.).!.~.{.].^./.(._.:.<.[.}.|.+                     ",
"                  A 1.2.3.4.5.6.7.8.9.0.a.b.c.d.e.                    ",
"                    f.g.h.i.j.k.l.m.n.o.p.q.r.s.t.                    ",
"                    6 u.v.w.x.y.z.A.B.C.D.E.F.G.H.                    ",
"                  . I.J.K.L.M.N.O.P.Q.R.S.T.U.V.W.B                   ",
"                  . X.Y.Z.`. +.+++@+#+$+%+&+*+=+-+B                   ",
"                  ;+>+,+'+)+!+~+{+]+^+/+(+_+:+<+[+e                   ",
"                  . }+|+1+2+3+4+5+6+7+8+9+S.0+a+b+.                   ",
"                    = c+d+e+f+g+h+i+j+k+l+m+n+o+e                     ",
"                    p+q+r+s+t+u+v+w+x+y+z+A+B+C+                      ",
"                      D+E+F+G+H+I+J+K+L+M+N+O+P+                      ",
"                      Q+R+S+T+U+V+W+X+Y+Z+`+ @p+                      ",
"                      .@+@@@#@$@]+%@&@*@=@-@;@                        ",
"                        >@,@'@)@!@~@{@]@^@/@(@                        ",
"                          _@  :@<@[@}@|@B 1@                          ",
"                                2@                                    ",
"                                                                      "};
