/* XPM */
static char const * const fire10_xpm[] = {
"35 35 316 2",
"  	c #000000",
". 	c #010000",
"+ 	c #020000",
"@ 	c #020100",
"# 	c #010100",
"$ 	c #030000",
"% 	c #090200",
"& 	c #030100",
"* 	c #050100",
"= 	c #0D0401",
"- 	c #070100",
"; 	c #060100",
"> 	c #070200",
", 	c #0C0301",
"' 	c #0F0301",
") 	c #090301",
"! 	c #0F0201",
"~ 	c #0F0300",
"{ 	c #090201",
"] 	c #0D0301",
"^ 	c #140602",
"/ 	c #210B02",
"( 	c #240B02",
"_ 	c #1B0802",
": 	c #1C0902",
"< 	c #150701",
"[ 	c #2E1A05",
"} 	c #150401",
"| 	c #1D0801",
"1 	c #0A0100",
"2 	c #100301",
"3 	c #250A03",
"4 	c #3D1905",
"5 	c #502208",
"6 	c #4B1E09",
"7 	c #3B1806",
"8 	c #331805",
"9 	c #432409",
"0 	c #4F290A",
"a 	c #381804",
"b 	c #080100",
"c 	c #120301",
"d 	c #381204",
"e 	c #461E06",
"f 	c #5A270A",
"g 	c #632B0C",
"h 	c #4E2209",
"i 	c #341705",
"j 	c #492508",
"k 	c #582F0B",
"l 	c #552A0A",
"m 	c #0C0100",
"n 	c #110301",
"o 	c #260802",
"p 	c #5A200A",
"q 	c #7E3713",
"r 	c #823812",
"s 	c #873912",
"t 	c #A44B1A",
"u 	c #9B4B18",
"v 	c #945519",
"w 	c #834C17",
"x 	c #6F3C10",
"y 	c #1B0702",
"z 	c #040100",
"A 	c #250A02",
"B 	c #3D1505",
"C 	c #743811",
"D 	c #8D3E14",
"E 	c #C86924",
"F 	c #BE561E",
"G 	c #C3561E",
"H 	c #CD6422",
"I 	c #C66922",
"J 	c #CD7525",
"K 	c #884B15",
"L 	c #200802",
"M 	c #3F1D06",
"N 	c #65340F",
"O 	c #B06020",
"P 	c #D26723",
"Q 	c #ED7C2A",
"R 	c #EB7B28",
"S 	c #DC5A1E",
"T 	c #E36622",
"U 	c #E57827",
"V 	c #E7882B",
"W 	c #C67624",
"X 	c #4D2808",
"Y 	c #1E0D02",
"Z 	c #120300",
"` 	c #431F06",
" .	c #542809",
"..	c #AD5E1E",
"+.	c #E8852D",
"@.	c #F8892D",
"#.	c #F99732",
"$.	c #F59131",
"%.	c #F59331",
"&.	c #F3832A",
"*.	c #F18C2C",
"=.	c #DF872B",
"-.	c #5D370D",
";.	c #2C1B03",
">.	c #260E03",
",.	c #84591B",
"'.	c #8B5F1D",
").	c #DE872C",
"!.	c #FFCA42",
"~.	c #FEB93C",
"{.	c #FBC13E",
"].	c #F5CC43",
"^.	c #F3B73D",
"/.	c #F3902E",
"(.	c #F6902D",
"_.	c #F29730",
":.	c #8B591A",
"<.	c #402307",
"[.	c #281003",
"}.	c #8F6820",
"|.	c #9F7223",
"1.	c #FAAB38",
"2.	c #FFD747",
"3.	c #FED745",
"4.	c #FAC63F",
"5.	c #F5C23E",
"6.	c #F2B83C",
"7.	c #F2952F",
"8.	c #F5942F",
"9.	c #EF9831",
"0.	c #A86D22",
"a.	c #5A360E",
"b.	c #1C0C02",
"c.	c #9F7624",
"d.	c #CE9831",
"e.	c #FEBA3C",
"f.	c #FFC640",
"g.	c #FEDE48",
"h.	c #FAC741",
"i.	c #F3BC3D",
"j.	c #F1BF3E",
"k.	c #E7A737",
"l.	c #EE9632",
"m.	c #F39D37",
"n.	c #D28029",
"o.	c #774412",
"p.	c #060200",
"q.	c #44320C",
"r.	c #946D22",
"s.	c #B08129",
"t.	c #EDAD38",
"u.	c #FFD043",
"v.	c #FEE84B",
"w.	c #FAE048",
"x.	c #F1D646",
"y.	c #F1CF45",
"z.	c #F1B039",
"A.	c #EC9D34",
"B.	c #F7B245",
"C.	c #D78129",
"D.	c #8F4E17",
"E.	c #0C0401",
"F.	c #533E11",
"G.	c #C99530",
"H.	c #E2AB39",
"I.	c #F1B83D",
"J.	c #FFFF5C",
"K.	c #FEFC57",
"L.	c #FCF957",
"M.	c #F2E55D",
"N.	c #F1E265",
"O.	c #F2E352",
"P.	c #F9E751",
"Q.	c #FEE34F",
"R.	c #F7A536",
"S.	c #8D5018",
"T.	c #0F0701",
"U.	c #0D0501",
"V.	c #AB8129",
"W.	c #E2B43B",
"X.	c #F4C240",
"Y.	c #FFFF62",
"Z.	c #FEFE6E",
"`.	c #FDFB6C",
" +	c #F9F268",
".+	c #F8F076",
"++	c #F8F16E",
"@+	c #FBF864",
"#+	c #FFFF72",
"$+	c #FECF44",
"%+	c #A66E21",
"&+	c #160B02",
"*+	c #100701",
"=+	c #A67D28",
"-+	c #E4B83E",
";+	c #FDD347",
">+	c #FFFF60",
",+	c #FFFE78",
"'+	c #FEFD6D",
")+	c #FCFA87",
"!+	c #FCF98F",
"~+	c #FDFA74",
"{+	c #FEFD6C",
"]+	c #FFFF77",
"^+	c #F8C94A",
"/+	c #8D5E1C",
"(+	c #090401",
"_+	c #1A0F02",
":+	c #D5A737",
"<+	c #FDD145",
"[+	c #FFFB5B",
"}+	c #FFFF8D",
"|+	c #FFFF83",
"1+	c #FFFF8C",
"2+	c #FFFF6A",
"3+	c #FFEE63",
"4+	c #FDEF74",
"5+	c #FAD852",
"6+	c #8F621F",
"7+	c #48310B",
"8+	c #DAB23A",
"9+	c #FFF252",
"0+	c #FFFF7E",
"a+	c #FFFFB4",
"b+	c #FFFFC3",
"c+	c #FFFF95",
"d+	c #FFFE87",
"e+	c #FFFE89",
"f+	c #FFFF73",
"g+	c #FFF667",
"h+	c #FEFC79",
"i+	c #F6CD51",
"j+	c #A38333",
"k+	c #040200",
"l+	c #6D4B16",
"m+	c #F6DC48",
"n+	c #FFFF65",
"o+	c #FFFF89",
"p+	c #FFFFD1",
"q+	c #FFFFD9",
"r+	c #FFFFA6",
"s+	c #FFFFA7",
"t+	c #FFFFC0",
"u+	c #FFFFD4",
"v+	c #FFFF8A",
"w+	c #FFFFA4",
"x+	c #FFF96E",
"y+	c #97762F",
"z+	c #442B0A",
"A+	c #E6BD3E",
"B+	c #FFF957",
"C+	c #FFFFBD",
"D+	c #FFFFE8",
"E+	c #FFFFAC",
"F+	c #FFFFB5",
"G+	c #FFFFE9",
"H+	c #FFFFFA",
"I+	c #FFFFFC",
"J+	c #EBDF62",
"K+	c #7C6525",
"L+	c #100501",
"M+	c #7D5A1D",
"N+	c #E1CA48",
"O+	c #FFFF74",
"P+	c #FFFF9D",
"Q+	c #FFFFC4",
"R+	c #FFFFB3",
"S+	c #FFFF7C",
"T+	c #FFFFC8",
"U+	c #FFFF9C",
"V+	c #CCC65E",
"W+	c #3B2E0D",
"X+	c #070300",
"Y+	c #4F340E",
"Z+	c #A18535",
"`+	c #F4F475",
" @	c #FFFF99",
".@	c #FFFFB9",
"+@	c #FFFE74",
"@@	c #FFFD78",
"#@	c #F2EE87",
"$@	c #FFFF9E",
"%@	c #C4BB50",
"&@	c #332E0B",
"*@	c #190E02",
"=@	c #4B3A1B",
"-@	c #90864D",
";@	c #E4E486",
">@	c #F9F97A",
",@	c #F2F268",
"'@	c #C2B74B",
")@	c #B6A75A",
"!@	c #D5D57A",
"~@	c #F3F375",
"{@	c #CBBD3F",
"]@	c #4E4616",
"^@	c #161603",
"/@	c #111107",
"(@	c #B4B17B",
"_@	c #DFDCA1",
":@	c #CAB859",
"<@	c #B1AE4B",
"[@	c #BDBC69",
"}@	c #ADAA5D",
"|@	c #BBB95B",
"1@	c #ADA948",
"2@	c #676520",
"3@	c #1E1A0E",
"4@	c #5B512E",
"5@	c #3E3B19",
"6@	c #635F23",
"7@	c #504D1A",
"8@	c #1C1C04",
"9@	c #38381C",
"0@	c #3F3D1C",
"a@	c #565122",
"                                                                      ",
"                                                                      ",
"                                                                      ",
"                          .                                           ",
"                          .                                           ",
"                                          + @ #                       ",
"                                        . . $ .                       ",
"                      @   # .         # % &                           ",
"                      + * = +       . % - ; .                         ",
"                      > , ' & - ) & & , ! ~ $                         ",
"                      { ] ^ / ( _ : < [ } | 1 *                       ",
"                      , 2 3 4 5 6 7 8 9 0 a b .                       ",
"                    . { c d e f g h i j k l m .                       ",
"                    + n o p q r s t u v w x y $                       ",
"                    z A B C D E F G H I J K L $                       ",
"                    z M N O P Q R S T U V W X Y                       ",
"                  . Z `  ...+.@.#.$.%.&.*.=.-.;..                     ",
"                  ; >.,.'.).!.~.{.].^./.(._.:.<.$                     ",
"                  z [.}.|.1.2.3.4.5.6.7.8.9.0.a.@                     ",
"                  . b.c.d.e.f.g.h.i.j.k.l.m.n.o.p.                    ",
"                    q.r.s.t.u.v.w.x.y.z.A.B.C.D.E.                    ",
"                    F.G.H.I.J.K.L.M.N.O.P.Q.R.S.T.                    ",
"                    U.V.W.X.Y.Z.`. +.+++@+#+$+%+&+                    ",
"                    *+=+-+;+>+,+'+)+!+~+{+]+^+/+(+                    ",
"                  @ _+:+<+[+#+}+,+|+1+2+3+4+5+6+.                     ",
"                  p.7+8+9+0+a+b+c+d+e+f+g+h+i+j+k+                    ",
"                  @ l+m+n+o+p+q+r+s+t+u+v+w+x+y+&                     ",
"                    z+A+B+#+C+D+E+F+G+H+I+t+J+K+.                     ",
"                    L+M+N+O+P+Q+R+S+o+T+E+U+V+W+.                     ",
"                    X+Y+Z+`+ @.@1++@@@#@$@U+%@&@                      ",
"                    . *@=@-@;@>@,@'@)@!@~@{@]@^@                      ",
"                    . # /@(@_@:@<@[@}@|@1@2@                          ",
"                          3@4@5@6@7@8@9@0@a@                          ",
"                                                                      ",
"                                                                      "};
