/* XPM */
static char const * const fire6_xpm[] = {
"35 35 309 2",
"  	c #000000",
". 	c #010000",
"+ 	c #020000",
"@ 	c #020100",
"# 	c #030100",
"$ 	c #050100",
"% 	c #0E0201",
"& 	c #0D0201",
"* 	c #190401",
"= 	c #1F0502",
"- 	c #140301",
"; 	c #060200",
"> 	c #110301",
", 	c #270702",
"' 	c #300C03",
") 	c #1A0501",
"! 	c #060100",
"~ 	c #070100",
"{ 	c #150401",
"] 	c #290903",
"^ 	c #330A03",
"/ 	c #3E1004",
"( 	c #592409",
"_ 	c #120301",
": 	c #0A0201",
"< 	c #080200",
"[ 	c #150501",
"} 	c #170401",
"| 	c #2B0B03",
"1 	c #3C0F05",
"2 	c #4C1907",
"3 	c #57200A",
"4 	c #3E1405",
"5 	c #2C0C03",
"6 	c #0D0200",
"7 	c #100401",
"8 	c #200902",
"9 	c #321304",
"0 	c #310E04",
"a 	c #4F1A07",
"b 	c #63240B",
"c 	c #6B2B0D",
"d 	c #4B1A07",
"e 	c #361004",
"f 	c #0D0401",
"g 	c #5B280A",
"h 	c #853B11",
"i 	c #7B3A11",
"j 	c #4B1C07",
"k 	c #8D3712",
"l 	c #933913",
"m 	c #983812",
"n 	c #5D1F08",
"o 	c #340D03",
"p 	c #0F0201",
"q 	c #0D0301",
"r 	c #140601",
"s 	c #4C2408",
"t 	c #A34E17",
"u 	c #9D4B16",
"v 	c #914917",
"w 	c #924C18",
"x 	c #B44A19",
"y 	c #B34617",
"z 	c #AC4214",
"A 	c #8B3A13",
"B 	c #491406",
"C 	c #110201",
"D 	c #040100",
"E 	c #301704",
"F 	c #5C2D0B",
"G 	c #AB5019",
"H 	c #B05419",
"I 	c #BB621D",
"J 	c #CC7022",
"K 	c #D7601F",
"L 	c #D0571D",
"M 	c #C1581E",
"N 	c #913B13",
"O 	c #752A0C",
"P 	c #240802",
"Q 	c #361A05",
"R 	c #995319",
"S 	c #F37F27",
"T 	c #FE9F31",
"U 	c #FEB538",
"V 	c #FEA333",
"W 	c #F58028",
"X 	c #E97124",
"Y 	c #D26622",
"Z 	c #BD6422",
"` 	c #732D0D",
" .	c #4D1B06",
"..	c #331104",
"+.	c #100602",
"@.	c #5C350E",
"#.	c #B36820",
"$.	c #C96D21",
"%.	c #FC892A",
"&.	c #FFC33E",
"*.	c #FC9E32",
"=.	c #EE862A",
"-.	c #DE7625",
";.	c #CA6E25",
">.	c #9E4F19",
",.	c #532007",
"'.	c #1B1003",
").	c #6A4012",
"!.	c #B46B22",
"~.	c #CF7022",
"{.	c #F8892A",
"].	c #FEA936",
"^.	c #FFBF3D",
"/.	c #FBA634",
"(.	c #F4902D",
"_.	c #EA872B",
":.	c #CE7326",
"<.	c #9E4F1A",
"[.	c #542109",
"}.	c #331204",
"|.	c #241504",
"1.	c #A5651F",
"2.	c #D38129",
"3.	c #FBA334",
"4.	c #FEC640",
"5.	c #FED143",
"6.	c #FCC43D",
"7.	c #EB8F2D",
"8.	c #EB8D2D",
"9.	c #E49631",
"0.	c #D47C29",
"a.	c #914D1B",
"b.	c #471F08",
"c.	c #1C0802",
"d.	c #6E4112",
"e.	c #D2882B",
"f.	c #FDD243",
"g.	c #FDF04E",
"h.	c #FEF751",
"i.	c #FDEF4D",
"j.	c #EBB83B",
"k.	c #E6AD38",
"l.	c #E3AC38",
"m.	c #E09C34",
"n.	c #BB7B2A",
"o.	c #663812",
"p.	c #1D0A02",
"q.	c #110701",
"r.	c #1C1103",
"s.	c #A76D22",
"t.	c #FBB63A",
"u.	c #FDEC4D",
"v.	c #FDDC47",
"w.	c #FEF654",
"x.	c #FEFA66",
"y.	c #F8EB53",
"z.	c #F1D548",
"A.	c #EECE46",
"B.	c #E9C843",
"C.	c #E4A638",
"D.	c #82511A",
"E.	c #2D1905",
"F.	c #120901",
"G.	c #523B0E",
"H.	c #FAC33D",
"I.	c #FFEB4C",
"J.	c #FEFD71",
"K.	c #FEFD66",
"L.	c #FFFE8F",
"M.	c #FFFEA8",
"N.	c #FFFC72",
"O.	c #FDF258",
"P.	c #F3E14F",
"Q.	c #FEEE50",
"R.	c #F9E24D",
"S.	c #975F1F",
"T.	c #432609",
"U.	c #010100",
"V.	c #040200",
"W.	c #6E5017",
"X.	c #FFE349",
"Y.	c #FFFE55",
"Z.	c #FFFE78",
"`.	c #FFFF7C",
" +	c #FFFFAD",
".+	c #FEFCC7",
"++	c #FEFB89",
"@+	c #FCF560",
"#+	c #F4E151",
"$+	c #FCEE50",
"%+	c #FEF254",
"&+	c #AA7124",
"*+	c #3F240A",
"=+	c #080301",
"-+	c #7A591B",
";+	c #FFEC4C",
">+	c #FFFE56",
",+	c #FFFF6B",
"'+	c #FFFFA9",
")+	c #FDFCB5",
"!+	c #F3ECAA",
"~+	c #EFE684",
"{+	c #F3EC79",
"]+	c #F7EE53",
"^+	c #F6EC52",
"/+	c #F7F256",
"(+	c #EDC242",
"_+	c #71531A",
":+	c #0C0501",
"<+	c #020200",
"[+	c #72551A",
"}+	c #A37D26",
"|+	c #FBE955",
"1+	c #FEFF9C",
"2+	c #FFFFA1",
"3+	c #FCFA99",
"4+	c #F6F0A4",
"5+	c #F8EF91",
"6+	c #FDF880",
"7+	c #FBF45C",
"8+	c #F4E95B",
"9+	c #F9F76A",
"0+	c #E9CB48",
"a+	c #72571D",
"b+	c #100902",
"c+	c #2C1E07",
"d+	c #6F521A",
"e+	c #D2B03E",
"f+	c #FFFFB1",
"g+	c #FFFFB0",
"h+	c #FCF6BA",
"i+	c #F3EBA2",
"j+	c #FFFF96",
"k+	c #FFFF88",
"l+	c #FFFE71",
"m+	c #F6F46B",
"n+	c #FCFE78",
"o+	c #D9BA42",
"p+	c #614D18",
"q+	c #140D02",
"r+	c #514117",
"s+	c #C1A03E",
"t+	c #FFFF9D",
"u+	c #FFFFCC",
"v+	c #FFFFD0",
"w+	c #FEFEA3",
"x+	c #FFFF99",
"y+	c #FFFF9F",
"z+	c #FFFF97",
"A+	c #FCFF82",
"B+	c #F6E954",
"C+	c #756620",
"D+	c #514216",
"E+	c #D5BB4B",
"F+	c #FFFFD5",
"G+	c #FEFFDF",
"H+	c #FEFFBA",
"I+	c #FFFFC1",
"J+	c #FFFFBE",
"K+	c #FEFF9A",
"L+	c #CEC445",
"M+	c #241F06",
"N+	c #372A0A",
"O+	c #B4993B",
"P+	c #FFFFA3",
"Q+	c #FFFFCB",
"R+	c #FEFFD7",
"S+	c #FFFFAC",
"T+	c #FFFF93",
"U+	c #FFFFEE",
"V+	c #FFFFCF",
"W+	c #FFFFA2",
"X+	c #BFB640",
"Y+	c #100D02",
"Z+	c #59481D",
"`+	c #FFFFD7",
" @	c #FEFFB4",
".@	c #FFFFE0",
"+@	c #FFFFBB",
"@@	c #FEFF9B",
"#@	c #56501B",
"$@	c #292512",
"%@	c #8E793A",
"&@	c #A69550",
"*@	c #A29551",
"=@	c #F4EF6F",
"-@	c #F2ED66",
";@	c #C9B945",
">@	c #FAF462",
",@	c #FFFF80",
"'@	c #F2EA74",
")@	c #CBBF59",
"!@	c #120F05",
"~@	c #2E2E20",
"{@	c #9F9056",
"]@	c #625835",
"^@	c #2F2A16",
"/@	c #8F8737",
"(@	c #585A1A",
"_@	c #6D6F22",
":@	c #A6A339",
"<@	c #736B2D",
"[@	c #231A0B",
"}@	c #020201",
"|@	c #060604",
"1@	c #191904",
"2@	c #1A1A04",
"3@	c #030101",
"4@	c #050202",
"                                                                      ",
"                                                                      ",
"                                                                      ",
"                                  . .                                 ",
"                                . + .                                 ",
"                              . @ @ # .                               ",
"                              . + # $ .                               ",
"                            . . $ % & +                               ",
"                          . . $ & * = - .                             ",
"                          . . ; > , ' ) ! .                           ",
"                          . ~ { ] ^ / ( _ : .                         ",
"                          < [ } | 1 2 3 4 5 6 .                       ",
"                          7 8 9 0 a b c d e ) +                       ",
"                      . f g h i j k l m n o p q .                     ",
"                      r s t u v w x y z A B C ~ D                     ",
"                      E F G H I J K L M N O P > !                     ",
"                      Q R S T U V W X Y Z `  ...!                     ",
"                    +.@.#.$.%.V &.*.=.-.;.>.,.9                       ",
"                    '.).!.~.{.].^./.(._.:.<.[.}.                      ",
"                    |.1.2.3.4.5.6.7.8.9.0.a.b.c.                      ",
"                    ; d.e.f.g.h.i.j.k.l.m.n.o.p.                      ",
"                  q.r.s.t.u.v.w.x.y.z.A.B.C.D.E.                      ",
"                  F.G.H.I.J.K.L.M.N.O.P.Q.R.S.T.U.                    ",
"                  V.W.X.Y.Z.`. +.+++@+#+$+%+&+*+=+.                   ",
"                  # -+;+>+,+'+)+!+~+{+]+^+/+(+_+:+                    ",
"                  <+[+}+|+1+2+3+4+5+6+7+8+9+0+a+b+                    ",
"                  @ c+d+e+f+g+h+i+j+k+l+m+n+o+p+                      ",
"                  U.q+r+s+t+u+v+w+x+y+z+L.A+B+C+                      ",
"                    U.D+E+z+F+G+H+z+I+f+J+K+L+M+                      ",
"                      N+O+P+Q+R+S+T+U+I+V+W+X+Y+                      ",
"                      # Z+F+`+ @y+f+g+.@+@@@#@U.                      ",
"                      $@%@&@*@=@-@;@>@,@'@)@!@                        ",
"                        ~@{@]@^@/@(@_@:@<@[@}@|@                      ",
"                          <+.     1@2@<+  3@4@                        ",
"                                                                      "};
