/* XPM */
static char const * const fire13_xpm[] = {
"35 35 303 2",
"  	c #000000",
". 	c #030100",
"+ 	c #010100",
"@ 	c #010000",
"# 	c #130501",
"$ 	c #0B0200",
"% 	c #020000",
"& 	c #020100",
"* 	c #0E0301",
"= 	c #200C03",
"- 	c #180601",
"; 	c #100301",
"> 	c #160701",
", 	c #170701",
"' 	c #180701",
") 	c #361604",
"! 	c #270B02",
"~ 	c #371804",
"{ 	c #301603",
"] 	c #1E0C02",
"^ 	c #200E02",
"/ 	c #040100",
"( 	c #351704",
"_ 	c #421C06",
": 	c #502009",
"< 	c #4B1906",
"[ 	c #602C0A",
"} 	c #5E2D0A",
"| 	c #5E2D0B",
"1 	c #432308",
"2 	c #150501",
"3 	c #3A1A04",
"4 	c #481F06",
"5 	c #65290C",
"6 	c #68270B",
"7 	c #6F340C",
"8 	c #77390F",
"9 	c #743810",
"0 	c #59320D",
"a 	c #180702",
"b 	c #030000",
"c 	c #170801",
"d 	c #532B0A",
"e 	c #5A2808",
"f 	c #8B3F13",
"g 	c #8B3A11",
"h 	c #8A3D10",
"i 	c #9E4A16",
"j 	c #B5631F",
"k 	c #864C17",
"l 	c #422408",
"m 	c #321704",
"n 	c #784113",
"o 	c #8E4717",
"p 	c #B86921",
"q 	c #B2571B",
"r 	c #BC601D",
"s 	c #BF651F",
"t 	c #CD7425",
"u 	c #C57927",
"v 	c #64350D",
"w 	c #210B02",
"x 	c #4D2708",
"y 	c #96571B",
"z 	c #B15F1F",
"A 	c #C16A21",
"B 	c #C75E1E",
"C 	c #C36C21",
"D 	c #C47222",
"E 	c #D58329",
"F 	c #EF9A34",
"G 	c #B46B23",
"H 	c #331705",
"I 	c #090200",
"J 	c #050100",
"K 	c #552F0C",
"L 	c #7B4814",
"M 	c #B16B23",
"N 	c #BE6E24",
"O 	c #DE7927",
"P 	c #E77525",
"Q 	c #D77124",
"R 	c #D67927",
"S 	c #E29731",
"T 	c #F9A236",
"U 	c #E6912E",
"V 	c #552C0C",
"W 	c #220F02",
"X 	c #080100",
"Y 	c #774313",
"Z 	c #A1601E",
"` 	c #BD7526",
" .	c #D37D29",
"..	c #F1862C",
"+.	c #ED7E29",
"@.	c #D17726",
"#.	c #CF7F29",
"$.	c #EEAE3B",
"%.	c #FFBA40",
"&.	c #F7A033",
"*.	c #562E0C",
"=.	c #170901",
"-.	c #714011",
";.	c #A96721",
">.	c #C57828",
",.	c #D5832B",
"'.	c #ED862C",
").	c #E37928",
"!.	c #CC7826",
"~.	c #D18A2C",
"{.	c #EFB13C",
"].	c #FDBF42",
"^.	c #FBB13C",
"/.	c #683C0F",
"(.	c #231202",
"_.	c #120501",
":.	c #834714",
"<.	c #C27626",
"[.	c #E99D35",
"}.	c #E89C33",
"|.	c #EB9832",
"1.	c #E0872C",
"2.	c #D8892A",
"3.	c #DD972F",
"4.	c #F5BD41",
"5.	c #FBCC46",
"6.	c #FCC541",
"7.	c #A36C1F",
"8.	c #633F0F",
"9.	c #93591B",
"0.	c #EBA036",
"a.	c #F5A838",
"b.	c #EDB53B",
"c.	c #EBB53C",
"d.	c #E7B741",
"e.	c #FCBC3D",
"f.	c #FDCD44",
"g.	c #FBDF4D",
"h.	c #FFE850",
"i.	c #FFDE4B",
"j.	c #DE982F",
"k.	c #8E5D1B",
"l.	c #201302",
"m.	c #AE6E23",
"n.	c #F9B13A",
"o.	c #FAC942",
"p.	c #FEDE48",
"q.	c #FEE850",
"r.	c #FFF357",
"s.	c #FFD846",
"t.	c #FFEF56",
"u.	c #FFF156",
"v.	c #FDDC4A",
"w.	c #D48C2B",
"x.	c #885318",
"y.	c #140902",
"z.	c #110401",
"A.	c #D28C2E",
"B.	c #FFD045",
"C.	c #FFFE62",
"D.	c #FFFF69",
"E.	c #FFFF5F",
"F.	c #FFFA65",
"G.	c #FFFF6B",
"H.	c #FFFF73",
"I.	c #FBEE5D",
"J.	c #FDF151",
"K.	c #C17E28",
"L.	c #7D4C16",
"M.	c #190B02",
"N.	c #220B02",
"O.	c #EDAD38",
"P.	c #FFDB49",
"Q.	c #FFFF77",
"R.	c #FFFF65",
"S.	c #FFFF61",
"T.	c #FFFE6B",
"U.	c #FFFF6E",
"V.	c #FFFD77",
"W.	c #F6E55B",
"X.	c #F9EC52",
"Y.	c #BC7D28",
"Z.	c #693F12",
"`.	c #150902",
" +	c #442408",
".+	c #FFEA4E",
"++	c #FFFF68",
"@+	c #FFFF93",
"#+	c #FFFFAA",
"$+	c #FFFF7D",
"%+	c #FFFF6C",
"&+	c #FFFC83",
"*+	c #FFEC6D",
"=+	c #FEF758",
"-+	c #DB9C31",
";+	c #744D17",
">+	c #2C1C05",
",+	c #080301",
"'+	c #4F310E",
")+	c #F0C03F",
"!+	c #FFFFAC",
"~+	c #FFFFFE",
"{+	c #FFFFED",
"]+	c #FFFF67",
"^+	c #FFFE90",
"/+	c #FFF980",
"(+	c #FFFF81",
"_+	c #D7AE38",
":+	c #81611D",
"<+	c #261704",
"[+	c #040200",
"}+	c #221204",
"|+	c #DEA33B",
"1+	c #FFF35A",
"2+	c #FFFFB7",
"3+	c #FFFFFF",
"4+	c #FFFFFC",
"5+	c #FFFF96",
"6+	c #FFFF74",
"7+	c #FFFF80",
"8+	c #FFFF86",
"9+	c #FFFF85",
"0+	c #E5D84C",
"a+	c #513F12",
"b+	c #180F03",
"c+	c #070500",
"d+	c #B6872D",
"e+	c #FBEB5B",
"f+	c #FFFF9D",
"g+	c #FFFFEC",
"h+	c #FFFFC3",
"i+	c #FFFFBA",
"j+	c #FFFF89",
"k+	c #FFFF7A",
"l+	c #FFFE95",
"m+	c #FFFE9D",
"n+	c #FFFF9F",
"o+	c #EFE153",
"p+	c #665119",
"q+	c #190F03",
"r+	c #241D06",
"s+	c #F7D348",
"t+	c #FFFE76",
"u+	c #FFFFB4",
"v+	c #FFFFC4",
"w+	c #FFFF98",
"x+	c #FFFF88",
"y+	c #FFFE80",
"z+	c #FFFE7D",
"A+	c #FFFFA1",
"B+	c #FFFF9E",
"C+	c #D0BA3A",
"D+	c #5C4D15",
"E+	c #0A0701",
"F+	c #201904",
"G+	c #F1CD47",
"H+	c #FFFC6B",
"I+	c #FFFFA9",
"J+	c #FFFF95",
"K+	c #FFFF8F",
"L+	c #FFFB73",
"M+	c #FFF774",
"N+	c #FFFFB0",
"O+	c #B7A436",
"P+	c #483E0F",
"Q+	c #221B05",
"R+	c #947125",
"S+	c #ECCA54",
"T+	c #FFFF8C",
"U+	c #FFFFA4",
"V+	c #FFFF9C",
"W+	c #E2DD83",
"X+	c #EBE87A",
"Y+	c #FFFFA7",
"Z+	c #FAF573",
"`+	c #5B5725",
" @	c #090601",
".@	c #030300",
"+@	c #252006",
"@@	c #4E4314",
"#@	c #978A48",
"$@	c #EAE877",
"%@	c #F6F682",
"&@	c #FFFF87",
"*@	c #CCCC6B",
"=@	c #C5C162",
"-@	c #A9A24F",
";@	c #AF9E49",
">@	c #3C3311",
",@	c #060602",
"'@	c #040101",
")@	c #382D11",
"!@	c #9D8C3F",
"~@	c #332B0E",
"{@	c #838139",
"]@	c #343612",
"^@	c #2B2B0C",
"/@	c #66622F",
"(@	c #3B3818",
"_@	c #020200",
":@	c #0D0602",
"<@	c #060601",
"[@	c #040401",
"                                                                      ",
"                                                                      ",
"                                                                      ",
"                                                                      ",
"                                                                      ",
"                                                                      ",
"                                                                      ",
"                              . +       @                             ",
"                              # $ % & .                               ",
"                        %   * = - ; > & .                             ",
"                          , ' ) ! ~ { ] ^     @                       ",
"                        / ( _ : < [ } | 1 2 % @                       ",
"                        / 3 4 5 6 7 8 9 0 a / b                       ",
"                        c d e f g h i j k l / &                       ",
"                      ' m n o p q r s t u v ; / @                     ",
"                    @ w x y z A B C D E F G H I @                     ",
"                    J K L M N O P Q R S T U V W                       ",
"                    X Y Z `  ...+.@.#.$.%.&.*.=.@                     ",
"                    $ -.;.>.,.'.).!.~.{.].^./.(.+                     ",
"                    _.:.<.[.}.|.1.2.3.4.5.6.7.8./                     ",
"                    , 9.0.a.b.c.d.e.f.g.h.i.j.k.l.                    ",
"                    , m.n.o.p.q.r.s.i.t.u.v.w.x.y.                    ",
"                    z.A.B.C.D.E.C.F.G.H.I.J.K.L.M.                    ",
"                  @ N.O.P.Q.Q.R.S.T.U.V.W.X.Y.Z.`.                    ",
"                     +.+++@+#+$+G.E.%+&+*+=+-+;+>+,+                  ",
"                  + '+)+U.!+~+{+H.%+]+^+/+(+_+:+<+[+                  ",
"                    }+|+1+2+3+4+5+6+++7+8+9+0+a+b+&                   ",
"                    c+d+e+f+g+h+i+j+k+l+m+n+o+p+q+@                   ",
"                    r+s+t+u+v+w+x+y+z+x+A+B+C+D+E+                    ",
"                    F+G+H+f+I+J+K+L+M+K+N+!+O+P+                      ",
"                    Q+R+S+J+T+U+V+W+X+Y+f+Z+`+ @                      ",
"                    .@+@@@#@$@%@&@*@=@-@;@>@,@                        ",
"                        '@)@!@~@{@]@^@/@(@_@                          ",
"                            :@&   <@[@[@+                             ",
"                                                                      "};
