/* XPM */
static char const * const fire12_xpm[] = {
"35 35 342 2",
"  	c #000000",
". 	c #010000",
"+ 	c #070100",
"@ 	c #050200",
"# 	c #0D0201",
"$ 	c #030200",
"% 	c #020100",
"& 	c #030000",
"* 	c #0C0200",
"= 	c #0E0201",
"- 	c #010100",
"; 	c #050100",
"> 	c #0A0300",
", 	c #1E0701",
"' 	c #1F0601",
") 	c #1F0702",
"! 	c #190601",
"~ 	c #210802",
"{ 	c #040100",
"] 	c #0F0300",
"^ 	c #361004",
"/ 	c #3E1504",
"( 	c #361103",
"_ 	c #341003",
": 	c #371103",
"< 	c #080100",
"[ 	c #060100",
"} 	c #150701",
"| 	c #020000",
"1 	c #200B02",
"2 	c #421605",
"3 	c #4E1907",
"4 	c #5A2308",
"5 	c #68290A",
"6 	c #612309",
"7 	c #290A02",
"8 	c #070200",
"9 	c #240D03",
"0 	c #030100",
"a 	c #0A0101",
"b 	c #341303",
"c 	c #561B07",
"d 	c #863712",
"e 	c #7F2F0E",
"f 	c #8B3811",
"g 	c #973C13",
"h 	c #5F290C",
"i 	c #260F03",
"j 	c #1F0B03",
"k 	c #090301",
"l 	c #130301",
"m 	c #431905",
"n 	c #601D08",
"o 	c #9A4016",
"p 	c #953912",
"q 	c #A24315",
"r 	c #AB4A18",
"s 	c #823A12",
"t 	c #52260A",
"u 	c #1B0902",
"v 	c #130201",
"w 	c #230802",
"x 	c #5B2209",
"y 	c #852F10",
"z 	c #AE511C",
"A 	c #B2581C",
"B 	c #B0541B",
"C 	c #B75B1C",
"D 	c #A64C18",
"E 	c #6D2F0E",
"F 	c #351305",
"G 	c #0F0301",
"H 	c #2A0C02",
"I 	c #6C310C",
"J 	c #973E14",
"K 	c #B45D20",
"L 	c #B56320",
"M 	c #C36F24",
"N 	c #C97325",
"O 	c #B75F1E",
"P 	c #A4541A",
"Q 	c #71310F",
"R 	c #200902",
"S 	c #220901",
"T 	c #3D1A05",
"U 	c #8A4715",
"V 	c #B66321",
"W 	c #C36B23",
"X 	c #BE6B22",
"Y 	c #D17826",
"Z 	c #D07726",
"` 	c #C16A22",
" .	c #BA601E",
"..	c #9E4E18",
"+.	c #612F0D",
"@.	c #3D1E07",
"#.	c #2C0E02",
"$.	c #612D0B",
"%.	c #C17725",
"&.	c #D97C28",
"*.	c #D97928",
"=.	c #C97725",
"-.	c #D57F28",
";.	c #CE7B26",
">.	c #C46B22",
",.	c #C16420",
"'.	c #BD6220",
").	c #804315",
"!.	c #4F280B",
"~.	c #050000",
"{.	c #3A1603",
"].	c #65300C",
"^.	c #F39B33",
"/.	c #FB9B32",
"(.	c #F4902F",
"_.	c #E88B2C",
":.	c #D38028",
"<.	c #CD7E28",
"[.	c #C77224",
"}.	c #C36C24",
"|.	c #BE5F1F",
"1.	c #783F13",
"2.	c #48280A",
"3.	c #0E0501",
"4.	c #4B2006",
"5.	c #874B14",
"6.	c #F9A736",
"7.	c #FA9F33",
"8.	c #FDA334",
"9.	c #F89C31",
"0.	c #DD892B",
"a.	c #E28A2B",
"b.	c #CE7A27",
"c.	c #C36E25",
"d.	c #BF6220",
"e.	c #784014",
"f.	c #522B0B",
"g.	c #120701",
"h.	c #0E0601",
"i.	c #774212",
"j.	c #BC7423",
"k.	c #FFBE3E",
"l.	c #EFAA37",
"m.	c #F5B53A",
"n.	c #FBAE37",
"o.	c #EC952F",
"p.	c #FD9D31",
"q.	c #F29931",
"r.	c #E5912F",
"s.	c #D46F24",
"t.	c #9F531A",
"u.	c #7D4113",
"v.	c #251103",
"w.	c #2D1904",
"x.	c #B27524",
"y.	c #F7B137",
"z.	c #FEC943",
"A.	c #EEB33B",
"B.	c #EBBE3D",
"C.	c #F5C740",
"D.	c #FCAD37",
"E.	c #FBA334",
"F.	c #FABD3F",
"G.	c #ECBE45",
"H.	c #E3A336",
"I.	c #CC7223",
"J.	c #944F18",
"K.	c #230E02",
"L.	c #2C1A04",
"M.	c #DEA936",
"N.	c #FFD945",
"O.	c #FCD849",
"P.	c #EED146",
"Q.	c #E8C146",
"R.	c #F8E14C",
"S.	c #EBC540",
"T.	c #F3C945",
"U.	c #FBE75D",
"V.	c #FFF367",
"W.	c #FED84A",
"X.	c #864815",
"Y.	c #170701",
"Z.	c #271402",
"`.	c #D2A134",
" +	c #FEE049",
".+	c #FEDC4A",
"++	c #F3C744",
"@+	c #EDB842",
"#+	c #F2B63E",
"$+	c #F7CD4B",
"%+	c #FEE166",
"&+	c #FFFD6B",
"*+	c #FFF55F",
"=+	c #EA8D2E",
"-+	c #A25418",
";+	c #230B02",
">+	c #240F01",
",+	c #D0A536",
"'+	c #FFEF51",
")+	c #FFEF53",
"!+	c #F7CF4C",
"~+	c #DFB143",
"{+	c #E6AD3F",
"]+	c #F3C84B",
"^+	c #FACE54",
"/+	c #FEE268",
"(+	c #FFFE6E",
"_+	c #FEC341",
":+	c #C97424",
"<+	c #2D1203",
"[+	c #190C01",
"}+	c #8D691E",
"|+	c #F4DE4A",
"1+	c #FFF866",
"2+	c #F5D259",
"3+	c #EDBF55",
"4+	c #E5BC54",
"5+	c #EDC861",
"6+	c #FED96B",
"7+	c #FFF990",
"8+	c #FFFF7D",
"9+	c #FFF86A",
"0+	c #FFED50",
"a+	c #F8BA3A",
"b+	c #2E1803",
"c+	c #180A01",
"d+	c #BA8C2C",
"e+	c #FBF356",
"f+	c #FFFEA8",
"g+	c #FFFABD",
"h+	c #FFF9B6",
"i+	c #FFFDA1",
"j+	c #FFF898",
"k+	c #FFFFB5",
"l+	c #FFFFB6",
"m+	c #FFFF8C",
"n+	c #FEF152",
"o+	c #ECC13E",
"p+	c #1F1202",
"q+	c #321B04",
"r+	c #EEDD4B",
"s+	c #FFFF66",
"t+	c #FFFFF7",
"u+	c #FFFFFF",
"v+	c #FFFFFA",
"w+	c #FFFFB3",
"x+	c #FFFFBD",
"y+	c #FFFFD0",
"z+	c #FFFFED",
"A+	c #FFFF9E",
"B+	c #FFFF8A",
"C+	c #CBA634",
"D+	c #A57F25",
"E+	c #42340D",
"F+	c #040401",
"G+	c #43280A",
"H+	c #FEF96E",
"I+	c #FFFF97",
"J+	c #FFFFEA",
"K+	c #FFFFD8",
"L+	c #FFFFEB",
"M+	c #FFFFF2",
"N+	c #FFFFFE",
"O+	c #FFFFC5",
"P+	c #FFFF8E",
"Q+	c #F2E24C",
"R+	c #BE9F32",
"S+	c #4A4311",
"T+	c #100E02",
"U+	c #0A0501",
"V+	c #9E7224",
"W+	c #FFFF6D",
"X+	c #FFFF80",
"Y+	c #FFFFE1",
"Z+	c #FFFFF4",
"`+	c #FFFFEC",
" @	c #FFFFD7",
".@	c #FDFB91",
"+@	c #FAFA74",
"@@	c #B8A133",
"#@	c #867824",
"$@	c #3F370E",
"%@	c #020200",
"&@	c #060200",
"*@	c #77581C",
"=@	c #F8DD4E",
"-@	c #FFFD6E",
";@	c #FFFFCE",
">@	c #FFFFE9",
",@	c #FFFFCD",
"'@	c #FFFFF5",
")@	c #FFFFDF",
"!@	c #FCFA8E",
"~@	c #FBFB82",
"{@	c #958A2B",
"]@	c #746A1F",
"^@	c #352E0B",
"/@	c #080601",
"(@	c #080301",
"_@	c #2D1C05",
":@	c #9B7525",
"<@	c #F5E05F",
"[@	c #FFFF84",
"}@	c #FFFFB9",
"|@	c #FFFFAA",
"1@	c #FFFFB8",
"2@	c #FEFDA4",
"3@	c #FEFEA2",
"4@	c #7D7523",
"5@	c #5D5618",
"6@	c #131003",
"7@	c #1F1403",
"8@	c #7F6523",
"9@	c #FFFB84",
"0@	c #FFFFC2",
"a@	c #FFFF85",
"b@	c #F6F481",
"c@	c #BFAA47",
"d@	c #A19444",
"e@	c #DED55E",
"f@	c #FFFF82",
"g@	c #C2B840",
"h@	c #514B15",
"i@	c #262407",
"j@	c #594316",
"k@	c #A88532",
"l@	c #FCE853",
"m@	c #F7EF79",
"n@	c #AD9539",
"o@	c #957B2C",
"p@	c #34290E",
"q@	c #4E4735",
"r@	c #1D1A0C",
"s@	c #3A3511",
"t@	c #251E06",
"u@	c #191403",
"v@	c #060401",
"w@	c #0E0B02",
"x@	c #312808",
"y@	c #211D06",
"z@	c #191303",
"A@	c #060601",
"                                                                      ",
"                                                                      ",
"                                                                      ",
"                                                                      ",
"                                                                      ",
"                              . + @                                   ",
"                              . # $ %                                 ",
"                            & * = @ .                                 ",
"                      - ; > , ' ) ! ~ . & {                           ",
"                      ; ; ] ^ / ( _ : < [ } ;                         ",
"                    | ; ; 1 2 3 4 5 6 7 8 9 0                         ",
"                    a [ < b c d e f g h i j {                         ",
"                    ; k l m n o p q r s t u [                         ",
"                      v w x y z A B C D E F G |                       ",
"                      v H I J K L M N O P Q R {                       ",
"                      S T U V W X Y Z `  ...+.@..                     ",
"                    | #.$.%.&.*.=.-.;.>.,.'.).!.@                     ",
"                    ~.{.].^./.(._.:.<.[.}.|.1.2.3.                    ",
"                    { 4.5.6.7.8.9.0.a.b.c.d.e.f.g.                    ",
"                  . h.i.j.k.l.m.n.o.p.q.r.s.t.u.v.                    ",
"                    w.x.y.z.A.B.C.D.E.F.G.H.I.J.K.                    ",
"                    L.M.N.O.P.Q.R.S.T.U.V.W.o.X.Y.                    ",
"                    Z.`. +.+++@+#+++$+%+&+*+=+-+;+                    ",
"                    >+,+'+)+!+~+{+]+^+/+(+*+_+:+<+                    ",
"                    [+}+|+1+2+3+4+5+6+7+8+9+0+a+b+                    ",
"                    c+d+e+f+g+h+i+j+k+l+k+m+n+o+p+.                   ",
"                    q+r+s+t+u+v+w+x+y+z+A+B+C+D+E+F+                  ",
"                  0 G+H+I+J+u+u+K+L+M+N+O+P+Q+R+S+T+                  ",
"                  U+V+W+X+z+u+u+Y+Z+`+ @.@+@@@#@$@%@                  ",
"                  &@*@=@-@;@N+>@,@t+'@)@!@~@{@]@^@/@                  ",
"                . (@_@:@<@'@K+I+[@}@|@1@2@3@4@5@6@                    ",
"                  % 7@8@9@0@,@a@b@c@d@e@f@g@h@i@                      ",
"                    - j@k@l@m@n@o@p@q@r@s@t@u@/@                      ",
"                      v@w@x@y@z@  . -     A@/@                        ",
"                                                                      "};
