/* XPM */
static char const * const fire9_xpm[] = {
"35 35 339 2",
"  	c #000000",
". 	c #010000",
"+ 	c #020100",
"@ 	c #010100",
"# 	c #040100",
"$ 	c #050201",
"% 	c #050100",
"& 	c #060200",
"* 	c #030100",
"= 	c #110801",
"- 	c #070100",
"; 	c #110501",
"> 	c #160501",
", 	c #0F0301",
"' 	c #090200",
") 	c #0A0201",
"! 	c #271104",
"~ 	c #130501",
"{ 	c #2A1004",
"] 	c #190602",
"^ 	c #280D03",
"/ 	c #250D03",
"( 	c #130601",
"_ 	c #1E0A02",
": 	c #2A1003",
"< 	c #070200",
"[ 	c #110301",
"} 	c #180702",
"| 	c #431906",
"1 	c #341204",
"2 	c #2C1003",
"3 	c #3E1806",
"4 	c #431B07",
"5 	c #4A1E08",
"6 	c #4B2008",
"7 	c #542A0A",
"8 	c #2B1203",
"9 	c #421D08",
"0 	c #3C1606",
"a 	c #361005",
"b 	c #4C1B08",
"c 	c #3D1505",
"d 	c #3D1706",
"e 	c #471A07",
"f 	c #481D08",
"g 	c #793811",
"h 	c #833D14",
"i 	c #7D3B12",
"j 	c #381A05",
"k 	c #140401",
"l 	c #56270B",
"m 	c #53210A",
"n 	c #481E08",
"o 	c #56210A",
"p 	c #4C1C07",
"q 	c #441B07",
"r 	c #5E270B",
"s 	c #5A270B",
"t 	c #864014",
"u 	c #914315",
"v 	c #803B12",
"w 	c #3A1705",
"x 	c #54250B",
"y 	c #642E0E",
"z 	c #7A3A12",
"A 	c #7F3B12",
"B 	c #692D0C",
"C 	c #682D0C",
"D 	c #914116",
"E 	c #944316",
"F 	c #A04B18",
"G 	c #9D4716",
"H 	c #843C11",
"I 	c #451E07",
"J 	c #200B02",
"K 	c #0E0301",
"L 	c #6B3711",
"M 	c #804315",
"N 	c #944315",
"O 	c #954415",
"P 	c #994617",
"Q 	c #964214",
"R 	c #A54B19",
"S 	c #A64C19",
"T 	c #AC521A",
"U 	c #A54D18",
"V 	c #9E4B19",
"W 	c #4A2007",
"X 	c #1D0A02",
"Y 	c #1D0C02",
"Z 	c #834917",
"` 	c #994E1A",
" .	c #A54A17",
"..	c #AC511A",
"+.	c #B2561B",
"@.	c #B9531A",
"#.	c #B8541A",
"$.	c #B9541B",
"%.	c #B85F1E",
"&.	c #AB541C",
"*.	c #A9571D",
"=.	c #783911",
"-.	c #130702",
";.	c #7A4214",
">.	c #BC6220",
",.	c #C3591C",
"'.	c #B9541A",
").	c #C76720",
"!.	c #C66520",
"~.	c #BF5E1E",
"{.	c #B8591C",
"].	c #B85F1F",
"^.	c #B15C1E",
"/.	c #AF5C1E",
"(.	c #8F4716",
"_.	c #562C0A",
":.	c #150802",
"<.	c #B1621F",
"[.	c #E87E29",
"}.	c #E77526",
"|.	c #E57927",
"1.	c #E47F29",
"2.	c #D87927",
"3.	c #CE7425",
"4.	c #C86E23",
"5.	c #BF6922",
"6.	c #B66220",
"7.	c #AE5C1E",
"8.	c #9C501B",
"9.	c #6C360E",
"0.	c #040200",
"a.	c #1E0C02",
"b.	c #D47325",
"c.	c #F08229",
"d.	c #EC8A2D",
"e.	c #F0912F",
"f.	c #F4922F",
"g.	c #EE902F",
"h.	c #DD892C",
"i.	c #DE852B",
"j.	c #D37F29",
"k.	c #C37225",
"l.	c #9A501A",
"m.	c #6D3810",
"n.	c #0C0501",
"o.	c #552D0B",
"p.	c #EB8129",
"q.	c #F08C2D",
"r.	c #E9AD3A",
"s.	c #EABB3E",
"t.	c #F5C142",
"u.	c #F6BE3E",
"v.	c #E6AB37",
"w.	c #E59F34",
"x.	c #DA8E2E",
"y.	c #CD842B",
"z.	c #D4832B",
"A.	c #C16D24",
"B.	c #7E4414",
"C.	c #221203",
"D.	c #734012",
"E.	c #F58F2D",
"F.	c #F6AC3A",
"G.	c #EDC945",
"H.	c #EEDB4B",
"I.	c #F2DF4D",
"J.	c #F4DD4A",
"K.	c #E7C842",
"L.	c #E4C642",
"M.	c #D7AD38",
"N.	c #CC9831",
"O.	c #D59231",
"P.	c #CD7628",
"Q.	c #864717",
"R.	c #2C1A04",
"S.	c #B26A1E",
"T.	c #FFB13A",
"U.	c #FEC242",
"V.	c #FEF657",
"W.	c #F8ED64",
"X.	c #F4E55F",
"Y.	c #F3DD5F",
"Z.	c #EAD257",
"`.	c #E4C956",
" +	c #D8B340",
".+	c #CC9C35",
"++	c #D8A538",
"@+	c #CD832B",
"#+	c #754414",
"$+	c #4A2D09",
"%+	c #804D14",
"&+	c #F9A738",
"*+	c #FFD049",
"=+	c #FFF75C",
"-+	c #FDF475",
";+	c #F7EB72",
">+	c #F1DE60",
",+	c #E6CB48",
"'+	c #E0C245",
")+	c #E1C240",
"!+	c #DAB843",
"~+	c #E2C84D",
"{+	c #EAA93C",
"]+	c #A36923",
"^+	c #110702",
"/+	c #3E2508",
"(+	c #704411",
"_+	c #F7AB39",
":+	c #FFE150",
"<+	c #FFFE6A",
"[+	c #FEF86A",
"}+	c #FAF268",
"|+	c #F3E45E",
"1+	c #E4C846",
"2+	c #E0B540",
"3+	c #E2C042",
"4+	c #E3C143",
"5+	c #E6D150",
"6+	c #F3BD44",
"7+	c #C3842C",
"8+	c #160B02",
"9+	c #190D02",
"0+	c #693E0F",
"a+	c #FBC041",
"b+	c #FFF55D",
"c+	c #FFFE69",
"d+	c #FFDE5F",
"e+	c #FEFA67",
"f+	c #F8F265",
"g+	c #E1C44A",
"h+	c #E0C04C",
"i+	c #E2C76F",
"j+	c #F3E786",
"k+	c #FDFC73",
"l+	c #FFE554",
"m+	c #C1892E",
"n+	c #090401",
"o+	c #241503",
"p+	c #F7E459",
"q+	c #FFFF6C",
"r+	c #FFFD66",
"s+	c #FFF96E",
"t+	c #FEFE7A",
"u+	c #F9F38B",
"v+	c #EAD569",
"w+	c #E5CB60",
"x+	c #E5CB96",
"y+	c #F5EB77",
"z+	c #FFFE81",
"A+	c #E6C445",
"B+	c #7F5C1B",
"C+	c #0E0801",
"D+	c #997729",
"E+	c #E9BE48",
"F+	c #FFFB6B",
"G+	c #FFFF78",
"H+	c #FFFE93",
"I+	c #FEFCB7",
"J+	c #FAF5D6",
"K+	c #F9F4B6",
"L+	c #FAF686",
"M+	c #FDFB78",
"N+	c #FFFE82",
"O+	c #BFA239",
"P+	c #3F2F0B",
"Q+	c #060201",
"R+	c #644E1C",
"S+	c #F5F372",
"T+	c #FFFF9C",
"U+	c #FFFFB7",
"V+	c #FFFFB5",
"W+	c #FFFFED",
"X+	c #FFFFF0",
"Y+	c #FFFFBD",
"Z+	c #FFFF98",
"`+	c #FFFB84",
" @	c #F8EC63",
".@	c #79611C",
"+@	c #191002",
"@@	c #140C02",
"#@	c #B3A442",
"$@	c #FBFB78",
"%@	c #FFFFCE",
"&@	c #FFFFF9",
"*@	c #FFFFF8",
"=@	c #FFFFF1",
"-@	c #FFFFA7",
";@	c #FFFF85",
">@	c #FFFF70",
",@	c #FFFFA1",
"'@	c #FEF06C",
")@	c #4D3E11",
"!@	c #060300",
"~@	c #0B0601",
"{@	c #A0913A",
"]@	c #F9F778",
"^@	c #FFFFDA",
"/@	c #FFFFFF",
"(@	c #FFFFA9",
"_@	c #FFFD6A",
":@	c #FFFFAA",
"<@	c #F8EB7C",
"[@	c #483710",
"}@	c #090601",
"|@	c #5B4B1B",
"1@	c #A6963E",
"2@	c #FFFFAD",
"3@	c #FFFFD2",
"4@	c #FFFD93",
"5@	c #FEF57C",
"6@	c #F8E66A",
"7@	c #EBE862",
"8@	c #FFFF75",
"9@	c #F5E67A",
"0@	c #48370F",
"a@	c #271B06",
"b@	c #261D07",
"c@	c #64541E",
"d@	c #958335",
"e@	c #C0A44D",
"f@	c #E0DF72",
"g@	c #F6E66F",
"h@	c #FAEF79",
"i@	c #9A893F",
"j@	c #917B3E",
"k@	c #918655",
"l@	c #352F1C",
"m@	c #070501",
"n@	c #050300",
"o@	c #231C06",
"p@	c #292207",
"q@	c #120B01",
"r@	c #1C1404",
"s@	c #352B12",
"t@	c #5B5433",
"u@	c #4C441D",
"v@	c #3D3513",
"w@	c #1C1303",
"x@	c #201D10",
"                                                                      ",
"                                                                      ",
"                                                                      ",
"                                                                      ",
"                            .       .                                 ",
"                                  . + @ + #                           ",
"                                  + + + # $                           ",
"                          . . . # % % & * *                           ",
"                        . = * - ; > , ' ) % .                         ",
"                        + ! ~ { ] ^ / ( _ : <                         ",
"                      [ } / | 1 2 3 4 5 6 7 8 *                       ",
"                      9 0 a b c d e f g h i j k                       ",
"                      l m n o p q r s t u v w k                       ",
"                    % x y z A B C D E F G H I J                       ",
"                    K L M N O P Q R S T U V W X                       ",
"                    Y Z `  ...+.@.#.$.%.&.*.=.8                       ",
"                    -.;.>.,.'.).!.~.{.].^./.(._..                     ",
"                    :.<.[.}.|.1.2.3.4.5.6.7.8.9.%                     ",
"                  0.a.b.c.d.e.f.g.h.i.j.k./.l.m.*                     ",
"                  n.o.p.q.r.s.t.u.v.w.x.y.z.A.B.%                     ",
"                  C.D.E.F.G.H.I.J.K.L.M.N.O.P.Q.+                     ",
"                  R.S.T.U.V.W.X.Y.Z.`. +.+++@+#+%                     ",
"                  $+%+&+*+=+-+;+>+,+'+)+!+~+{+]+^+                    ",
"                  /+(+_+:+<+[+}+|+1+2+3+4+5+6+7+8+                    ",
"                  9+0+a+b+c+d+e+f+g+h+i+j+k+l+m+n+                    ",
"                  0.o+p+q+r+s+t+u+v+w+x+y+z+A+B+                      ",
"                    C+D+E+F+G+H+I+J+K+L+M+N+O+P+                      ",
"                    Q+R+S+T+U+V+W+X+Y+Z+`+ @.@+@                      ",
"                    @@#@$@%@&@*@=@-@;@>@,@'@)@!@                      ",
"                    ~@{@]@^@/@*@^@(@G+_@:@<@[@}@                      ",
"                    @ |@1@2@3@,@4@5@6@7@8@9@0@a@                      ",
"                      b@c@d@e@f@g@h@i@j@k@l@m@n@                      ",
"                      o@p@q@r@s@t@u@v@w@x@                            ",
"                                                                      ",
"                                                                      "};
