/* XPM */
static char const * const fire2_xpm[] = {
"35 35 326 2",
"  	c #000000",
". 	c #010000",
"+ 	c #020100",
"@ 	c #020000",
"# 	c #030100",
"$ 	c #080100",
"% 	c #0E0401",
"& 	c #0E0601",
"* 	c #0A0301",
"= 	c #080200",
"- 	c #1E0702",
"; 	c #2D1304",
"> 	c #371E07",
", 	c #331806",
"' 	c #120501",
") 	c #070200",
"! 	c #0F0301",
"~ 	c #240A02",
"{ 	c #3E2108",
"] 	c #2F1906",
"^ 	c #412008",
"/ 	c #442209",
"( 	c #100601",
"_ 	c #010100",
": 	c #080201",
"< 	c #180501",
"[ 	c #341304",
"} 	c #5C2D0D",
"| 	c #50260B",
"1 	c #592C0C",
"2 	c #5B2E0D",
"3 	c #3D1F07",
"4 	c #1B0802",
"5 	c #180602",
"6 	c #290D03",
"7 	c #60320E",
"8 	c #6E3710",
"9 	c #652F0E",
"0 	c #642F0D",
"a 	c #703A12",
"b 	c #4D280A",
"c 	c #0D0401",
"d 	c #0D0301",
"e 	c #3C1906",
"f 	c #411C06",
"g 	c #461A07",
"h 	c #7A4214",
"i 	c #68360F",
"j 	c #6A340F",
"k 	c #894515",
"l 	c #793F15",
"m 	c #522A0B",
"n 	c #0F0401",
"o 	c #140602",
"p 	c #2B1304",
"q 	c #371806",
"r 	c #57270A",
"s 	c #753F13",
"t 	c #753E12",
"u 	c #753B12",
"v 	c #924D18",
"w 	c #8A4617",
"x 	c #62320E",
"y 	c #120601",
"z 	c #170702",
"A 	c #291104",
"B 	c #51270A",
"C 	c #824A16",
"D 	c #885118",
"E 	c #9E5B1B",
"F 	c #A45C1C",
"G 	c #AA5F1C",
"H 	c #A2561B",
"I 	c #673410",
"J 	c #040100",
"K 	c #0B0301",
"L 	c #240D03",
"M 	c #8A4C18",
"N 	c #A45D1C",
"O 	c #9D5F1C",
"P 	c #9E631D",
"Q 	c #AA6E22",
"R 	c #AE6D22",
"S 	c #AB621D",
"T 	c #AA601D",
"U 	c #713B13",
"V 	c #050200",
"W 	c #170502",
"X 	c #492108",
"Y 	c #98581B",
"Z 	c #AE6A20",
"` 	c #AE7023",
" .	c #A1621D",
"..	c #AE7122",
"+.	c #B07123",
"@.	c #B36D22",
"#.	c #AD6620",
"$.	c #723E12",
"%.	c #0B0401",
"&.	c #120401",
"*.	c #52250A",
"=.	c #A76220",
"-.	c #C47B26",
";.	c #B77A26",
">.	c #B16E22",
",.	c #B37423",
"'.	c #B37323",
").	c #B16F23",
"!.	c #8D521B",
"~.	c #412508",
"{.	c #0F0602",
"].	c #140601",
"^.	c #512C0D",
"/.	c #A4611F",
"(.	c #B47525",
"_.	c #C17E27",
":.	c #BC7B26",
"<.	c #B67925",
"[.	c #B67725",
"}.	c #9B6420",
"|.	c #643E14",
"1.	c #321E07",
"2.	c #1C0F03",
"3.	c #52300D",
"4.	c #9E611F",
"5.	c #B97725",
"6.	c #C78227",
"7.	c #C07E26",
"8.	c #AD6D22",
"9.	c #82571A",
"0.	c #674617",
"a.	c #311E07",
"b.	c #0C0501",
"c.	c #36270B",
"d.	c #7B5D1D",
"e.	c #C78D2E",
"f.	c #E3982F",
"g.	c #D48C2A",
"h.	c #C58227",
"i.	c #C68127",
"j.	c #B77724",
"k.	c #9D7627",
"l.	c #533C12",
"m.	c #41280A",
"n.	c #241304",
"o.	c #080301",
"p.	c #7C5E1E",
"q.	c #B0882E",
"r.	c #E2AB38",
"s.	c #E9A334",
"t.	c #D9912C",
"u.	c #C67F27",
"v.	c #CC8329",
"w.	c #DC9635",
"x.	c #E6AA38",
"y.	c #D39733",
"z.	c #945B1D",
"A.	c #402508",
"B.	c #170C02",
"C.	c #0D0501",
"D.	c #C7A038",
"E.	c #DCA536",
"F.	c #F8D344",
"G.	c #F0BD3D",
"H.	c #D49B30",
"I.	c #D4942E",
"J.	c #FBD34E",
"K.	c #FEF45E",
"L.	c #FFFF5D",
"M.	c #F9DF4E",
"N.	c #E39F36",
"O.	c #51280A",
"P.	c #190902",
"Q.	c #1A0A02",
"R.	c #A97823",
"S.	c #E3B339",
"T.	c #FDFD59",
"U.	c #FCE84E",
"V.	c #F9DC47",
"W.	c #FEFE66",
"X.	c #FEFF83",
"Y.	c #FEFF86",
"Z.	c #FFFF75",
"`.	c #FAE15A",
" +	c #F6CE46",
".+	c #C17926",
"++	c #8A5B1C",
"@+	c #140D02",
"#+	c #130601",
"$+	c #9B6F21",
"%+	c #D8B23C",
"&+	c #FDFC58",
"*+	c #FAF353",
"=+	c #FBF254",
"-+	c #FEFF7A",
";+	c #FEFF82",
">+	c #FDFF91",
",+	c #FFFE77",
"'+	c #F2D351",
")+	c #FCDB4C",
"!+	c #D68C2C",
"~+	c #A77222",
"{+	c #1E1503",
"]+	c #0A0300",
"^+	c #AA842B",
"/+	c #D4AE3C",
"(+	c #F9F659",
"_+	c #FCFB58",
":+	c #FBFA69",
"<+	c #FDFF90",
"[+	c #FDFF9E",
"}+	c #FFFF72",
"|+	c #FFED54",
"1+	c #FFF357",
"2+	c #FFD846",
"3+	c #BB872B",
"4+	c #0D0701",
"5+	c #2C1B05",
"6+	c #D0A135",
"7+	c #F1C645",
"8+	c #F9E453",
"9+	c #FEFE63",
"0+	c #FEFD94",
"a+	c #FDFFA3",
"b+	c #FEFFB1",
"c+	c #FFFF9B",
"d+	c #FFFF6C",
"e+	c #FFFF74",
"f+	c #FFFF63",
"g+	c #D0A735",
"h+	c #624612",
"i+	c #110B02",
"j+	c #080400",
"k+	c #916B1F",
"l+	c #FBCA42",
"m+	c #FED448",
"n+	c #FDE54E",
"o+	c #FFFF6A",
"p+	c #FFFE96",
"q+	c #FDFEA9",
"r+	c #FEFFB0",
"s+	c #FFFFA1",
"t+	c #FFFE63",
"u+	c #FFFE80",
"v+	c #FEFC7E",
"w+	c #564113",
"x+	c #422E0A",
"y+	c #0F0901",
"z+	c #998027",
"A+	c #FFFE5D",
"B+	c #FFFF7F",
"C+	c #FFFF92",
"D+	c #FFFF7C",
"E+	c #FFFF84",
"F+	c #FFFE97",
"G+	c #FFFF95",
"H+	c #FFFF91",
"I+	c #FBEF8D",
"J+	c #FEFB7A",
"K+	c #FBEF76",
"L+	c #594A1C",
"M+	c #3C2A09",
"N+	c #020200",
"O+	c #040200",
"P+	c #857323",
"Q+	c #FEF552",
"R+	c #FFFFBA",
"S+	c #FFFF98",
"T+	c #FFFF86",
"U+	c #FEFC83",
"V+	c #FEF888",
"W+	c #FFFF85",
"X+	c #6E652C",
"Y+	c #2C260A",
"Z+	c #524913",
"`+	c #C8AE3B",
" @	c #FFFE8D",
".@	c #FFFFBB",
"+@	c #FFFFA9",
"@@	c #FFFF88",
"#@	c #FFFE72",
"$@	c #FEF66E",
"%@	c #FFFFBD",
"&@	c #C1B861",
"*@	c #3E3917",
"=@	c #3C350D",
"-@	c #554814",
";@	c #B1A140",
">@	c #FFFF9D",
",@	c #FFFFA6",
"'@	c #FFFF99",
")@	c #FDFB61",
"!@	c #FDFA63",
"~@	c #FFFF96",
"{@	c #FDFB87",
"]@	c #FFFFAD",
"^@	c #797130",
"/@	c #47431C",
"(@	c #1C1704",
"_@	c #362F0B",
":@	c #665C22",
"<@	c #D1C456",
"[@	c #F4E967",
"}@	c #FFFFCC",
"|@	c #FFFF7E",
"1@	c #FFFF93",
"2@	c #FDFA7A",
"3@	c #FFFEAA",
"4@	c #CBC96E",
"5@	c #9F9C58",
"6@	c #4B4B20",
"7@	c #343616",
"8@	c #0A0701",
"9@	c #130B02",
"0@	c #1F1404",
"a@	c #C4AE6A",
"b@	c #A7953E",
"c@	c #7E7336",
"d@	c #5E5F31",
"e@	c #88894B",
"f@	c #8E8746",
"g@	c #241F08",
"h@	c #1D1D09",
"i@	c #1B1B08",
"j@	c #1A1604",
"k@	c #100B02",
"                                                                      ",
"                                                                      ",
"                                                                      ",
"                                  .                                   ",
"                              .   . . + . .                           ",
"                              . @ . . # +                             ",
"                              . $ % & * +                             ",
"                          + + = - ; > , '                             ",
"                            ) ! ~ { ] ^ / (                           ",
"                      . _ . : < [ } | 1 2 3 +                         ",
"                      + # 4 5 6 7 8 9 0 a b c                         ",
"                      * d e f g h i j k l m n _                       ",
"                      n o p q r s t u v w x y +                       ",
"                      d z A B C D E F G H I c J                       ",
"                      K L M N O P Q R S T U V J +                     ",
"                      W X Y Z `  ...+.@.#.$.%.J                       ",
"                      &.*.=.-.;.>.,.'.).!.~.{.+                       ",
"                      ].^./.(._.:.<.[.}.|.1.*                         ",
"                      2.3.4.5.6.7.<.8.9.0.a.b.                        ",
"                      c.d.e.f.g.h.i.j.k.l.m.n.o.                      ",
"                      p.q.r.s.t.u.v.w.x.y.z.A.B.                      ",
"                    C.D.E.F.G.H.I.J.K.L.M.N.O.P.                      ",
"                    Q.R.S.T.U.V.W.X.Y.Z.`. +.+++@+                    ",
"                    #+$+%+&+*+=+-+;+>+,+'+)+!+~+{+                    ",
"                    ]+^+/+(+_+:+>+<+[+}+|+1+2+3+4+                    ",
"                    5+6+7+8+9+0+a+b+c+d+e+f+g+h+i+                    ",
"                  j+k+l+m+n+o+p+q+r+s+t+u+v+w+x+y+                    ",
"                  _ z+A+B+C+D+E+F+G+H+I+J+K+L+M+N+                    ",
"                  O+P+Q+e+R+S+E+D+T+U+V+W+s+X+Y++                     ",
"                    Z+`+ @.@+@C+@@D+#@$@.@%@&@*@_                     ",
"                  . =@-@;@>@>@,@'@)@!@~@{@]@^@/@_                     ",
"                    (@_@:@<@[@}@|@1@2@3@4@5@6@7@                      ",
"                    # 8@9@0@a@b@c@d@e@f@g@h@i@_                       ",
"                        + + 8@j@k@        _                           ",
"                              N+.                                     "};
