/* XPM */
static char const * const fire11_xpm[] = {
"35 35 329 2",
"  	c #000000",
". 	c #010000",
"+ 	c #020100",
"@ 	c #020000",
"# 	c #040100",
"$ 	c #050100",
"% 	c #110301",
"& 	c #100301",
"* 	c #070100",
"= 	c #2F1504",
"- 	c #1B0801",
"; 	c #120301",
"> 	c #1A0601",
", 	c #280C02",
"' 	c #3F1804",
") 	c #150301",
"! 	c #010100",
"~ 	c #080201",
"{ 	c #1B0501",
"] 	c #451C07",
"^ 	c #6E3B12",
"/ 	c #210B02",
"( 	c #230902",
"_ 	c #471B06",
": 	c #532007",
"< 	c #030100",
"[ 	c #160802",
"} 	c #180902",
"| 	c #2A1104",
"1 	c #381504",
"2 	c #602F0D",
"3 	c #834516",
"4 	c #562909",
"5 	c #5C270A",
"6 	c #5C2509",
"7 	c #722C0D",
"8 	c #441A05",
"9 	c #0B0300",
"0 	c #0C0401",
"a 	c #1D0E03",
"b 	c #200E03",
"c 	c #371A05",
"d 	c #6A330F",
"e 	c #7F4314",
"f 	c #814215",
"g 	c #7E3B11",
"h 	c #813810",
"i 	c #6A2B0B",
"j 	c #782F0E",
"k 	c #66280C",
"l 	c #110401",
"m 	c #190A02",
"n 	c #382007",
"o 	c #3D2407",
"p 	c #7E4614",
"q 	c #C76F25",
"r 	c #C16923",
"s 	c #BC6421",
"t 	c #C76B22",
"u 	c #D07324",
"v 	c #9B4216",
"w 	c #9E4617",
"x 	c #9A4919",
"y 	c #321204",
"z 	c #0D0200",
"A 	c #1B0B02",
"B 	c #53300C",
"C 	c #5C360F",
"D 	c #8D5019",
"E 	c #C37026",
"F 	c #D27428",
"G 	c #D37727",
"H 	c #DC7B27",
"I 	c #DC7B28",
"J 	c #C35D1F",
"K 	c #A7511B",
"L 	c #A65D1F",
"M 	c #3A1804",
"N 	c #140401",
"O 	c #2E1906",
"P 	c #502E0D",
"Q 	c #58340D",
"R 	c #A45E20",
"S 	c #C57427",
"T 	c #E4812C",
"U 	c #F0912F",
"V 	c #FFA234",
"W 	c #FB9731",
"X 	c #CF6D24",
"Y 	c #AB531C",
"Z 	c #AF6A22",
"` 	c #5C2D0C",
" .	c #200B01",
"..	c #0B0601",
"+.	c #42270B",
"@.	c #60350F",
"#.	c #6E3E12",
"$.	c #B56923",
"%.	c #EE872E",
"&.	c #FE9833",
"*.	c #F79431",
"=.	c #FFB93C",
"-.	c #FEB33B",
";.	c #D9802A",
">.	c #BD7225",
",.	c #AE6421",
"'.	c #70370E",
").	c #2D0F03",
"!.	c #0D0301",
"~.	c #804817",
"{.	c #9A581B",
"].	c #CF7A29",
"^.	c #FF9B34",
"/.	c #FFA435",
"(.	c #FFA937",
"_.	c #FFD344",
":.	c #FFDA47",
"<.	c #FFBA3E",
"[.	c #F49F34",
"}.	c #E39130",
"|.	c #9F571C",
"1.	c #572C0C",
"2.	c #894C18",
"3.	c #B06421",
"4.	c #D67D2A",
"5.	c #FF9F35",
"6.	c #FFAB39",
"7.	c #FFBE3D",
"8.	c #FDC53F",
"9.	c #FFD946",
"0.	c #FFCD42",
"a.	c #FFAF39",
"b.	c #F4A135",
"c.	c #A85F1D",
"d.	c #61320E",
"e.	c #0D0401",
"f.	c #8E5219",
"g.	c #B16722",
"h.	c #C67828",
"i.	c #EA8E2F",
"j.	c #FEB13A",
"k.	c #F0BC3D",
"l.	c #FDE348",
"m.	c #FFFA50",
"n.	c #FECD41",
"o.	c #F8BA3C",
"p.	c #F0B139",
"q.	c #CE8A2C",
"r.	c #845317",
"s.	c #0E0301",
"t.	c #1D0C02",
"u.	c #88551A",
"v.	c #BD7526",
"w.	c #E58A2D",
"x.	c #FEAF39",
"y.	c #FDC33E",
"z.	c #F1CE42",
"A.	c #FFF14D",
"B.	c #F5C13E",
"C.	c #EEB139",
"D.	c #EFBB3C",
"E.	c #ECA836",
"F.	c #B67825",
"G.	c #0E0501",
"H.	c #2C1604",
"I.	c #B06E23",
"J.	c #F69C33",
"K.	c #FFDC48",
"L.	c #FFF34F",
"M.	c #FFFC54",
"N.	c #FCE04A",
"O.	c #FCE54A",
"P.	c #FFFC52",
"Q.	c #F2C841",
"R.	c #E2B239",
"S.	c #EBB63A",
"T.	c #EAAA36",
"U.	c #C58C2B",
"V.	c #180E02",
"W.	c #060100",
"X.	c #3A1C07",
"Y.	c #DF882C",
"Z.	c #FFB23B",
"`.	c #FFF757",
" +	c #FFFF5A",
".+	c #FFFF68",
"++	c #FFFE61",
"@+	c #FFFE59",
"#+	c #FFFF60",
"$+	c #FDDE48",
"%+	c #E4BB3D",
"&+	c #E3BC3C",
"*+	c #F3BA3B",
"=+	c #E6AB36",
"-+	c #2D1D05",
";+	c #502B0C",
">+	c #E38C2D",
",+	c #FFB73E",
"'+	c #FFF655",
")+	c #FFFE5A",
"!+	c #FFFF62",
"~+	c #FFFF63",
"{+	c #FFFD5F",
"]+	c #FFFF64",
"^+	c #F6D148",
"/+	c #E7C23E",
"(+	c #F6C63E",
"_+	c #E9B238",
":+	c #372707",
"<+	c #1A0B02",
"[+	c #F4B63B",
"}+	c #FFDB4C",
"|+	c #FFFD68",
"1+	c #FFF96C",
"2+	c #FFFF7C",
"3+	c #FFFE72",
"4+	c #FFFF82",
"5+	c #FFFF7B",
"6+	c #FEFC87",
"7+	c #FCFA57",
"8+	c #FFF855",
"9+	c #FDDA46",
"0+	c #291B04",
"a+	c #050300",
"b+	c #AA7925",
"c+	c #FBEA5D",
"d+	c #FFFF78",
"e+	c #FBF267",
"f+	c #FFFE70",
"g+	c #FFFF75",
"h+	c #FFFF7E",
"i+	c #FFFF8B",
"j+	c #FFFF95",
"k+	c #FFFFB3",
"l+	c #FFFF7A",
"m+	c #FFFF65",
"n+	c #F9DF48",
"o+	c #2E1C05",
"p+	c #7D621F",
"q+	c #C0AE52",
"r+	c #FFFF73",
"s+	c #FFFF71",
"t+	c #FFF65F",
"u+	c #FFFD6E",
"v+	c #FFFFA5",
"w+	c #FFFFBB",
"x+	c #FFFFC5",
"y+	c #FFFFC0",
"z+	c #FFFF84",
"A+	c #FFF75D",
"B+	c #F4D94A",
"C+	c #140F01",
"D+	c #49390E",
"E+	c #736826",
"F+	c #E8CB56",
"G+	c #FFF56F",
"H+	c #FFFE8B",
"I+	c #FFFFAC",
"J+	c #FFFFE4",
"K+	c #FFFFE3",
"L+	c #FFFFBD",
"M+	c #FFFFC4",
"N+	c #F7E660",
"O+	c #BB9E34",
"P+	c #8F782B",
"Q+	c #C0B344",
"R+	c #FFFFBE",
"S+	c #FFFFC1",
"T+	c #FFFFB6",
"U+	c #FFFFF0",
"V+	c #FFFFE6",
"W+	c #FFFFEB",
"X+	c #D7D361",
"Y+	c #634F1A",
"Z+	c #95782F",
"`+	c #D9D261",
" @	c #FFFFF7",
".@	c #FFFFDA",
"+@	c #FFFFEC",
"@@	c #FFFFF1",
"#@	c #FFFFC8",
"$@	c #FFFFDD",
"%@	c #F6F67B",
"&@	c #CEC56C",
"*@	c #2E290A",
"=@	c #1A1103",
"-@	c #7D6828",
";@	c #F7F48A",
">@	c #FFFFEA",
",@	c #FFFFFC",
"'@	c #FFFFEF",
")@	c #FBFBA5",
"!@	c #847E32",
"~@	c #F3F39D",
"{@	c #FFFFA7",
"]@	c #524828",
"^@	c #0F0C02",
"/@	c #9F973C",
"(@	c #D2CE53",
"_@	c #FFFFB1",
":@	c #FFFFB2",
"<@	c #FAFAA2",
"[@	c #DBD366",
"}@	c #C6BD6B",
"|@	c #685421",
"1@	c #968541",
"2@	c #E4DA87",
"3@	c #161003",
"4@	c #040401",
"5@	c #5E5622",
"6@	c #847B33",
"7@	c #EDE967",
"8@	c #FFFF90",
"9@	c #EEEE97",
"0@	c #B6AB5D",
"a@	c #504119",
"b@	c #403414",
"c@	c #1D1204",
"d@	c #241F07",
"e@	c #121201",
"f@	c #131604",
"g@	c #8F943B",
"h@	c #ACB14E",
"i@	c #696B32",
"j@	c #252008",
"k@	c #2A240F",
"l@	c #0C0802",
"m@	c #020201",
"n@	c #0C0C04",
"                                                                      ",
"                                                                      ",
"                                                                      ",
"                                                                      ",
"                                                                      ",
"                                  .   .                               ",
"                                  + . @                               ",
"                                  . . # # .                           ",
"                            . . @ $ $ % & *                           ",
"                          $ . = - ; > , ' )                           ",
"                        ! ~ { ] ^ / ( _ : , .                         ",
"                    < [ } | 1 2 3 4 5 6 7 8 9 #                       ",
"                    0 a b c d e f g h i j k l #                       ",
"                    m n o p q r s t u v w x y z                       ",
"                    A B C D E F G H I J K L M N                       ",
"                    O P Q R S T U V W X Y Z `  .                      ",
"                  ..+.@.#.$.%.&.*.=.-.;.>.,.'.).!                     ",
"                    !.~.{.].^./.(._.:.<.[.}.|.1..                     ",
"                    # 2.3.4.5.6.7.8.9.0.a.b.c.d.#                     ",
"                    e.f.g.h.i.j.k.l.m.n.o.p.q.r.s.                    ",
"                  . t.u.v.w.x.y.z.A.m.B.C.D.E.F.G.                    ",
"                  @ H.I.J.K.L.M.N.O.P.Q.R.S.T.U.V.                    ",
"                  W.X.Y.Z.`. +.+++@+#+$+%+&+*+=+-+                    ",
"                  # ;+>+,+'+)+!+~+{+]+`.^+/+(+_+:+                    ",
"                    <+[+}+~+|+1+2+3+4+5+6+7+8+9+0+                    ",
"                    a+b+c+d+e+f+g+h+i+j+k+l+m+n+o+                    ",
"                    @ p+q+r+s+t+u+v+w+x+y+z+A+B+C+                    ",
"                    # D+E+F+G+H+I+J+K+L+M+d+N+O+                      ",
"                      P+Q+R+S+T+U+V+S+M+W+h+X+Y+                      ",
"                      Z+`+ @.@k++@@@#@L+$@%@&@*@                      ",
"                    =@-@;@>@,@'@v+y+)@!@~@{@]@                        ",
"                    ^@/@(@_@U+:@<@[@}@|@1@2@3@.                       ",
"                    4@5@6@7@8@9@0@a@b@c@d@e@                          ",
"                      ! f@g@h@i@j@k@l@                                ",
"                          m@n@                                        "};
