/* XPM */
static char const * const fire8_xpm[] = {
"35 35 319 2",
"  	c #000000",
". 	c #010000",
"+ 	c #020000",
"@ 	c #080200",
"# 	c #030100",
"$ 	c #050100",
"% 	c #0D0200",
"& 	c #110300",
"* 	c #140902",
"= 	c #070100",
"- 	c #160401",
"; 	c #260D03",
"> 	c #1E0802",
", 	c #1D0802",
"' 	c #020100",
") 	c #050200",
"! 	c #140A02",
"~ 	c #180501",
"{ 	c #1F0602",
"] 	c #371305",
"^ 	c #4C2109",
"/ 	c #391705",
"( 	c #381905",
"_ 	c #1C0F03",
": 	c #0F0802",
"< 	c #120701",
"[ 	c #1D0B02",
"} 	c #331404",
"| 	c #6A300F",
"1 	c #7A3812",
"2 	c #6D320F",
"3 	c #50240A",
"4 	c #261304",
"5 	c #040200",
"6 	c #040100",
"7 	c #0E0602",
"8 	c #120A02",
"9 	c #1B0B02",
"0 	c #472107",
"a 	c #934618",
"b 	c #9F4C19",
"c 	c #974B18",
"d 	c #66310D",
"e 	c #412309",
"f 	c #281404",
"g 	c #5E3D10",
"h 	c #281304",
"i 	c #311D05",
"j 	c #8F4F18",
"k 	c #CC6B24",
"l 	c #C66521",
"m 	c #A84D1A",
"n 	c #9E521B",
"o 	c #5C300F",
"p 	c #0F0701",
"q 	c #4F2E0C",
"r 	c #AB7224",
"s 	c #B56A21",
"t 	c #CA7826",
"u 	c #FA902F",
"v 	c #EF822C",
"w 	c #E17B29",
"x 	c #B36522",
"y 	c #9F5E1E",
"z 	c #452709",
"A 	c #1E0E03",
"B 	c #5A3910",
"C 	c #8C591C",
"D 	c #E08F2D",
"E 	c #F6A335",
"F 	c #FCB93C",
"G 	c #F7AB38",
"H 	c #FAA436",
"I 	c #FAA136",
"J 	c #F99131",
"K 	c #DD892F",
"L 	c #D8872D",
"M 	c #8C4B19",
"N 	c #3D1B06",
"O 	c #986821",
"P 	c #C58229",
"Q 	c #F49C32",
"R 	c #F3A735",
"S 	c #EFA836",
"T 	c #F0A837",
"U 	c #F3B43B",
"V 	c #F4B03A",
"W 	c #FBAA38",
"X 	c #E48C2E",
"Y 	c #DA8F30",
"Z 	c #B66723",
"` 	c #854717",
" .	c #1C1103",
"..	c #C2832A",
"+.	c #E99D33",
"@.	c #F8A635",
"#.	c #EF9D32",
"$.	c #E39830",
"%.	c #E3A034",
"&.	c #E3AC37",
"*.	c #E4A936",
"=.	c #E5A636",
"-.	c #E49A33",
";.	c #DF8C30",
">.	c #C77427",
",.	c #8B4818",
"'.	c #030000",
").	c #231404",
"!.	c #C0862C",
"~.	c #E29D32",
"{.	c #ECA334",
"].	c #EE9A31",
"^.	c #E49830",
"/.	c #DD9830",
"(.	c #E0A836",
"_.	c #E4AA36",
":.	c #E3A937",
"<.	c #E4A637",
"[.	c #E18E30",
"}.	c #C87227",
"|.	c #954E1A",
"1.	c #AF892B",
"2.	c #E5A535",
"3.	c #E49E32",
"4.	c #F1B63A",
"5.	c #EAB539",
"6.	c #E0B438",
"7.	c #D6AD36",
"8.	c #D8AE37",
"9.	c #E1BB3E",
"0.	c #E4B23A",
"a.	c #DDA336",
"b.	c #CE7829",
"c.	c #92501A",
"d.	c #AE8328",
"e.	c #FAB83B",
"f.	c #E4A935",
"g.	c #E1B539",
"h.	c #E9C13C",
"i.	c #DEB43A",
"j.	c #D1AC38",
"k.	c #D2AD39",
"l.	c #DCBC41",
"m.	c #DEB73C",
"n.	c #DAA938",
"o.	c #D78F2F",
"p.	c #A1601E",
"q.	c #0D0401",
"r.	c #C9942F",
"s.	c #FFE54B",
"t.	c #EABC3D",
"u.	c #E5C340",
"v.	c #E8C847",
"w.	c #EACA44",
"x.	c #DCB039",
"y.	c #DFB53B",
"z.	c #F2C441",
"A.	c #E5BE3E",
"B.	c #DCB63B",
"C.	c #DD9932",
"D.	c #B87D28",
"E.	c #060100",
"F.	c #1D1002",
"G.	c #E9BB3C",
"H.	c #F3E04B",
"I.	c #F2D152",
"J.	c #F2CD5B",
"K.	c #FAD459",
"L.	c #ECD657",
"M.	c #ECD849",
"N.	c #EECB43",
"O.	c #F2EB50",
"P.	c #E8D74C",
"Q.	c #DFC345",
"R.	c #E3C641",
"S.	c #DB9832",
"T.	c #2C1905",
"U.	c #442D0A",
"V.	c #F5CE43",
"W.	c #EFE051",
"X.	c #EFCE53",
"Y.	c #F1CB68",
"Z.	c #F1CD57",
"`.	c #ECD357",
" +	c #EEE250",
".+	c #EFD146",
"++	c #F1EB54",
"@+	c #E8D84E",
"#+	c #E3C847",
"$+	c #E3CB43",
"%+	c #E5AD38",
"&+	c #281803",
"*+	c #0D0701",
"=+	c #775619",
"-+	c #FDF552",
";+	c #FAF670",
">+	c #F7EA7D",
",+	c #E8CF76",
"'+	c #E2C268",
")+	c #F8D668",
"!+	c #F0E66E",
"~+	c #F5F070",
"{+	c #F2ED66",
"]+	c #EADD62",
"^+	c #EBE05B",
"/+	c #F4BB3F",
"(+	c #CC8A2D",
"_+	c #100701",
":+	c #2E2308",
"<+	c #9D7724",
"[+	c #FFFF5A",
"}+	c #FFFF70",
"|+	c #FFFE84",
"1+	c #F7E384",
"2+	c #E9CB8F",
"3+	c #F3D484",
"4+	c #F8F16B",
"5+	c #F5F06D",
"6+	c #F3EF76",
"7+	c #F1E984",
"8+	c #EEE46B",
"9+	c #F4BE44",
"0+	c #B87E29",
"a+	c #110902",
"b+	c #211C06",
"c+	c #9C8327",
"d+	c #FFF34F",
"e+	c #FFFF6E",
"f+	c #FFFFD4",
"g+	c #FEF48F",
"h+	c #F6E9AC",
"i+	c #FBEF94",
"j+	c #F7F278",
"k+	c #F3ED79",
"l+	c #F6F378",
"m+	c #FCFA74",
"n+	c #FDFC8E",
"o+	c #FBD84C",
"p+	c #AF802A",
"q+	c #231504",
"r+	c #131003",
"s+	c #7D6D1F",
"t+	c #CEA934",
"u+	c #F6EA57",
"v+	c #FFFF7F",
"w+	c #FFFF80",
"x+	c #FFFF9B",
"y+	c #FDFD85",
"z+	c #F6F26E",
"A+	c #F4F06D",
"B+	c #F5F297",
"C+	c #FDFCA4",
"D+	c #FFFFAD",
"E+	c #CFAB3D",
"F+	c #574114",
"G+	c #0A0501",
"H+	c #675618",
"I+	c #967121",
"J+	c #B0882A",
"K+	c #FFFF78",
"L+	c #FFFD78",
"M+	c #FCF26E",
"N+	c #FEFDA6",
"O+	c #FBFA7C",
"P+	c #FAF789",
"Q+	c #FAF9B0",
"R+	c #FEFEC2",
"S+	c #FFFE87",
"T+	c #725F21",
"U+	c #221B05",
"V+	c #382C08",
"W+	c #805D1A",
"X+	c #A87D2C",
"Y+	c #FBF96D",
"Z+	c #FEF982",
"`+	c #F8F47C",
" @	c #FEFD8D",
".@	c #FEFD89",
"+@	c #FEFD8B",
"@@	c #FEFEC8",
"#@	c #FFFEBA",
"$@	c #FDF778",
"%@	c #4C4515",
"&@	c #090501",
"*@	c #010100",
"=@	c #4F3B14",
"-@	c #6E5325",
";@	c #F4E882",
">@	c #FEFB67",
",@	c #FFFFBE",
"'@	c #FFFFB3",
")@	c #FFFFCD",
"!@	c #FFFFB1",
"~@	c #FFFFB8",
"{@	c #FFFFC0",
"]@	c #F2F07D",
"^@	c #100901",
"/@	c #1C1407",
"(@	c #3B2A12",
"_@	c #FBF6A8",
":@	c #D6C15C",
"<@	c #EEEA86",
"[@	c #CBBE56",
"}@	c #A79A48",
"|@	c #E5D87E",
"1@	c #FFFFAA",
"2@	c #4D4621",
"3@	c #1A1A0B",
"4@	c #020200",
"5@	c #2B230F",
"6@	c #342815",
"7@	c #25230D",
"8@	c #716C36",
"9@	c #3B3514",
"0@	c #2A240D",
"a@	c #0A0502",
"b@	c #544D23",
"c@	c #131305",
"d@	c #040201",
"                                                                      ",
"                                                                      ",
"                                                                      ",
"                                                                      ",
"                                                                      ",
"                                .                                     ",
"                                .                                     ",
"                              . . + . @                               ",
"                              . # $ % & .                             ",
"                            * = = - ; > , '                           ",
"                          ) ! ~ { ] ^ / ( _                           ",
"                          : < [ } | 1 2 3 4 5                         ",
"                        6 7 8 9 0 a b c d e '                         ",
"                      * f g h i j k l m n o p                         ",
"                      4 q r s t u v w k x y z A                       ",
"                      B C D E F G H I J K L M N                       ",
"                      O P Q R S T U V W X Y Z ` '                     ",
"                     ...+.@.#.$.%.&.*.=.-.;.>.,.'.                    ",
"                    ).!.~.{.].^./.(._.:.<.[.}.|.                      ",
"                    ' 1.2.3.4.5.6.7.8.9.0.a.b.c.'                     ",
"                    # d.e.f.g.h.i.j.k.l.m.n.o.p.q.                    ",
"                    # r.s.t.u.v.w.x.y.z.A.B.C.D.E.                    ",
"                    F.G.H.I.J.K.L.M.N.O.P.Q.R.S.T.                    ",
"                    U.V.W.X.Y.Z.`. +.+++@+#+$+%+&+                    ",
"                  *+=+-+;+>+,+'+)+!+~+{+]+^+/+(+_+                    ",
"                  :+<+[+}+|+1+2+3+4+5+6+7+8+9+0+a+                    ",
"                  b+c+d+e+f+g+h+i+j+k+l+m+n+o+p+q+                    ",
"                  r+s+t+u+v+w+x+y+z+A+B+C+D+E+F+G+                    ",
"                    H+I+J+K+L+M+N+O+P+Q+R+S+T+U+.                     ",
"                    V+W+X+Y+Z+`+ @.@+@@@#@$@%@&@                      ",
"                    *@=@-@;@>@,@'@)@!@~@{@]@^@6                       ",
"                      /@(@_@:@<@D+[@}@|@1@2@3@4@                      ",
"                          5@6@7@8@9@0@a@b@c@                          ",
"                            ) '.. d@d@                                ",
"                                                                      "};
