/* XPM */
static char const * const fire7_xpm[] = {
"35 35 304 2",
"  	c #000000",
". 	c #020100",
"+ 	c #010100",
"@ 	c #010000",
"# 	c #030100",
"$ 	c #090200",
"% 	c #020000",
"& 	c #050100",
"* 	c #0C0301",
"= 	c #260F04",
"- 	c #080200",
"; 	c #040000",
"> 	c #0B0100",
", 	c #070100",
"' 	c #150401",
") 	c #361A06",
"! 	c #270E03",
"~ 	c #150501",
"{ 	c #120401",
"] 	c #070200",
"^ 	c #110200",
"/ 	c #200702",
"( 	c #381003",
"_ 	c #74300D",
": 	c #522208",
"< 	c #441F08",
"[ 	c #351805",
"} 	c #4F280B",
"| 	c #3F2208",
"1 	c #110300",
"2 	c #180401",
"3 	c #280903",
"4 	c #3D1204",
"5 	c #863710",
"6 	c #8C3913",
"7 	c #622E0D",
"8 	c #57290B",
"9 	c #673611",
"0 	c #5C2E0E",
"a 	c #060100",
"b 	c #1C0702",
"c 	c #2C0E03",
"d 	c #300E03",
"e 	c #3C1305",
"f 	c #8C3C13",
"g 	c #AE4A18",
"h 	c #A9501B",
"i 	c #A5511A",
"j 	c #914A18",
"k 	c #6F3811",
"l 	c #281304",
"m 	c #040100",
"n 	c #250802",
"o 	c #401606",
"p 	c #4E1B07",
"q 	c #743510",
"r 	c #AB4717",
"s 	c #BD531C",
"t 	c #C46120",
"u 	c #B95F1F",
"v 	c #BE6422",
"w 	c #9C531A",
"x 	c #281203",
"y 	c #1B0502",
"z 	c #421706",
"A 	c #732C0D",
"B 	c #AC501A",
"C 	c #CF561D",
"D 	c #DE6D23",
"E 	c #CF7326",
"F 	c #CC6D25",
"G 	c #D67125",
"H 	c #BB6520",
"I 	c #482D0D",
"J 	c #1B0501",
"K 	c #4B1907",
"L 	c #9E4C1A",
"M 	c #A5471A",
"N 	c #CB581F",
"O 	c #F8802B",
"P 	c #ED8C2F",
"Q 	c #E6892D",
"R 	c #E89030",
"S 	c #E17C29",
"T 	c #804417",
"U 	c #0D0301",
"V 	c #6C3910",
"W 	c #B8591E",
"X 	c #AA4F1A",
"Y 	c #D36723",
"Z 	c #FEB93D",
"` 	c #F2AB37",
" .	c #EBA636",
"..	c #ECA737",
"+.	c #EA9833",
"@.	c #CB882D",
"#.	c #341A06",
"$.	c #090301",
"%.	c #4C2308",
"&.	c #A4621F",
"*.	c #E27A28",
"=.	c #D26C23",
"-.	c #F18D2D",
";.	c #FFE24A",
">.	c #F7C33F",
",.	c #EEB13A",
"'.	c #E6A737",
").	c #ECA236",
"!.	c #E79A33",
"~.	c #6A4313",
"{.	c #120802",
"].	c #200902",
"^.	c #884415",
"/.	c #DB8F2E",
"(.	c #FDD54A",
"_.	c #FFD244",
":.	c #FFFE62",
"<.	c #FBF767",
"[.	c #EDDD4F",
"}.	c #EAD246",
"|.	c #E1AC38",
"1.	c #E5B03A",
"2.	c #F8B63C",
"3.	c #D1922E",
"4.	c #6F4A16",
"5.	c #471B06",
"6.	c #A15A1C",
"7.	c #E3A836",
"8.	c #FBFB5A",
"9.	c #FCFC66",
"0.	c #FCF56C",
"a.	c #EDDD6A",
"b.	c #DBB94F",
"c.	c #E2C851",
"d.	c #E4B93F",
"e.	c #DEB23A",
"f.	c #E7B83D",
"g.	c #F5BB3E",
"h.	c #9F6E23",
"i.	c #0A0101",
"j.	c #A8852A",
"k.	c #F7DC4A",
"l.	c #FCFB61",
"m.	c #FCFB63",
"n.	c #F9EB5E",
"o.	c #EEDE65",
"p.	c #D6B04B",
"q.	c #D4AA44",
"r.	c #E0B840",
"s.	c #EEC749",
"t.	c #EACC48",
"u.	c #F4DA47",
"v.	c #C69330",
"w.	c #9D7B28",
"x.	c #FCE955",
"y.	c #FFFF6A",
"z.	c #FEFD62",
"A.	c #EDD952",
"B.	c #E8D252",
"C.	c #E7BF4B",
"D.	c #F5C249",
"E.	c #FEC545",
"F.	c #F3CA51",
"G.	c #EAD353",
"H.	c #F4E74E",
"I.	c #E0AE39",
"J.	c #080301",
"K.	c #080101",
"L.	c #8C6523",
"M.	c #FEE658",
"N.	c #FDFC63",
"O.	c #F8DD5A",
"P.	c #E8D253",
"Q.	c #F2C952",
"R.	c #FECA4E",
"S.	c #FFCC47",
"T.	c #F6D263",
"U.	c #E9D050",
"V.	c #F2E74F",
"W.	c #E6B63B",
"X.	c #130B02",
"Y.	c #946A26",
"Z.	c #F5CC4D",
"`.	c #FDFC6A",
" +	c #FFFE73",
".+	c #FFFF8F",
"++	c #FAE96A",
"@+	c #F9DC54",
"#+	c #FEDC52",
"$+	c #FEEE65",
"%+	c #FDF992",
"&+	c #F7EE82",
"*+	c #F3E44D",
"=+	c #E0AC38",
"-+	c #110B02",
";+	c #0D0401",
">+	c #976A24",
",+	c #FEE451",
"'+	c #FFFF66",
")+	c #FFFD77",
"!+	c #FFFCA6",
"~+	c #FDF66E",
"{+	c #FCE956",
"]+	c #FEEA56",
"^+	c #FFFE6B",
"/+	c #FDFFAA",
"(+	c #FDF37F",
"_+	c #F4E64E",
":+	c #D6AD38",
"<+	c #060300",
"[+	c #1A0F02",
"}+	c #D2A136",
"|+	c #FFF95B",
"1+	c #FFFF98",
"2+	c #FFFFAA",
"3+	c #FFFEA2",
"4+	c #F7F364",
"5+	c #FBE95B",
"6+	c #FDE860",
"7+	c #FFFE65",
"8+	c #FEFF87",
"9+	c #FEFB87",
"0+	c #F7EA57",
"a+	c #B38E2D",
"b+	c #130D02",
"c+	c #FFF96E",
"d+	c #FFFF94",
"e+	c #FFFFF0",
"f+	c #FFFFE0",
"g+	c #FEFD93",
"h+	c #F6F27A",
"i+	c #FDFD9D",
"j+	c #FEFFA7",
"k+	c #FEFF99",
"l+	c #FFFFC3",
"m+	c #FFFF9C",
"n+	c #FBEB50",
"o+	c #816B20",
"p+	c #2A2309",
"q+	c #FFFE7A",
"r+	c #FFFFDF",
"s+	c #FBF9C6",
"t+	c #F8F6BE",
"u+	c #FDFDD0",
"v+	c #FEFEBE",
"w+	c #FEFFA9",
"x+	c #FFFF8B",
"y+	c #D6AF38",
"z+	c #635317",
"A+	c #3C3610",
"B+	c #FEFB71",
"C+	c #FFFF89",
"D+	c #FEFE8B",
"E+	c #FDFDC3",
"F+	c #FBFAAD",
"G+	c #FCFBE3",
"H+	c #FEFDC2",
"I+	c #FEFFBA",
"J+	c #FEFFB4",
"K+	c #FFFF97",
"L+	c #FFFF72",
"M+	c #AC8E2E",
"N+	c #554914",
"O+	c #363810",
"P+	c #A59F3E",
"Q+	c #F8F868",
"R+	c #FDFD6A",
"S+	c #FFFFA6",
"T+	c #FFFFD0",
"U+	c #FFFFDA",
"V+	c #FFFFBA",
"W+	c #FFFFE7",
"X+	c #FFFFC2",
"Y+	c #FFFA68",
"Z+	c #6E621D",
"`+	c #332C0A",
" @	c #0D0D02",
".@	c #757527",
"+@	c #C9C246",
"@@	c #CFBE43",
"#@	c #F5F573",
"$@	c #FFFF9F",
"%@	c #FFFF91",
"&@	c #EDD35D",
"*@	c #FEFE80",
"=@	c #FBF87B",
"-@	c #BBAB4C",
";@	c #1A1A0C",
">@	c #040200",
",@	c #090902",
"'@	c #2E2C0D",
")@	c #837A2B",
"!@	c #898031",
"~@	c #685E25",
"{@	c #796B36",
"]@	c #B2A256",
"^@	c #594C1E",
"/@	c #7A7136",
"(@	c #4E4220",
"_@	c #1F1605",
":@	c #070201",
"<@	c #0E0801",
"[@	c #141104",
"}@	c #030300",
"                                                                      ",
"                                                                      ",
"                                                                      ",
"                                                                      ",
"                                                                      ",
"                                      .                               ",
"                                      +                               ",
"                              @     @ @                               ",
"                            # $ @ @ @                                 ",
"                        @ % & * = - % % %                             ",
"                      @ ; > , ' ) ! ~ { ]                             ",
"                      , ^ / ( _ : < [ } | @                           ",
"                      1 2 3 4 5 6 7 8 9 0 ]                           ",
"                    a b c d e f g h i j k l                           ",
"                    m n o p q r s t u v w x                           ",
"                      y z A B C D E F G H I @                         ",
"                      J K L M N O P Q R S T U .                       ",
"                  @ @ ! V W X Y Z `  ...+.@.#.$.                      ",
"                  @ @ %.&.*.=.-.;.>.,.'.).!.~.{.                      ",
"                  @ ].^./.(._.:.<.[.}.|.1.2.3.4.                      ",
"                  % 5.6.7.8.9.0.a.b.c.d.e.f.g.h.@                     ",
"                  @ i.j.k.l.m.n.o.p.q.r.s.t.u.v.@                     ",
"                  a a w.x.y.z.A.B.C.D.E.F.G.H.I.J.                    ",
"                  m K.L.M.N.y.O.P.Q.R.S.T.U.V.W.X.                    ",
"                  @ m Y.Z.`. +.+++@+#+$+%+&+*+=+-+                    ",
"                    ;+>+,+'+)+!+~+{+]+^+/+(+_+:+<+                    ",
"                    [+}+|+1+2+3+4+5+6+7+8+9+0+a+                      ",
"                    b+c+d+e+f+g+h+i+j+k+l+m+n+o+                      ",
"                    p+q+1+3+r+s+t+u+v+w+m+x+y+z+                      ",
"                    A+B+C+D+E+F+G+H+I+J+K+L+M+N+                      ",
"                    O+P+Q+R+S+T+e+U+V+W+X+Y+Z+`+@                     ",
"                     @.@+@@@#@$@m+%@&@*@=@-@;@  >@                    ",
"                      ,@'@)@!@~@{@]@^@/@(@_@$.:@                      ",
"                          <@[@  }@                                    ",
"                                                                      "};
