/* XPM */
static char const * const fire5_xpm[] = {
"35 35 303 2",
"  	c #000000",
". 	c #030200",
"+ 	c #060301",
"@ 	c #010000",
"# 	c #010100",
"$ 	c #020100",
"% 	c #120701",
"& 	c #080301",
"* 	c #050300",
"= 	c #030100",
"- 	c #0D0201",
"; 	c #090201",
"> 	c #170B02",
", 	c #1B0E03",
"' 	c #1F0E03",
") 	c #030201",
"! 	c #070100",
"~ 	c #1B0602",
"{ 	c #1F0D03",
"] 	c #331B06",
"^ 	c #301906",
"/ 	c #311A06",
"( 	c #0E0601",
"_ 	c #0B0101",
": 	c #2F1004",
"< 	c #381706",
"[ 	c #4B2409",
"} 	c #512A0C",
"| 	c #623410",
"1 	c #291304",
"2 	c #040100",
"3 	c #020000",
"4 	c #0F0100",
"5 	c #1B0301",
"6 	c #421606",
"7 	c #65270A",
"8 	c #6B320F",
"9 	c #8D4C17",
"0 	c #8A4B16",
"a 	c #3A1E07",
"b 	c #050000",
"c 	c #180401",
"d 	c #310D03",
"e 	c #531E07",
"f 	c #83310E",
"g 	c #974615",
"h 	c #97531A",
"i 	c #8E5019",
"j 	c #532E0D",
"k 	c #1C0601",
"l 	c #301003",
"m 	c #6E3310",
"n 	c #863A12",
"o 	c #923C13",
"p 	c #AD5019",
"q 	c #A75B1C",
"r 	c #A25D1D",
"s 	c #7E4C18",
"t 	c #2F1705",
"u 	c #090301",
"v 	c #250D03",
"w 	c #280D03",
"x 	c #68300F",
"y 	c #743510",
"z 	c #8E4C18",
"A 	c #A6551A",
"B 	c #AD5E1D",
"C 	c #B2631E",
"D 	c #A96220",
"E 	c #582F0E",
"F 	c #251204",
"G 	c #080201",
"H 	c #2A1003",
"I 	c #371805",
"J 	c #6C3911",
"K 	c #9D591D",
"L 	c #A3551C",
"M 	c #B55F1D",
"N 	c #C26C21",
"O 	c #C97324",
"P 	c #E1852C",
"Q 	c #B96721",
"R 	c #93511A",
"S 	c #4F280B",
"T 	c #2E1404",
"U 	c #2D1003",
"V 	c #4E2309",
"W 	c #A2591D",
"X 	c #BC6F24",
"Y 	c #C76A22",
"Z 	c #D77123",
"` 	c #FF9D32",
" .	c #FFA535",
"..	c #FFB53A",
"+.	c #DA7F28",
"@.	c #D17827",
"#.	c #724013",
"$.	c #361705",
"%.	c #0A0200",
"&.	c #2E1204",
"*.	c #67330E",
"=.	c #B67024",
"-.	c #DC8D2D",
";.	c #E7932E",
">.	c #F68F2C",
",.	c #FEA935",
"'.	c #FFBF3D",
").	c #FFD344",
"!.	c #FA9832",
"~.	c #E88F2E",
"{.	c #A3581C",
"].	c #5B300D",
"^.	c #100401",
"/.	c #401C07",
"(.	c #844717",
"_.	c #D28D2D",
":.	c #DDA634",
"<.	c #E59C30",
"[.	c #F1942F",
"}.	c #FDB338",
"|.	c #FFC940",
"1.	c #FFE049",
"2.	c #F6B83B",
"3.	c #EE902F",
"4.	c #904F1A",
"5.	c #63320F",
"6.	c #0E0301",
"7.	c #723D11",
"8.	c #C67C28",
"9.	c #D59C31",
"0.	c #D89F32",
"a.	c #E6B83A",
"b.	c #F6D142",
"c.	c #FEDB46",
"d.	c #FED745",
"e.	c #F3CA42",
"f.	c #EEC23E",
"g.	c #F9BF3E",
"h.	c #BE6D24",
"i.	c #723E13",
"j.	c #412107",
"k.	c #7F4E17",
"l.	c #D99630",
"m.	c #D2A735",
"n.	c #D1A83E",
"o.	c #D8B545",
"p.	c #FBF864",
"q.	c #FFDC4D",
"r.	c #FFD848",
"s.	c #FDC740",
"t.	c #F7C03F",
"u.	c #FCC23F",
"v.	c #E19331",
"w.	c #BF7826",
"x.	c #3F1E08",
"y.	c #987324",
"z.	c #E9BC3C",
"A.	c #CD9E37",
"B.	c #CEA13F",
"C.	c #DDBF56",
"D.	c #FAF66B",
"E.	c #FFE851",
"F.	c #FFE54A",
"G.	c #FFD343",
"H.	c #FDBC3C",
"I.	c #F4A536",
"J.	c #C17A27",
"K.	c #0F0301",
"L.	c #45350D",
"M.	c #D8A233",
"N.	c #E8B639",
"O.	c #CB8F30",
"P.	c #CFA23B",
"Q.	c #E7D15E",
"R.	c #F7DD5F",
"S.	c #FBD64D",
"T.	c #FFD647",
"U.	c #F5C446",
"V.	c #E6CB43",
"W.	c #EDBE3D",
"X.	c #DF912F",
"Y.	c #945D1C",
"Z.	c #5C4714",
"`.	c #EAAF38",
" +	c #E4B239",
".+	c #CC9533",
"++	c #D4AD43",
"@+	c #EAD660",
"#+	c #EED65F",
"$+	c #E8C54A",
"%+	c #ECBF44",
"&+	c #EEC44D",
"*+	c #E4CF4B",
"=+	c #EFC13F",
"-+	c #A97325",
";+	c #51340D",
">+	c #45390F",
",+	c #D5A337",
"'+	c #E5B53C",
")+	c #D9B448",
"!+	c #DDBC55",
"~+	c #F2E469",
"{+	c #FBF073",
"]+	c #E6CB6D",
"^+	c #DFBF6D",
"/+	c #E7C770",
"(+	c #F0E372",
"_+	c #F3CF4D",
":+	c #5D4314",
"<+	c #2A1D06",
"[+	c #171203",
"}+	c #CCAB3F",
"|+	c #F2E55D",
"1+	c #DFBF5C",
"2+	c #E8D070",
"3+	c #F9F3EE",
"4+	c #FFFBD0",
"5+	c #F4E482",
"6+	c #EAD295",
"7+	c #EDD573",
"8+	c #FAF6AB",
"9+	c #F2D550",
"0+	c #7E6325",
"a+	c #2A1E0C",
"b+	c #D0BA4E",
"c+	c #FDFA83",
"d+	c #FAF6A5",
"e+	c #FCF9A5",
"f+	c #FEFEED",
"g+	c #FFFFE6",
"h+	c #FFFDAA",
"i+	c #FFFEB1",
"j+	c #FFFE9B",
"k+	c #FBF370",
"l+	c #F0D552",
"m+	c #A28939",
"n+	c #2C220C",
"o+	c #DAC855",
"p+	c #FFFF88",
"q+	c #FEFF7D",
"r+	c #FFFFA7",
"s+	c #FFFFF2",
"t+	c #FFFFE5",
"u+	c #FFFFEB",
"v+	c #FFFFB7",
"w+	c #FEFEB1",
"x+	c #FEFF85",
"y+	c #F0DF57",
"z+	c #554817",
"A+	c #161103",
"B+	c #AA9A3E",
"C+	c #FAF369",
"D+	c #FEFFB2",
"E+	c #FFFF9A",
"F+	c #FFFFB0",
"G+	c #FEFFB3",
"H+	c #FEFFB6",
"I+	c #FFFFD9",
"J+	c #FFFFE8",
"K+	c #F2EC5D",
"L+	c #37320E",
"M+	c #131103",
"N+	c #5B501D",
"O+	c #867431",
"P+	c #FFFF9F",
"Q+	c #FFFF99",
"R+	c #FEFF9D",
"S+	c #FDFFAE",
"T+	c #FEFFD1",
"U+	c #FEFFDC",
"V+	c #FFFFB1",
"W+	c #F3EF61",
"X+	c #403C13",
"Y+	c #100B02",
"Z+	c #040200",
"`+	c #726640",
" @	c #A7A052",
".@	c #E4D26A",
"+@	c #FEFFA9",
"@@	c #FFFFDD",
"#@	c #FFFEB7",
"$@	c #FEFC95",
"%@	c #A5983C",
"&@	c #ABA45F",
"*@	c #221C05",
"=@	c #4C4624",
"-@	c #B0AA61",
";@	c #EEE98D",
">@	c #9B9351",
",@	c #817D49",
"'@	c #A2984E",
")@	c #E1D476",
"!@	c #A0935B",
"~@	c #413E2B",
"{@	c #383820",
"]@	c #3D3B20",
"^@	c #A09956",
"/@	c #3B321A",
"(@	c #2C2C24",
"_@	c #292924",
":@	c #272613",
"<@	c #060602",
"[@	c #19160B",
"                                                                      ",
"                                                                      ",
"                                                                      ",
"                                                                      ",
"                                                                      ",
"                                .                                     ",
"                                + @                                   ",
"                          @ # $ % & & *                               ",
"                    @     = - ; > , ' )                               ",
"                        @ ! ~ { ] ^ / (                               ",
"                      @ ! _ : < [ } | 1 2                             ",
"                      3 4 5 6 7 8 9 0 a 3                             ",
"                    @ b c d e f g h i j 2 @                           ",
"                    @ k l m n o p q r s t u                           ",
"                    @ v w x y z A B C D E F G @ @                     ",
"                      H I J K L M N O P Q R S T G                     ",
"                      U V W X Y Z `  ...+.@.#.$.%.                    ",
"                    @ &.*.=.-.;.>.,.'.).!.~.{.].^.                    ",
"                    @ /.(._.:.<.[.}.|.1.2.3.4.5.6.                    ",
"                    3 7.8.9.0.a.b.c.d.e.f.g.h.i.j.$                   ",
"                    @ k.l.m.n.o.p.q.r.s.t.u.v.w.x.                    ",
"                    @ y.z.A.B.C.D.E.F.G.).H.I.J.K.                    ",
"                    L.M.N.O.P.Q.R.S.T.U.V.W.X.Y.                      ",
"                  @ Z.`. +.+++@+#+$+%+&+*+=+-+;+                      ",
"                    >+,+'+)+!+~+{+]+^+/+(+_+:+<+                      ",
"                  # [+}+|+1+2+3+4+5+6+7+8+9+0+a+                      ",
"                  @ # b+c+d+e+f+g+h+i+j+k+l+m+n+                      ",
"                      o+p+q+r+s+t+u+v+w+x+y+z+A+                      ",
"                      B+C+D+E+F+G+H+I+J+v+K+L+M+                      ",
"                      N+O+w+P+Q+R+S+T+U+V+W+X+Y+                      ",
"                        Z+`+ @.@+@@@#@$@%@&@*@$                       ",
"                          =@-@;@>@,@'@)@!@~@                          ",
"                          {@]@^@/@(@_@:@<@[@                          ",
"                          # <@                                        ",
"                                                                      "};
