/* XPM */
static char const * const fire3_xpm[] = {
"35 35 303 2",
"  	c #000000",
". 	c #010000",
"+ 	c #020000",
"@ 	c #050100",
"# 	c #020100",
"$ 	c #060200",
"% 	c #060100",
"& 	c #030100",
"* 	c #130401",
"= 	c #160401",
"- 	c #0F0301",
"; 	c #030000",
"> 	c #040100",
", 	c #070200",
"' 	c #140401",
") 	c #0D0301",
"! 	c #2D1104",
"~ 	c #2C1103",
"{ 	c #2F1103",
"] 	c #220902",
"^ 	c #351505",
"/ 	c #421D08",
"( 	c #190501",
"_ 	c #3B1606",
": 	c #3E1806",
"< 	c #411D08",
"[ 	c #2D1204",
"} 	c #0C0301",
"| 	c #1B0A02",
"1 	c #4C250A",
"2 	c #693411",
"3 	c #3B1605",
"4 	c #501D08",
"5 	c #522008",
"6 	c #3C1505",
"7 	c #200903",
"8 	c #0E0401",
"9 	c #270F03",
"0 	c #562D0C",
"a 	c #723A13",
"b 	c #693210",
"c 	c #572309",
"d 	c #512109",
"e 	c #381505",
"f 	c #210D03",
"g 	c #050200",
"h 	c #1F1103",
"i 	c #4F270B",
"j 	c #703312",
"k 	c #864516",
"l 	c #753711",
"m 	c #552209",
"n 	c #381806",
"o 	c #1C0D03",
"p 	c #2A1B05",
"q 	c #2D1A05",
"r 	c #57330F",
"s 	c #8C4818",
"t 	c #924516",
"u 	c #7C3611",
"v 	c #622C0D",
"w 	c #50290B",
"x 	c #492C0B",
"y 	c #170B02",
"z 	c #2C1D06",
"A 	c #442B0A",
"B 	c #835119",
"C 	c #A15F1F",
"D 	c #AB5C1D",
"E 	c #8D3D13",
"F 	c #803710",
"G 	c #6D320E",
"H 	c #56300D",
"I 	c #331C06",
"J 	c #150802",
"K 	c #070501",
"L 	c #50350E",
"M 	c #57320C",
"N 	c #9C5F1D",
"O 	c #AE6721",
"P 	c #A95B1E",
"Q 	c #A3571D",
"R 	c #97531A",
"S 	c #9B5C1E",
"T 	c #AA6320",
"U 	c #824E17",
"V 	c #502E0C",
"W 	c #0D0401",
"X 	c #231704",
"Y 	c #582C0B",
"Z 	c #66350D",
"` 	c #BD7A25",
" .	c #D07B27",
"..	c #CB7826",
"+.	c #E1882D",
"@.	c #EFA035",
"#.	c #F6AC39",
"$.	c #EB9C31",
"%.	c #BF7525",
"&.	c #91591C",
"*.	c #211103",
"=.	c #6B370E",
"-.	c #8D5719",
";.	c #DA922D",
">.	c #F49630",
",.	c #E38F2E",
"'.	c #F0A235",
").	c #F8CA42",
"!.	c #FBCA41",
"~.	c #F7A835",
"{.	c #D2842A",
"].	c #BE7624",
"^.	c #201003",
"/.	c #734914",
"(.	c #BA892A",
"_.	c #F6A334",
":.	c #F2922E",
"<.	c #E88B2D",
"[.	c #F2C340",
"}.	c #F0D746",
"|.	c #F1DA46",
"1.	c #FCC43E",
"2.	c #E7912E",
"3.	c #C87E27",
"4.	c #361B06",
"5.	c #040200",
"6.	c #7A5316",
"7.	c #C08C2B",
"8.	c #F19F33",
"9.	c #F49730",
"0.	c #EDAD39",
"a.	c #F0E24E",
"b.	c #EDE450",
"c.	c #EDDF48",
"d.	c #FBC23E",
"e.	c #EC902E",
"f.	c #D7882A",
"g.	c #6C3F11",
"h.	c #381B05",
"i.	c #080200",
"j.	c #321F06",
"k.	c #AE7D26",
"l.	c #D39A30",
"m.	c #E7A736",
"n.	c #F9B53B",
"o.	c #F3E24D",
"p.	c #ECE057",
"q.	c #EFE85B",
"r.	c #F0E950",
"s.	c #FCB539",
"t.	c #F8962F",
"u.	c #EE962F",
"v.	c #945C1E",
"w.	c #5E3710",
"x.	c #0A0501",
"y.	c #7D5116",
"z.	c #D8952E",
"A.	c #EAA433",
"B.	c #F9BB3C",
"C.	c #FDEF4F",
"D.	c #F2EA57",
"E.	c #EADB51",
"F.	c #EDE556",
"G.	c #F3EE57",
"H.	c #FBDB48",
"I.	c #FFBC3C",
"J.	c #DC9931",
"K.	c #986921",
"L.	c #51310D",
"M.	c #130B02",
"N.	c #B27823",
"O.	c #F7B839",
"P.	c #FABA3B",
"Q.	c #FFCB41",
"R.	c #FDEF4E",
"S.	c #F2E954",
"T.	c #EADB4E",
"U.	c #EFE45F",
"V.	c #F8F367",
"W.	c #FDF85B",
"X.	c #FFE551",
"Y.	c #FACD43",
"Z.	c #BD8B2C",
"`.	c #5C3D11",
" +	c #D3942C",
".+	c #FFE749",
"++	c #FFF34E",
"@+	c #FFEF4F",
"#+	c #FEE64C",
"$+	c #F6ED4F",
"%+	c #EDE164",
"&+	c #F1E769",
"*+	c #F8F374",
"=+	c #FFFF79",
"-+	c #FFFF6C",
";+	c #FFFF71",
">+	c #F3CD41",
",+	c #967524",
"'+	c #724914",
")+	c #FBD344",
"!+	c #FFFE5B",
"~+	c #FFFF98",
"{+	c #FEED64",
"]+	c #FCE35A",
"^+	c #FBF985",
"/+	c #FDFC97",
"(+	c #FDFD98",
"_+	c #FFFFAC",
":+	c #FFFF87",
"<+	c #FFFF6D",
"[+	c #CB9C30",
"}+	c #84641E",
"|+	c #0A0701",
"1+	c #160D02",
"2+	c #5A3F11",
"3+	c #F9CF41",
"4+	c #FFF858",
"5+	c #FEFF9D",
"6+	c #FEFFB6",
"7+	c #FFFF8D",
"8+	c #FFFF99",
"9+	c #FFFF95",
"0+	c #FFFFBB",
"a+	c #FBE247",
"b+	c #C2A332",
"c+	c #141003",
"d+	c #1D1203",
"e+	c #89661F",
"f+	c #FCEB4D",
"g+	c #FEF059",
"h+	c #FEFD7C",
"i+	c #FEFF9F",
"j+	c #FFFFB2",
"k+	c #FFFF83",
"l+	c #FFFF8A",
"m+	c #FFFFC7",
"n+	c #FFFFC6",
"o+	c #FFFFAF",
"p+	c #BFA734",
"q+	c #2F2B0A",
"r+	c #140A02",
"s+	c #2B1D05",
"t+	c #DEB339",
"u+	c #F8D243",
"v+	c #FDFE72",
"w+	c #FDFF84",
"x+	c #FFFFAB",
"y+	c #FFFFA1",
"z+	c #FFFF93",
"A+	c #FFFF81",
"B+	c #FDFFB9",
"C+	c #FFFFD2",
"D+	c #FFFF78",
"E+	c #C5A936",
"F+	c #7A681E",
"G+	c #2A2409",
"H+	c #0E0701",
"I+	c #A07725",
"J+	c #DBA437",
"K+	c #FDF86F",
"L+	c #FDFE8E",
"M+	c #FFFFB0",
"N+	c #FFFFA6",
"O+	c #FFFFB3",
"P+	c #FFFF88",
"Q+	c #FDFFB2",
"R+	c #FFFFA7",
"S+	c #FFFF80",
"T+	c #9B872A",
"U+	c #6F5F1B",
"V+	c #221D05",
"W+	c #201604",
"X+	c #5A481C",
"Y+	c #FDF87F",
"Z+	c #FEFFA7",
"`+	c #FFFFA0",
" @	c #FFFF7D",
".@	c #FEFF75",
"+@	c #FDFFA1",
"@@	c #FFFF7F",
"#@	c #F6E654",
"$@	c #675B1C",
"%@	c #35300B",
"&@	c #E8E072",
"*@	c #F2DD5E",
"=@	c #FFFC88",
"-@	c #FFFF91",
";@	c #FFFF82",
">@	c #FDF960",
",@	c #D6CF4A",
"'@	c #93882A",
")@	c #8B833E",
"!@	c #242213",
"~@	c #010100",
"{@	c #090601",
"]@	c #271D07",
"^@	c #6C6039",
"/@	c #787041",
"(@	c #95883D",
"_@	c #484211",
":@	c #464111",
"<@	c #060401",
"[@	c #0B0E05",
"                                                                      ",
"                                                                      ",
"                                    .                                 ",
"                                  . + . .                             ",
"                                  . . . + .                           ",
"                                . . . @ @ +                           ",
"                                # + . $ % +                           ",
"                                @ & + % @ +                           ",
"                              . % * * = - ;                           ",
"                          > , ' ) ! ~ { ] @                           ",
"                          , ^ / ( _ : < [ }                           ",
"                          | 1 2 3 4 5 6 7 8                           ",
"                          9 0 a b c d e f }                           ",
"                      # g h i j k l m n o g .                         ",
"                      p q r s t u v w x y g .                         ",
"                      z A B C D E F G H I J .                         ",
"                    K L M N O P Q R S T U V W                         ",
"                    X Y Z `  ...+.@.#.$.%.&.*..                       ",
"                    > =.-.;.>.,.'.).!.~.{.].^.#                       ",
"                    + /.(._.:.<.[.}.|.1.2.3.4.8 #                     ",
"                    5.6.7.8.9.0.a.b.c.d.e.f.g.h.i..                   ",
"                    j.k.l.m.n.o.p.q.r.s.t.u.v.w.$                     ",
"                  x.y.z.A.B.C.D.E.F.G.H.I.J.K.L.#                     ",
"                  M.N.O.P.Q.R.S.T.U.V.W.X.Y.Z.`.#                     ",
"                  M. +.+++@+#+$+%+&+*+=+-+;+>+,+5.                    ",
"                  5.'+)+!+~+{+]+^+/+(+_+:+<+[+}+|+                    ",
"                  1+2+3+4+5+6+7+8+9+8+_+0+9+a+b+c+                    ",
"                . d+e+f+g+h+i+j+9+k+l+m+n+o+f+p+q+                    ",
"                  r+s+t+u+v+w+x+y+z+A+B+C+D+E+F+G+                    ",
"                  H+d+I+J+K+L+M+N+O+P+Q+R+S+T+U+V+                    ",
"                  # $ W+X+Y+Z+`+`+ @.@+@@@#@$@%@                      ",
"                      # # &@*@=@-@;@>@,@'@)@!@~@                      ",
"                          {@]@^@/@(@_@:@<@                            ",
"                            5.  [@~@. ~@                              ",
"                                                                      "};
