/* XPM */
static char const * const  battleship_xpm[] = {
"143 35 20 1",
" 	c #000000",
".	c #353535",
"+	c #373737",
"@	c #848484",
"#	c #D4D4D4",
"$	c #B79B77",
"^	c #A8845C",
"&	c #6A6A6A",
"*	c #4F4F4F",
"=	c #646464",
"-	c #383736",
";	c #363636",
">	c #747474",
",	c #C4C4C4",
"'	c #3A3A3A",
")	c #95744F",
"!	c #5A5A5A",
"~	c #AC8B62",
"{	c #555555",
"]	c #373635",
"                                                                                                                                               ",
"                                                                                                                                               ",
"                                                                                                                                               ",
"                                                                 ......................                                                        ",
"                                                              ...+@@@.@@@@#@@@@@#@@@..@..............                                          ",
"                                           ...................$$^+@@@.@@@@#@@@@@#@@@..@@.$$$$$^$$$^$$...................                       ",
"                                  .........^^^^^^^...^^^^^^^^^^...@@@.@...............@@+^^^^^^^^^...^^^^^^^^....^^^^^^^........               ",
"                          ...........$^+@.^$$...$$.@+$^$$$^$$$^+@@.@@.@@@@@##@@#@@@@..@@@.$$^$$$^$.@.$$....$^.@@.$$...$$^$$$^##&...            ",
"                     .....^^^^^........@@.^........@+^^........@@@...........................^^^^^.@+.........@@........^^^^^##&&&&..          ",
"                .....*#*^$$$^$$+@@@@@@@.@..@@@@@@@.@+$$+@@@@@@@@@@.@@@@@@@@@@##@@@@@@@@@@@@@+$^$$$.@.@@@@@@@@.=..@@@@@@@.$^$$##&&&&&...        ",
"             ...^^^^^*#*^^^^^^.@@@@@@@@...@@@@@@@@@...^+@@@@@@@@@..@@@@@@@@@@##@@@@@@@@@@@@@+^^^^....@@@@@@@@...@@@@@@@@@-^^^##&&&.&.&&..      ",
"          ...............................@@........@@..@@......@+@.......................@@@@..$^.@@........@@...............................  ",
"         ..@.#.@@@@@@@..#.@@@@@@@@@@@@@@@.@.******....@@.@@@@@@@.@.@@@@@@@@@@##@@@@@@@@@@.@@@@@.^....*******..@@@@@@@@@@@@@@@.#.@@@@@@@@@##@.  ",
"       ..&;>.#.>>>>>>>..#.>>>>>>>>>>>>>>>.@.****.*.==.@@.@@@@@@.@@.@@@@@@@@@@##@@@@@@@@@@.@@@@@.$^.=.*****.*..>>>>>>>>>>>>>>>.#.>>>>>>>>>##>.  ",
"     ..&&&;&.,.&&&&&&&..,.&&&&&&&&&&&&&&&.@.****.*....@@.@@@@@.@@@.@@@@......'#@@......+@.@@@@@.^....*****.*..&&&&&&&&&&&&&&&.,.&&&&&&&&&,,&.  ",
"   ..&&&&&;..............................@@.******.@@.@@.@@@@.@@@@..@@.******'#@.******+@.@@@@@.^.@@.*******.@...............................  ",
"  .&&&&...&&*))))))))*,*)))))+@.*******..@@.******....@@.@@@@.@@@@..@@......*'#@......*+@.@@@@@.^....*******.@@.*******.@@.)),,!!!!!!.@;!!!.   ",
" .&&&&;!!!;&*$$$^$$$^*,*)^^^)+@.*******..@@.******.==.@@.@@@@.@@@@.@.@..   .*'#@..   .*+@.@@@@@.$^.=.*******.@@.*******.@@.^^,,!!&&&&.@.&&&.   ",
"  .&&&&...&&*^^^^^^^^*,*)))))+@.*******..@@.******....@@.@@@@.@@@@..>@......*'#@......*+@.@@@@@.^....*******.@@.*******.@@.)),,!!&&&&.@;&&&.   ",
"   ..&&!!!;..............................@@.******.@@.@@.@@@@.@@@@..>@.******'#@.******+@.@@@@@.^.@@.*******.@...............................  ",
"     ..&&&;@.#.@@@@@@@..#.@@@@@@@@@@@@@@@.@.*.****....@@.@@@@>.@@@.>@@>......'#@>......+@.@@@@@.^....*.*****..@@@@@@@@@@@@@@@.#.@@@@@@@@@##@.  ",
"       ..&;>.#.>>>>>>>..#.>>>>>>>>>>>>>>>.@.*.****.==.@@.@@@@>>.@@.>@@>>>>>>>##@>>>>>>>@@.@@@@@.$^.=.*.*****..>>>>>>>>>>>>>>>.#.>>>>>>>>>##>.  ",
"         ..&.,.&&&&&&&..,.&&&&&&&&&&&&&&&.@.******....@@.@@@@@>>.@.>@@>>>>>>>##@>>>>>>>@@.@@@@@.^....*******..&&&&&&&&&&&&&&&.,.&&&&&&&&&,,&.  ",
"          ...............................>>........@@..@>......>;@.......................>@@@..~^.@@........>>...............................  ",
"             ...)))))*,*)))))).&&&&&&&&...&>>>>>>>>...)+>>>>>>>@>..>>>>>>>>>>,,>>>>>>>>>>>@@+)))^....>>>>>>>>...&&&&&&&&{]))),,!!!.!.!!..      ",
"                .....*,*)^^^)^^.{{{{{{{.=..&&&&&&&.=;^^+>>>>>>>@@>.>>>>>>>>>>,,>>>>>>>>>>>@@+~)~$^.=.&&&&&&&&.=..{{{{{{{.^^$$,,!!&!&...        ",
"                     .....)))))........@@.)........@+))........@@@...........................))^^^.@+.........@@........)^^^^,,!!&&..          ",
"                          ...........^)+@.)^^...^^.@+^)^^^)^^^)+@@.>>.>>>>>,,>>,>>>>..>>>.~^)$$$^$.@+^^....^).@@.^^...^^)$$$^##&...            ",
"                                  .........)))))))...))))))))))...>>>.@...............>>;))))^^^^^...))))))))....)))))))........               ",
"                                           ...................^^);>>>.@>>>,>>>>>,>>>..>>.~^~~$$$$$)^^...................                       ",
"                                                              ...;>>>.@>>>,>>>>>,>>>..>..............                                          ",
"                                                                 ......................                                                        ",
"                                                                                                                                               ",
"                                                                                                                                               ",
"                                                                                                                                               "};
