/* XPM */
static char const* const carrier_xpm[] = {
"179 35 28 1",
" 	c #000000",
".	c #4F4F4F",
"+	c #E9E9E9",
"@	c #6A6A6A",
"#	c #D4D4D4",
"$	c #525252",
"^	c #505050",
"&	c #9F9F9F",
"*	c #8F8F8F",
"=	c #5A5A5A",
"-	c #040404",
";	c #FF1538",
">	c #EA0023",
",	c #E90525",
"'	c #E8E8E8",
")	c #6D6C69",
"!	c #E6E6E6",
"~	c #6C6C6C",
"{	c #6D6C6A",
"]	c #F4E900",
"^	c #F3E805",
"/	c #E7E7E7",
"(	c #53534F",
"_	c #6D6A6A",
":	c #FE1839",
"<	c #E9E9E8",
"[	c #C4C4C4",
"}	c #BFBFBF",
"                                                                                                                                                                                   ",
"                                                                                                                           ................                                        ",
"                                                                                                                           .+@@@@@@@@@@@@+.                                        ",
"                                                                                                                           .+@@@@@@@@@@@@+.                                        ",
"                                                        ...................                                              ...+@@@@@@@@@@@@+.                                        ",
"                                                  ......###.+@@@@@@@@@@@@+...$$$..................................^^^....##.+@@@@@@@@@@@@+.........^^^^^^................          ",
"                                          ........#########.+@@@@@@@@@@@@+.####.&&&&&&&&&&&&&&&&&&&&&&&&&&&&&&&&&.&&&&&.###.+@@@@@@@@@@@@+.######.&&&&&&&&.&.&.&&&######......     ",
"                            .........$$$$$#########.........+@@@@@@@@@@@@+.@@@@.&&&.&&..&&&&.******.......&&&&&.&&&.&&&.@@@.+@@@@@@@@@@@@+.@@@@@@===.&&&&&.&.&.&&&@@@@@@@@@@@.     ",
"            .......$........@@@@@@@@@#############.@@@@@@@@.+@@@@@@@@@@@@+.@@@@.&&&.&&.*.&&&.&&&&&&.    -.&&&&&.&&&.&&&.@@@.+@@@@@@@@@@@@+.@@@@@@====.............@@@@;.......     ",
"    ........@@@@@@@@@@@@@@@@@@@@@@@@@.............@@@@@@@@@.+@@@@@@@@@@@@+.@@@@.&&&............................&&&.*&&&.@@@.+@@@@@@@@@@@@+.@@@@@@========>.............++++++.     ",
"   .@@@@@@@@@@@@@@@@@@@@@@@@@@@@@@@@@@@@@@@@@@@@@@@@@@@@@@@.+@@@@@@@@@@@@+.@@@@=..&******.........................*&&&&.@@@................@@,............++++++++'''''@)@+++.     ",
"   .!!!!!@@@@@@@@@@@@@@@@@@@@@@@@@@@@@@@@@@@@@@@@@@@@@@@@@@.+@@@@@@@@@@@@+.@@@@===.......========================.....==@@@@@@@@@;............++++++++''''@@@@@@@@@@@@@@@@+++.     ",
"   .!@!~!@@@@@@@@@@@@@@@@@@@@@@@@@@@@@@@@@@@@.....@@@@@@@@@.+@@@@@@@@@@@@+.@@@@=========================================@@;.......''''''++++++@@@@@@@@@@@@@@@@@@@@@@@@@@@@@++.     ",
"   .!@!@!@@@@@@@@@@@@@@@@@@@@@@@@@@@@@@@@@@@@.###.@@@@@@@@@................@@@@@@@=======@@@@@@@@@@=======@@@@;............+++++++@@@@@@@@@@@@@@@@@@@@@@@@@@@@@@@@@@@@@@@@@++.     ",
"   .{@@@@@@@@@@@@@@@@@@@@@@@@@@@@@@@@@@@@@@@@.###.@@@@@@@@@@@@@@@@@]@@@@@@@@@@@@@@@@@@===@@@@@@@@@;............+++++++''+'+@@@@@@@@@@@@@@@@@@@@@@@@@@@@@@@@@@@@@@@@@@@@@@@@++.     ",
"   .^^^{^^^{]^^{^^^{^^^{^^^{^^^{^^^{^^^{^^])].###.){)]^^^^^^^^^^^^^]^@@@@@@@@@@@@@@@@@>==@@@@......++++++'''''+@@@@@@@@@@@@@@@@@@@@@@@@@@@@@@@@@@@@@@@@@@@@@@@@@@+;@+++@@@@++.     ",
"   .@@@@~@@@@@@@@@@@@@@@@@@@@@@@@@@@@@@@@@@@@.###.@@@@@@@@@@@@@@@@@@@]@@@@@@@@@;.............++++++@@@@@@@@@@@@@@@@@@@@@@@@@@@@@@@@@@@@@@@@@@@@@@@@@@@@@@@++;@+++@@@@@@@@@@++.     ",
"   .@@@@/@@@@@@@@@@@@@@@@@@@@@@@@@@@@@@@@@@@@.###.@@@@@@@@@@@@@@@@@@;.(.........+++++++''''''@@@@@@@@@@@@@@@@@@@@@@@@@@@@@@@@@@@@@@@@@@@@@@@@@+;@+++@@@@@@@@@@@@@@@@@@@@@@@@++.    ",
"   ./////@@@@@@@@@@@@@@@@@@@@@@@@@@@@@@@@@@@@.....@@@@@_@@@@@:.......+++<<<<<<<<@@@@@@@@@@@@@@@@@@)@@@@@@@@@@@@@@@@@@@@@@@@@@@@@@++@+++@@@@@@@@@@@@@@@@@@@@@@@@@@@@@@@@@@@@@++.    ",
"   .@/@@/@@@@@@@@@@@@@@@@@@@@@@@@@@@@@@@@@@@@@@@@:............+++++++@@@@@@@@@@@@@@@@@@@@@@@@@@@@@@@@@@@@@@@@@@@@@@@@@@@@@++;@+++@@@@@@@@@@@@@@@@@@@@@@@@@@@@@@@@@@@@@@@@@@@++.    ",
"   .@@@@@@@@@@@@@@@@@@@@@@@@@@@@@@@@@@@@@@@@@@@@@.+++++++'''''@@@@@@@@@@@@@@@@@@@@@@@@@@@@@@@@@@@@@@@@@@@@@@@@+;@+++@@@@@@@@@@@@@@@@@@@@@@@@@@@@@@@@@@@@@@@@@@@@@@@@@@@'''''++.    ",
"   .................@@@@@@@@@@@@@@@@@@@@@@@@@@@@@.+++@)@@@@@@@@@@@@@@@@@@@@@@@@@@@@@@@@@@@@@@@@@@++;+++@@@@@@@@@@@@@@@@@@@@@@@@@@@@@@@@@@@@@@@@@@@@@@@@@@@+''''''++++++......:.    ",
"                    ...............[#@@@@@@@@@@@@.+++@@@@@@@@@@@@@@@@@@@@@@@@@@@@@@@++;!++@@@@@@@@@@@@@@@@@@@@@@@@@@@@@@@@@@@@@@@@@@@@@@@@@@@@@@@@@@@+++++.......:....._@@@@@.     ",
"                                  .##...........@.+++@@@@@@@@@@@@@@@@@@@@@@@@@+;@+++@@@@@@@@@@@@@@@@@@@@@@@@@@@@@@@@@@@@@@@@@@@@@@@@@@@@+'''''+++++++.....@@@@@@@_@@@@@@@@@@@.     ",
"                                   .############.@.+++@@@@@@!!@@@++;@++@@@@@@@@@@@@@@@@@@@@@@@@@@@@@@@@@@@@@@@@@@@@@@@@@@@@@+'''''++++++.............;@@@@@@@@@@@@@@@@@@@@@@@      ",
"                                    ...........#.@.+++@@++:!@@@@@@@@@@@@@@@@@@@@@@@@@@@@@@@@@@@@@@@@@@@@@@@@@@@'''''''++++++............;@@@@@@@@@@@@@@@@@@@@@@@@@@@@@@@@@@@.      ",
"                                              .#.@.+++@@@@@@@@@@@@@@@@@@@@@@@@@@@@@@@@@@@@@@@@@@@@@@@@@@@++++++.............;@@@@@@@@@@@@@@@@@@@@@@@@@@@@@@@@@@@@@@@@@@@@@@.       ",
"                                              .#.@.+++@@@@@@@@@@@@@@@@@@@@@@@@@@@@@@@@@@@@@@@'''''''+++++.............;....................................................        ",
"                                               .}.@.+++@@@@@@@@@@@@@@@@@@@@@@@@@'''''''++++++............;......}}}}}}}#############################################.              ",
"                                               .#.@.+++@@@@@@@@@@@@@@@@@@@@+++++.............;.....................................................................                ",
"                                               .#.@.+++@@@@@@@+++++++''''''.....;.............                                                                                     ",
"                                               .#.@.++++++++++.............;............                                                                                           ",
"                                               .#}.:..........;................                                                                                                    ",
"                                                .. ...............                                                                                                                 ",
"                                                                                                                                                                                   "};
