/* XPM */
static char const * const cruiser_xpm[] = {
"107 35 22 1",
" 	c #000000",
".	c #353535",
"+	c #848484",
"@	c #A8845C",
"#	c #B79B77",
"$	c #4F4F4F",
"_	c #6A6A6A",
"&	c #D4D4D4",
"*	c #6D6D6D",
"=	c #373737",
"-	c #5A5A5A",
";	c #363636",
">	c #747474",
",	c #FFFFFF",
"'	c #FEFEFE",
")	c #838383",
"!	c #3A3A3A",
"~	c #010101",
"{	c #383736",
"]	c #373635",
"^	c #AC8B62",
"/	c #95744F",
"                                                                                                           ",
"                                                                                                           ",
"                                                                                                           ",
"                                                                                                           ",
"                                                                                                           ",
"                                                                                                           ",
"                                                                                                           ",
"                                                                                                           ",
"                                                        ..           ..                                    ",
"                                             ............+............+.........................           ",
"                                 ............@@@@@@@@@@@.+.@@@@@@@@@@.+.@@@@@@@@@@@@@@@@@@@@............   ",
"                   ..............#@######@####@#........++...........++.......#@####@####@##$$$$$$$$$$$$.  ",
"             ......_$&&&&&$@@@@@@@@@@@@@@@@@@...++++++++++++++++++++++++++++..@@@@@@@@@@@@@@$__________$.  ",
"       ......______.$&&&&&$@@.........@@@@....++++.++++++++................++....@.........@$_********_$.  ",
"     .._________==-;$&&&&&$##.++.+.++.###@.++.++++.++..+++.++++++++++++++++.+.>>.#.++.+.++.#$_,,,,,,,,_$.  ",
"   ..___________++._$&&&&&$@@.++.+.++.@@@@.++.++++.+.++.++.+++++++++++++++++..>>.@.++.+.++.@$_''',,'''_$.  ",
"  ._______;_______;_$&&&&&$##.........@###.++.++++..+))+.+.+...............+..>>.#.........@$____,,**__$.  ",
"  ._______-;;;;;;;__$&&&&&$@@.!!!!!!!.@@@@.++.++++..+..+.+.+.       ..   ~.+..>>.@.!!!!!!!.@$____,,____$.  ",
"  ;_______.-----__;_$&&&&&$@@.==.=.==.@@@@.++.++++.;+))+=+.+...............+..>>.@.........@$____,,____$.  ",
"   .._____-_____++._$&&&&&$##.++.+.++.###@.++.++++.>=>>;++.>>>>>>>>>>>>>>>>>..>>.#.++.+.++.#$_''',,'''_$.  ",
"     .._________..-.$&&&&&$@@.)););)).@@@@....++++.>>;;>++.>>>>>>>>>>>>>>>>.>.>>.@.++.+.++.@$_,,,,,,,,_$.  ",
"       ..;;;;___--_.$&&&&&$##{{{]{{{{{@###^/^...++>>>>>>++>................>>....#.........@$_********_$.  ",
"             ......-$&&&&&$@@/////////@@@@////..++>>>>>>++>>>>>>>>>>>>>>>>>>..///@/////////@$__________$.  ",
"                  ...............^/^^^###@^^^^//........++...........>>.......@@@@@@@@@@@@@@$$$$$$$$$$$$.  ",
"                                 ............///////////.+.//////////.>.//////@@@@@@@@@@@@@@............   ",
"                                             ............+............+........................            ",
"                                                        ..           ..                                    ",
"                                                                                                           ",
"                                                                                                           ",
"                                                                                                           ",
"                                                                                                           ",
"                                                                                                           ",
"                                                                                                           ",
"                                                                                                           ",
"                                                                                                           "};
