/* XPM */
static char const* const destroyer_xpm[] = {
"71 35 10 1",
" 	c #000000",
".	c #353535",
"+	c #5A5A5A",
"@	c #848484",
"#	c #6A6A6A",
"$	c #4F4F4F",
"^	c #D4D4D4",
"&	c #838383",
"*	c #BFBFBF",
"=	c #7A7A7A",
"                                                                       ",
"                                                                       ",
"                                                                       ",
"                                                                       ",
"                                                                       ",
"                                                                       ",
"                                                                       ",
"                                                                       ",
"                        ...                                            ",
"                        .+.                                            ",
"                    .....@.............................                ",
"             ........###.@.############################........        ",
"          ...#.......#...@........................#####.......#.....   ",
"        ..$$#.@@@@@....@.@.@.@@@@@@@@@@@@@@@@@@@@........@@@@@.$^^^..  ",
"    .................#.@...@.................@@@@.@@@@.................",
"  ..@.@@@@@@@..$$$$....@.+.@.@@@@@@@@@@@@@@@.@@@@.@@@@...$$$$..@@@@@@@.",
" .@@@..........$$$$..#.@.@.@.@@.....@.....@@.@@@@.@@@@...$$$$..........",
".@@@.+++++$$+..$$$$....@.@.@.@@.   .@.   .@@.@@&@.@@@@...$$$$..$***.   ",
" .@@+..........$$$$..#.@.@.@.@@.....@.....@@.@@@@.@@@@...$$$$..........",
"  ..@.@@@@@@@..$$$$....@.@.@.@@+++++@+++++@@.@@@@.@@@@...$$$$..@@@@@@@.",
"    .................#.@...@.................@@@@.@@@@.................",
"        ..$$+.=====....@.+.@.++++++++++++++++@@@@........=====.$***..  ",
"          ...+.......#...@........................+++++.......+.....   ",
"             ........#++.@.++++++++++++++++++++++++++++........        ",
"                    .....@.............................                ",
"                        .@.                                            ",
"                        ...                                            ",
"                                                                       ",
"                                                                       ",
"                                                                       ",
"                                                                       ",
"                                                                       ",
"                                                                       ",
"                                                                       ",
"                                                                       "};
