/* XPM */
static char const * const submarine_xpm[] = {
"107 35 22 1",
" 	c #000000",
".	c #353535",
"+	c #6A6A6A",
"@	c #D4D4D4",
"#	c #1A1A1A",
"$	c #9F9F9F",
"^	c #3F3F3F",
"&	c #5F5F5F",
"*	c #252525",
"=	c #AAAAAA",
"-	c #4A4A4A",
";	c #2F2F2F",
">	c #B4B4B4",
",	c #F4F4F4",
"'	c #555555",
")	c #3A3A3A",
"!	c #BFBFBF",
"~	c #848484",
"{	c #454545",
"]	c #C9C9C9",
"^	c #4F4F4F",
"/	c #5A5A5A",
"                                                                                                           ",
"                                                                                           ....            ",
"                                                                                          .+++.            ",
"                                                                                          .++..            ",
"                                                                                          .++@.            ",
"                                                                                          +++@.            ",
"           ...                                                                            +++@.            ",
"           ++.                                                                           .+++@.            ",
"           ++.                                                                           .+++@.            ",
"         ..++....#...#........................................................          .++++@.            ",
"    .......++....#$$$#.............................................................    .+++++..            ",
"  ......^^^&&.^^^*===*^^^^^^^^^^^^^^^^^^^^^^^^^^^^^^^^^^^^^^^^^^^^^^^^^^^^^^^^^^^^^....+++++++.        @   ",
"  ..^------------;>>>;-----------..----------------------------------------------------...++++.        ,   ",
" .^^-'''''''''''')!!!)''''''''...~.'''''''''''''''''''''''''''''''''''''''''''''''''''''''...+.        @   ",
" .-&&&&&&&&&&&&&&{]]]{&&&&&&.....~.&.............&&&&&&&&&&&&&&&&&&&&&&&&&&&&&&&&&&&&&&&&&&&&...      ,@   ",
".^&&+++++++++++++^@@@^++++++..^^^~.+~~~~~~~~~~~~~.......++++++++++++++++++++++++++++++++++++++++...   @,   ",
".&+++++++++++++++^@@..........^^~~.+~~~...~~~~.~~~~~~~~~.......++++++++++++++++++++++++++++++++++++.. @@.  ",
".&+++++++++++++++^@@.~~~~~~~~~^^^~.+~~.~~~.~~~/~~~~~...~~~~~~~~......./++++++++++++++++........++++++.,,.. ",
".&+++++++++++++++^@@..........^~^~.+~~/.../~~~.~~~~~///~.......///+++++++++++++++++++++++++++++++++.. @@.  ",
".^&&+++++++++++++^@@>^''''''..^^^~.+~~/////~~~/~~.......///////+++++++++++++++++++++++++++++++++...   @,   ",
" .-&&&&&&&&&&&&&&{]]]{&&&&&&.....~.&.............''''''''''''&&&&&&&&&&&&&&&&&&&&&&&&&&&&&&&&...      ,@   ",
" .^^-'''''''''''')!!!)''''''--...~.'----------------------''''''''''''''''''''''''''''''''...'.        @   ",
"  ..^------------;>>>;-------^^^^..-^^^^^^^^^^^^^^^^^^^--------------------------------...'''+.        ,   ",
"  ......^^^&&.^^^*===*^^^^^^^^^^^^^^^^^^^^^^^^^^^^^^^^^^^^^^^^^^^^^^^^^^^^^^^^^^^^^....'''''++.        @   ",
"    .......++....#$$$#.............................................................    .''+++..            ",
"         ..++....#...#........................................................          .'+++@.            ",
"           ++.                                                                           .+++@.            ",
"           ++.                                                                           .+++@.            ",
"           ...                                                                            +++@.            ",
"                                                                                          +++@.            ",
"                                                                                          .++@.            ",
"                                                                                          .++..            ",
"                                                                                          .+++.            ",
"                                                                                           ....            ",
"                                                                                                           "};
