/* XPM */
static char const* const cursor[] = {
"15 15 2 1",
"  c #000000",
". c #FF0000",
"       .       ",
"       .       ",
"     .....     ",
"    .. . ..    ",
"   ..  .  ..   ",
"  ..   .   ..  ",
"  .    .    .  ",
"...............",
"  .    .    .  ",
"  ..   .   ..  ",
"   ..  .  ..   ",
"    .. . ..    ",
"     .....     ",
"       .       ",
"       .       "};
