/* XPM */
static char const * const deletemode_xpm[] = {
"132 35 120 2",
"  	c None",
". 	c #030303",
"+ 	c #FCFCFC",
"@ 	c #FFFFFF",
"# 	c #FEFEFE",
"$ 	c #F8F8F8",
"% 	c #EFEFEF",
"& 	c #DEDEDE",
"* 	c #ADADAD",
"= 	c #353535",
"- 	c #646464",
"; 	c #FAFAFA",
"> 	c #DFDFDF",
", 	c #F1F1F1",
"' 	c #EBEBEB",
") 	c #575757",
"! 	c #E7E7E7",
"~ 	c #383838",
"{ 	c #F2F2F2",
"] 	c #232323",
"^ 	c #BABABA",
"/ 	c #505050",
"( 	c #323232",
"_ 	c #656565",
": 	c #7B7B7B",
"< 	c #C3C3C3",
"[ 	c #E4E4E4",
"} 	c #717171",
"| 	c #8A8A8A",
"1 	c #747474",
"2 	c #888888",
"3 	c #3B3B3B",
"4 	c #B7B7B7",
"5 	c #E6E6E6",
"6 	c #F7F7F7",
"7 	c #FBFBFB",
"8 	c #EEEEEE",
"9 	c #CFCFCF",
"0 	c #F6F6F6",
"a 	c #ABABAB",
"b 	c #969696",
"c 	c #A6A6A6",
"d 	c #404040",
"e 	c #B6B6B6",
"f 	c #F3F3F3",
"g 	c #D8D8D8",
"h 	c #979797",
"i 	c #515151",
"j 	c #D0D0D0",
"k 	c #D9D9D9",
"l 	c #686868",
"m 	c #818181",
"n 	c #F4F4F4",
"o 	c #5A5A5A",
"p 	c #B3B3B3",
"q 	c #BDBDBD",
"r 	c #595959",
"s 	c #ECECEC",
"t 	c #D3D3D3",
"u 	c #171717",
"v 	c #0F0F0F",
"w 	c #E8E8E8",
"x 	c #F5F5F5",
"y 	c #7E7E7E",
"z 	c #FDFDFD",
"A 	c #CBCBCB",
"B 	c #B0B0B0",
"C 	c #6D6D6D",
"D 	c #535353",
"E 	c #D4D4D4",
"F 	c #E0E0E0",
"G 	c #E2E2E2",
"H 	c #2B2B2B",
"I 	c #878787",
"J 	c #474747",
"K 	c #767676",
"L 	c #D7D7D7",
"M 	c #DDDDDD",
"N 	c #727272",
"O 	c #8C8C8C",
"P 	c #D6D6D6",
"Q 	c #898989",
"R 	c #C8C8C8",
"S 	c #858585",
"T 	c #272727",
"U 	c #8D8D8D",
"V 	c #BFBFBF",
"W 	c #CDCDCD",
"X 	c #3E3E3E",
"Y 	c #D2D2D2",
"Z 	c #CACACA",
"` 	c #B5B5B5",
" .	c #2F2F2F",
"..	c #848484",
"+.	c #A4A4A4",
"@.	c #9B9B9B",
"#.	c #919191",
"$.	c #7C7C7C",
"%.	c #838383",
"&.	c #797979",
"*.	c #7D7D7D",
"=.	c #EDEDED",
"-.	c #808080",
";.	c #C9C9C9",
">.	c #434343",
",.	c #E5E5E5",
"'.	c #454545",
").	c #4E4E4E",
"!.	c #4C4C4C",
"~.	c #CECECE",
"{.	c #F9F9F9",
"].	c #666666",
"^.	c #8B8B8B",
"/.	c #C4C4C4",
"(.	c #DBDBDB",
"_.	c #B2B2B2",
":.	c #C6C6C6",
"<.	c #D5D5D5",
"[.	c #D1D1D1",
"}.	c #5D5D5D",
". . . . . . . . . . . . . . . . . . . . . . . . . . . . . . . . . . . . . . . . . . . . . . . . . . . . . . . . . . . . . . . . . . . . . . . . . . . . . . . . . . . . . . . . . . . . . . . . . . . . . . . . . . . . . . . . . . . . . . . . . . . . . . . . . . . . ",
". . . . . . . . . . . . . . . . . . . . . . . . . . . . . . . . . . . . . . . . . . . . . . . . . . . . . . . . . . . . . . . . . . . . . . . . . . . . . . . . . . . . . . . . . . . . . . . . . . . . . . . . . . . . . . . . . . . . . . . . . . . . . . . . . . . . ",
". . . . . . . . . . . . . . . . . . . . . . . . . . . . . . . . . . . . . . . . . . . . . . . . . . . . . . . . . . . . . . . . . . . . . . . . . . . . . . . . . . . . . . . . . . . . . . . . . . . . . . . . . . . . . . . . . . . . . . . . . . . . . . . . . . . . ",
". . . . . . . . . . . . . . . . . . . . . . . . . . . . . . . . . . . . . . . . . . . . . . . . . . . . . . . . . . . . . . . . . . . . . . . . . . . . . . . . . . . . . . . . . . . . . . . . . . . . . . . . . . . . . . . . . . . . . . . . . . . . . . . . . . . . ",
". . . . . . . . . . . . . . . . . . . . . . . . . . . . . . . . . . . . . . . . . . . . . . . . . . . . . . . . . . . . . . . . . . . . . . . . . . . . . . . . . . . . . . . . . . . . . . . . . . . . . . . . . . . . . . . . . . . . . . . . . . . . . . . . . . . . ",
". . . . . . . . . . . . . . . . . . . . . . . . . . . . . . . . . . . . . . . . . . . . . . . . . . . . . . . . . . . . . . . . . . . . . . . . . . . . . . . . . . . . . . . . . . . . . . . . . . . . . . . . . . . . . . . . . . . . . . . . . . . . . . . . . . . . ",
". + @ @ @ # + $ % & * = . . . . . . . . . . . . . . . - @ @ @ @ ; . . . . . . . . . . . . . . . . . . . . . . . . . . . . . . . . . . . . . . . . + @ @ @ @ @ > . . , @ @ @ @ @ , . . . . . . . . . . . . . . . . . . . . . ' @ @ @ @ ) . . . . . . . . . . . . . . . . ",
". + @ @ @ @ @ @ @ @ @ ! ~ . . . . . . . . . . . . . . - @ @ @ @ ; . . . . . . . . . . . . . . . . . . . . . . . . . . . . . . . . . . . . . . . . + @ @ @ @ @ { . ] # @ @ @ @ @ , . . . . . . . . . . . . . . . . . . . . . ' @ @ @ @ ) . . . . . . . . . . . . . . . . ",
". + @ @ @ @ @ @ @ @ @ @ ^ . . . . . . . . . . . . . . - @ @ @ @ ; . . . . . . . . . . . . . . . % @ @ @ @ / . . . . . . . . . . . . . . . . . . . + @ @ @ @ @ @ ( _ @ @ @ @ @ @ , . . . . . . . . . . . . . . . . . . . . . ' @ @ @ @ ) . . . . . . . . . . . . . . . . ",
". + @ @ @ @ : < @ @ @ @ [ . . . . . . . . . . . . . . - @ @ @ @ ; . . . . . . . . . . . . . . . % @ @ @ @ / . . . . . . . . . . . . . . . . . . . + @ @ @ @ @ @ } | @ @ @ @ @ @ , . . . . . . . . . . . . . . . . . . . . . ' @ @ @ @ ) . . . . . . . . . . . . . . . . ",
". + @ @ @ @ 1 2 @ @ @ @ % . . . 3 4 5 6 7 8 9 : . . . - @ @ @ @ ; . . . 3 4 5 6 7 8 9 : . . . 0 @ @ @ @ @ @ a . . 3 4 5 6 7 8 9 : . . . . . . . . + @ @ @ @ @ @ b c @ @ @ @ @ @ , . . . d e ! 6 + f g h . . . . i j 0 ; k l ' @ @ @ @ ) . . 3 4 5 6 7 8 9 : . . . . . . ",
". + @ @ @ @ 1 m @ @ @ @ n . . o % @ @ @ @ @ @ # * . . - @ @ @ @ ; . . o % @ @ @ @ @ @ # * . . 0 @ @ @ @ @ @ a . o % @ @ @ @ @ @ # * . . . . . . . + @ @ @ @ @ @ p q @ @ @ @ @ @ , . . r s @ @ @ @ @ @ @ t u . v w @ @ @ @ x x @ @ @ @ ) . o % @ @ @ @ @ @ # * . . . . . ",
". + @ @ @ @ 1 m @ @ @ @ 0 . . k @ @ @ @ @ @ @ @ # y . - @ @ @ @ ; . . k @ @ @ @ @ @ @ @ # y . 0 @ @ @ @ @ @ a . k @ @ @ @ @ @ @ @ # y . . . . . . + @ @ @ z @ @ A j @ @ z @ @ @ , . . t @ @ @ @ @ @ @ @ @ B . C @ @ @ @ @ @ @ @ @ @ @ ) . k @ @ @ @ @ @ @ @ # y . . . . ",
". + @ @ @ @ 1 m @ @ @ @ 0 . d z @ @ @ ! D z @ @ @ E . - @ @ @ @ ; . d z @ @ @ ! D z @ @ @ E . . % @ @ @ @ / . d z @ @ @ ! D z @ @ @ E . . . . . . + @ @ @ % @ @ F G @ @ % @ @ @ , . H 7 @ @ @ w / + @ @ @ ' . I @ @ @ @ 5 J 0 @ @ @ @ ) d z @ @ @ ! D z @ @ @ E . . . . ",
". + @ @ @ @ 1 m @ @ @ @ 0 . K @ @ @ @ L . n @ @ @ , . - @ @ @ @ ; . K @ @ @ @ L . n @ @ @ , . . % @ @ @ @ / . K @ @ @ @ L . n @ @ @ , . . . . . . + @ @ @ M @ @ f , @ @ & @ @ @ , . N @ @ @ @ L . n @ @ @ + . O @ @ @ @ P . s @ @ @ @ ) K @ @ @ @ L . n @ @ @ , . . . . ",
". + @ @ @ @ 1 m @ @ @ @ 0 . Q @ @ @ @ P . f @ @ @ # v - @ @ @ @ ; . Q @ @ @ @ P . f @ @ @ # v . % @ @ @ @ / . Q @ @ @ @ P . f @ @ @ # v . . . . . + @ @ @ R @ @ @ # @ z 9 @ @ @ , . S @ @ @ @ P . f @ @ @ @ T U @ @ @ @ P . ' @ @ @ @ ) Q @ @ @ @ P . f @ @ @ # v . . . ",
". + @ @ @ @ 1 m @ @ @ @ 0 . U @ @ @ @ @ @ @ @ @ @ @ = - @ @ @ @ ; . U @ @ @ @ @ @ @ @ @ @ @ = . % @ @ @ @ / . U @ @ @ @ @ @ @ @ @ @ @ = . . . . . + @ @ @ V 6 @ @ @ @ 8 W @ @ @ , . U @ @ @ @ P . f @ @ @ @ ( U @ @ @ @ P . ' @ @ @ @ ) U @ @ @ @ @ @ @ @ @ @ @ = . . . ",
". + @ @ @ @ 1 m @ @ @ @ 0 . U @ @ @ @ @ @ @ @ @ @ @ X - @ @ @ @ ; . U @ @ @ @ @ @ @ @ @ @ @ X . % @ @ @ @ / . U @ @ @ @ @ @ @ @ @ @ @ X . . . . . + @ @ @ V 5 @ @ @ @ M W @ @ @ , . U @ @ @ @ P . f @ @ @ @ ( U @ @ @ @ P . ' @ @ @ @ ) U @ @ @ @ @ @ @ @ @ @ @ X . . . ",
". + @ @ @ @ 1 m @ @ @ @ 0 . U @ @ @ @ @ @ @ @ @ @ @ X - @ @ @ @ ; . U @ @ @ @ @ @ @ @ @ @ @ X . % @ @ @ @ / . U @ @ @ @ @ @ @ @ @ @ @ X . . . . . + @ @ @ V Y @ @ @ @ Z W @ @ @ , . U @ @ @ @ P . f @ @ @ @ ( U @ @ @ @ P . ' @ @ @ @ ) U @ @ @ @ @ @ @ @ @ @ @ X . . . ",
". + @ @ @ @ 1 m @ @ @ @ 0 . U @ @ @ @ P . . . . . . . - @ @ @ @ ; . U @ @ @ @ P . . . . . . . . % @ @ @ @ / . U @ @ @ @ P . . . . . . . . . . . . + @ @ @ V q @ @ @ @ ` W @ @ @ , . U @ @ @ @ P . f @ @ @ @  .U @ @ @ @ P . ' @ @ @ @ ) U @ @ @ @ P . . . . . . . . . . ",
". + @ @ @ @ 1 ..@ @ @ @ 0 . 2 @ @ @ @ P . j @ @ @ @ X - @ @ @ @ ; . 2 @ @ @ @ P . j @ @ @ @ X . % @ @ @ @ / . 2 @ @ @ @ P . j @ @ @ @ X . . . . . + @ @ @ V +.@ @ @ @ @.W @ @ @ , . Q @ @ @ @ P . f @ @ @ @ u U @ @ @ @ P . ' @ @ @ @ ) 2 @ @ @ @ P . j @ @ @ @ X . . . ",
". + @ @ @ @ 1 #.@ @ @ @ f . $.@ @ @ @ P . j @ @ @ @ H - @ @ @ @ ; . $.@ @ @ @ P . j @ @ @ @ H . 8 @ @ @ @ i . $.@ @ @ @ P . j @ @ @ @ H . . . . . + @ @ @ V %.@ @ @ @ &.W @ @ @ , . *.@ @ @ @ L . f @ @ @ ; . O @ @ @ @ L . =.@ @ @ @ ) $.@ @ @ @ P . j @ @ @ @ H . . . ",
". + @ @ @ @ -.;.@ @ @ @ s . >.# @ @ @ 5 3 ,.@ @ @ $ . - @ @ @ @ ; . >.# @ @ @ 5 3 ,.@ @ @ $ . . =.@ @ @ @ *.. >.# @ @ @ 5 3 ,.@ @ @ $ . . . . . . + @ @ @ V D @ @ @ @ '.W @ @ @ , . ).@ @ @ @ w / 7 @ @ @ ! . ..@ @ @ @ 5 !.$ @ @ @ @ ) >.# @ @ @ 5 3 ,.@ @ @ $ . . . . ",
". + @ @ @ @ @ @ @ @ @ @ k . . P @ @ @ @ @ @ @ @ @ ~.. - @ @ @ @ ; . . P @ @ @ @ @ @ @ @ @ ~.. . ! @ @ @ @ @ j . P @ @ @ @ @ @ @ @ @ ~.. . . . . . + @ @ @ V . {.@ @ 6 . W @ @ @ , . . ,.@ @ @ @ @ @ @ @ @ * . ].@ @ @ @ @ @ @ @ @ @ @ ) . P @ @ @ @ @ @ @ @ @ ~.. . . . ",
". + @ @ @ @ @ @ @ @ @ # ^.. . ) s @ @ @ @ @ @ @ w J . - @ @ @ @ ; . . ) s @ @ @ @ @ @ @ w J . . /.@ @ @ @ @ j . ) s @ @ @ @ @ @ @ w J . . . . . . + @ @ @ V . w @ @ ! . W @ @ @ , . . y {.@ @ @ @ @ @ @ L u . v 5 @ @ @ @ f x @ @ @ @ ) . ) s @ @ @ @ @ @ @ w J . . . . ",
". + @ @ @ @ @ @ + f (.O . . . . ~ _.G 6 z $ ,.` ~ . . - @ @ @ @ ; . . . ~ _.G 6 z $ ,.` ~ . . . ( :.{ + @ @ j . . ~ _.G 6 z $ ,.` ~ . . . . . . . + @ @ @ V . <.@ @ <.. W @ @ @ , . . . l R ' ; z 0 > +.u . . . / [.6 {.t }.' @ @ @ @ ) . . ~ _.G 6 z $ ,.` ~ . . . . . ",
". . . . . . . . . . . . . . . . . . . . . . . . . . . . . . . . . . . . . . . . . . . . . . . . . . . . . . . . . . . . . . . . . . . . . . . . . . . . . . . . . . . . . . . . . . . . . . . . . . . . . . . . . . . . . . . . . . . . . . . . . . . . . . . . . . . . ",
". . . . . . . . . . . . . . . . . . . . . . . . . . . . . . . . . . . . . . . . . . . . . . . . . . . . . . . . . . . . . . . . . . . . . . . . . . . . . . . . . . . . . . . . . . . . . . . . . . . . . . . . . . . . . . . . . . . . . . . . . . . . . . . . . . . . ",
". . . . . . . . . . . . . . . . . . . . . . . . . . . . . . . . . . . . . . . . . . . . . . . . . . . . . . . . . . . . . . . . . . . . . . . . . . . . . . . . . . . . . . . . . . . . . . . . . . . . . . . . . . . . . . . . . . . . . . . . . . . . . . . . . . . . ",
". . . . . . . . . . . . . . . . . . . . . . . . . . . . . . . . . . . . . . . . . . . . . . . . . . . . . . . . . . . . . . . . . . . . . . . . . . . . . . . . . . . . . . . . . . . . . . . . . . . . . . . . . . . . . . . . . . . . . . . . . . . . . . . . . . . . ",
". . . . . . . . . . . . . . . . . . . . . . . . . . . . . . . . . . . . . . . . . . . . . . . . . . . . . . . . . . . . . . . . . . . . . . . . . . . . . . . . . . . . . . . . . . . . . . . . . . . . . . . . . . . . . . . . . . . . . . . . . . . . . . . . . . . . ",
". . . . . . . . . . . . . . . . . . . . . . . . . . . . . . . . . . . . . . . . . . . . . . . . . . . . . . . . . . . . . . . . . . . . . . . . . . . . . . . . . . . . . . . . . . . . . . . . . . . . . . . . . . . . . . . . . . . . . . . . . . . . . . . . . . . . ",
". . . . . . . . . . . . . . . . . . . . . . . . . . . . . . . . . . . . . . . . . . . . . . . . . . . . . . . . . . . . . . . . . . . . . . . . . . . . . . . . . . . . . . . . . . . . . . . . . . . . . . . . . . . . . . . . . . . . . . . . . . . . . . . . . . . . ",
". . . . . . . . . . . . . . . . . . . . . . . . . . . . . . . . . . . . . . . . . . . . . . . . . . . . . . . . . . . . . . . . . . . . . . . . . . . . . . . . . . . . . . . . . . . . . . . . . . . . . . . . . . . . . . . . . . . . . . . . . . . . . . . . . . . . ",
". . . . . . . . . . . . . . . . . . . . . . . . . . . . . . . . . . . . . . . . . . . . . . . . . . . . . . . . . . . . . . . . . . . . . . . . . . . . . . . . . . . . . . . . . . . . . . . . . . . . . . . . . . . . . . . . . . . . . . . . . . . . . . . . . . . . "};
